<svg width="41" height="40" viewBox="0 0 41 40" fill="none" xmlns="http://www.w3.org/2000/svg">
<path d="M34.088 17.9608H21.5987V11.8754H30.6098C30.7294 11.8754 30.8466 11.839 30.9457 11.7722L34.424 9.40801C34.5892 9.29448 34.689 9.10626 34.689 8.90408C34.689 8.7019 34.5892 8.51308 34.424 8.40015L30.9457 6.03594C30.8466 5.96915 30.73 5.93273 30.6098 5.93273H21.5987V3.07247C21.5987 2.73672 21.3301 2.46533 20.9978 2.46533H18.3807C18.0484 2.46533 17.7798 2.73672 17.7798 3.07247V5.93333H5.2899C4.95758 5.93333 4.68896 6.20472 4.68896 6.54047V11.2683C4.68896 11.604 4.95758 11.8754 5.2899 11.8754H17.7792V17.9608H8.76813C8.64854 17.9608 8.53136 17.9973 8.4322 18.064L4.95398 20.4283C4.78872 20.5418 4.68896 20.73 4.68896 20.9322C4.68896 21.1344 4.78872 21.3232 4.95398 21.4361L8.4322 23.8003C8.53136 23.8671 8.64794 23.9035 8.76813 23.9035H17.7792V35.251H12.6718C12.3395 35.251 12.0709 35.5224 12.0709 35.8582C12.0709 36.1939 12.3395 36.4653 12.6718 36.4653H18.3801H20.9972H26.7055C27.0378 36.4653 27.3064 36.1939 27.3064 35.8582C27.3064 35.5224 27.0378 35.251 26.7055 35.251H21.5981V23.9035H34.0874C34.4197 23.9035 34.6884 23.6322 34.6884 23.2964V18.5686C34.689 18.2328 34.4203 17.9608 34.088 17.9608ZM18.9811 3.67962H20.3963V5.93333H18.9811V3.67962ZM5.89084 10.6612V7.14762H18.3741C18.3759 7.14762 18.3777 7.14883 18.3801 7.14883C18.3825 7.14883 18.3837 7.14762 18.3861 7.14762H20.9918C20.9936 7.14762 20.9954 7.14883 20.9978 7.14883C21.0002 7.14883 21.0014 7.14762 21.0038 7.14762H30.4271L33.0117 8.90469L30.4271 10.6618L5.89084 10.6612ZM20.3969 11.8754V17.9608H18.9817V11.8754H20.3969ZM20.3969 35.251H18.9817V23.9035H20.3969V35.251ZM33.4871 22.6893H8.95141L6.36678 20.9322L8.95141 19.1751H33.4871V22.6893Z" fill="#56352E"/>
</svg>
