<svg width="781" height="135" viewBox="0 0 781 135" fill="none" xmlns="http://www.w3.org/2000/svg">
<path d="M673.621 81.3318C673.621 51.8764 697.654 27.8432 727.11 27.8432C756.565 27.8432 780.598 51.8764 780.598 81.3318C780.598 110.787 756.565 134.821 727.11 134.821C697.654 134.821 673.621 110.787 673.621 81.3318ZM697.361 81.3318C697.361 99.0637 710.697 112.399 727.11 112.399C743.522 112.399 756.858 99.0637 756.858 81.3318C756.858 63.6 743.522 50.2645 727.11 50.2645C710.697 50.2645 697.361 63.6 697.361 81.3318Z" fill="white"/>
<path d="M634.858 2.5C634.858 1.11929 635.977 0 637.358 0H645.547C646.928 0 648.047 1.11929 648.047 2.5V6.74104C648.047 15.8268 643.064 23.3005 633.979 23.3005C629.436 23.3005 625.479 21.8351 621.816 19.1973C619.617 17.5853 617.126 15.5337 614.488 15.5337C612.583 15.5337 611.704 16.8526 611.704 18.7577V21.3867C611.704 22.7674 610.585 23.8867 609.204 23.8867H601.015C599.634 23.8867 598.515 22.7674 598.515 21.3867V18.318C598.515 9.67192 603.791 3.07743 612.437 3.07743C616.686 3.07743 620.643 4.54287 624.16 7.03412C626.651 8.79266 628.996 10.2581 631.634 10.2581C633.979 10.2581 634.858 8.79266 634.858 6.74104V2.5ZM669.462 129.827C670.209 131.481 668.998 133.355 667.183 133.355H647.602C646.623 133.355 645.734 132.784 645.328 131.894L641.241 122.947C640.834 122.056 639.945 121.485 638.967 121.485H605.251C604.272 121.485 603.383 122.056 602.977 122.947L598.889 131.894C598.483 132.784 597.594 133.355 596.615 133.355H578.353C576.538 133.355 575.328 131.481 576.074 129.827L621.837 28.4445C622.002 28.0786 622.367 27.8434 622.768 27.8434C623.169 27.8434 623.534 28.0786 623.699 28.4445L669.462 129.827ZM614.75 96.8598C614.008 98.5138 615.218 100.383 617.031 100.383H627.187C628.999 100.383 630.209 98.5138 629.468 96.8597L624.39 85.5385C623.506 83.5693 620.711 83.5693 619.828 85.5385L614.75 96.8598Z" fill="white"/>
<path d="M562.107 110.934C563.487 110.934 564.607 112.053 564.607 113.434V130.855C564.607 132.236 563.487 133.355 562.107 133.355H508.196C506.815 133.355 505.696 132.236 505.696 130.855V31.8087C505.696 30.428 506.815 29.3087 508.196 29.3087H562.107C563.487 29.3087 564.607 30.428 564.607 31.8087V49.23C564.607 50.6107 563.487 51.73 562.107 51.73H531.936C530.555 51.73 529.436 52.8493 529.436 54.23V65.3498C529.436 66.7306 530.555 67.8498 531.936 67.8498H559.176C560.557 67.8498 561.676 68.9691 561.676 70.3498V87.7711C561.676 89.1518 560.557 90.2711 559.176 90.2711H531.936C530.555 90.2711 529.436 91.3904 529.436 92.7711V108.434C529.436 109.815 530.555 110.934 531.936 110.934H562.107Z" fill="white"/>
<path d="M430.709 31.8087C430.709 30.428 431.829 29.3087 433.209 29.3087H451.949C453.33 29.3087 454.449 30.428 454.449 31.8087V108.434C454.449 109.815 455.569 110.934 456.949 110.934H487.12C488.501 110.934 489.62 112.053 489.62 113.434V130.855C489.62 132.236 488.501 133.355 487.12 133.355H433.209C431.829 133.355 430.709 132.236 430.709 130.855V31.8087Z" fill="white"/>
<path d="M413.871 129.827C414.618 131.481 413.408 133.355 411.592 133.355H392.011C391.032 133.355 390.144 132.784 389.737 131.894L385.65 122.946C385.243 122.056 384.355 121.485 383.376 121.485H349.66C348.681 121.485 347.792 122.056 347.386 122.946L343.299 131.894C342.892 132.784 342.003 133.355 341.025 133.355H322.762C320.947 133.355 319.737 131.481 320.484 129.827L366.246 28.4442C366.412 28.0784 366.776 27.8432 367.177 27.8432C367.579 27.8432 367.943 28.0784 368.108 28.4442L413.871 129.827ZM359.159 96.8595C358.417 98.5136 359.627 100.383 361.44 100.383H371.596C373.409 100.383 374.619 98.5136 373.877 96.8595L368.799 85.5382C367.916 83.5691 365.12 83.5691 364.237 85.5382L359.159 96.8595Z" fill="white"/>
<path d="M303.693 130.855C303.693 132.236 302.574 133.355 301.193 133.355H282.453C281.072 133.355 279.953 132.236 279.953 130.855V92.4702C279.953 90.2065 277.184 89.1083 275.632 90.7565L254.466 113.238C254.178 113.544 253.776 113.718 253.355 113.718C252.934 113.718 252.532 113.544 252.243 113.238L231.077 90.7565C229.526 89.1083 226.757 90.2065 226.757 92.4702V130.855C226.757 132.236 225.638 133.355 224.257 133.355H205.517C204.136 133.355 203.017 132.236 203.017 130.855V28.7636C203.017 28.2552 203.429 27.8432 203.937 27.8432C204.192 27.8432 204.435 27.9483 204.608 28.1338L251.602 78.2138C252.591 79.2673 254.264 79.266 255.251 78.2111L302.101 28.1346C302.275 27.9487 302.518 27.8432 302.773 27.8432C303.281 27.8432 303.693 28.255 303.693 28.763V130.855Z" fill="white"/>
<path d="M186.189 129.827C186.936 131.481 185.726 133.355 183.911 133.355H164.329C163.351 133.355 162.462 132.784 162.055 131.894L157.968 122.946C157.562 122.056 156.673 121.485 155.694 121.485H121.978C120.999 121.485 120.111 122.056 119.704 122.946L115.617 131.894C115.21 132.784 114.322 133.355 113.343 133.355H95.0807C93.2653 133.355 92.0552 131.481 92.802 129.827L138.565 28.4442C138.73 28.0784 139.094 27.8432 139.496 27.8432C139.897 27.8432 140.261 28.0784 140.426 28.4442L186.189 129.827ZM131.477 96.8595C130.735 98.5135 131.945 100.383 133.758 100.383H143.914C145.727 100.383 146.937 98.5136 146.195 96.8595L141.117 85.5382C140.234 83.5691 137.438 83.569 136.555 85.5382L131.477 96.8595Z" fill="white"/>
<path d="M73.7302 105.233C74.8618 104.374 76.487 104.542 77.3558 105.666L87.8254 119.208C88.6261 120.244 88.4957 121.727 87.4864 122.561C77.6908 130.652 65.7852 134.821 53.4887 134.821C24.0333 134.821 0 110.787 0 81.3318C0 51.8764 24.0333 27.8432 53.4887 27.8432C65.7497 27.8432 77.3632 31.9875 86.9899 39.6674C88.0263 40.4943 88.1718 41.9989 87.3609 43.0478L76.8785 56.6065C76.0241 57.7117 74.4337 57.8959 73.3041 57.0741C66.7631 52.3154 60.6688 50.2645 53.4887 50.2645C37.0757 50.2645 23.7402 63.6 23.7402 81.3318C23.7402 99.0637 37.0757 112.399 53.4887 112.399C60.7994 112.399 67.1456 110.229 73.7302 105.233Z" fill="white"/>
<path d="M722.069 66.5713C704.957 65.7743 696.674 75.4037 691.93 81.4445L688.1 101.633C697.407 107.474 716.389 119.337 717.86 120.06C719.699 120.963 727.109 116.707 716.882 111.207C706.963 105.874 706.75 103.947 705.492 98.7622C704.234 93.5779 710 88.039 715.485 86.1679C719.874 84.671 723.122 86.1146 736.287 90.2995C748.828 92.6559 748.735 79.4191 743.817 74.9731L743.799 74.9572C741.828 73.2185 734.976 67.1725 722.069 66.5713Z" fill="white"/>
</svg>
