<svg width="64" height="64" viewBox="0 0 64 64" fill="none" xmlns="http://www.w3.org/2000/svg">
<path d="M56.4359 46.8856C56.6317 47.1489 56.9422 47.2907 57.246 47.2907C57.4553 47.2907 57.6713 47.2231 57.8536 47.0881C58.2991 46.7506 58.3937 46.116 58.0561 45.6705L49.9551 34.8691C49.766 34.6125 49.4623 34.464 49.145 34.464H49.1382C48.8142 34.464 48.5171 34.6193 48.3281 34.8826L44.4869 40.1617L32.4501 22.1167C31.9572 21.3741 31.1336 20.9353 30.2425 20.9353C29.3514 20.9353 28.5278 21.3741 28.035 22.1167L15.9847 40.1887L12.1637 34.8826C11.9747 34.6193 11.6709 34.464 11.3536 34.464C11.0566 34.464 10.7258 34.6125 10.5367 34.8691L2.43569 45.6705C2.09814 46.116 2.19266 46.7506 2.63821 47.0881C2.82049 47.2231 3.03652 47.2907 3.24579 47.2907C3.55633 47.2907 3.86012 47.1489 4.0559 46.8856L11.3333 37.1846L14.7898 41.9845L2.39518 60.5696C2.18591 60.8802 2.16565 61.2785 2.34793 61.6093C2.52345 61.94 2.86774 62.1426 3.23904 62.1426H57.246C57.6173 62.1426 57.9616 61.94 58.1371 61.6093C58.3126 61.2785 58.2924 60.8802 58.0899 60.5696L45.6818 41.9575L49.1585 37.1779L56.4359 46.8856ZM29.716 23.2373C29.8847 22.9808 30.1413 22.9538 30.2425 22.9538C30.3438 22.9538 30.6003 22.9808 30.7691 23.2373L37.1082 32.7425L34.185 36.6378L30.9581 33.4109C30.5598 33.0126 29.9185 33.0126 29.5269 33.4109L26.3 36.6378L23.3769 32.7425L29.716 23.2373ZM5.12929 60.1173L22.1887 34.5315L25.3819 38.7846C25.5574 39.0208 25.8275 39.1694 26.1177 39.1896C26.4148 39.2099 26.6983 39.1019 26.9076 38.8926L30.2425 35.5576L33.5775 38.8926C33.7665 39.0816 34.023 39.1896 34.293 39.1896C34.3201 39.1896 34.3403 39.1896 34.3673 39.1896C34.6576 39.1694 34.9276 39.0208 35.1032 38.7846L38.2963 34.5315L55.3558 60.1173H5.12929ZM12.6903 22.9875C16.2277 22.9875 19.1036 20.1117 19.1036 16.5742C19.1036 13.0367 16.2277 10.1609 12.6903 10.1609C9.1528 10.1609 6.27693 13.0367 6.27693 16.5742C6.27693 20.1117 9.1528 22.9875 12.6903 22.9875ZM12.6903 12.1861C15.1071 12.1861 17.0783 14.1574 17.0783 16.5742C17.0783 18.991 15.1071 20.9623 12.6903 20.9623C10.2734 20.9623 8.30219 18.991 8.30219 16.5742C8.30219 14.1574 10.2734 12.1861 12.6903 12.1861ZM11.6776 8.47316V7.12298C11.6776 6.56266 12.1299 6.11035 12.6903 6.11035C13.2506 6.11035 13.7029 6.56266 13.7029 7.12298V8.47316C13.7029 9.03348 13.2506 9.48579 12.6903 9.48579C12.1299 9.48579 11.6776 9.03348 11.6776 8.47316ZM12.6903 23.6626C13.2506 23.6626 13.7029 24.1149 13.7029 24.6752V26.0254C13.7029 26.5857 13.2506 27.038 12.6903 27.038C12.1299 27.038 11.6776 26.5857 11.6776 26.0254V24.6752C11.6776 24.1149 12.1299 23.6626 12.6903 23.6626ZM20.7913 15.5616H22.1415C22.7018 15.5616 23.1541 16.0139 23.1541 16.5742C23.1541 17.1345 22.7018 17.5868 22.1415 17.5868H20.7913C20.231 17.5868 19.7787 17.1345 19.7787 16.5742C19.7787 16.0139 20.231 15.5616 20.7913 15.5616ZM2.22641 16.5742C2.22641 16.0139 2.67872 15.5616 3.23904 15.5616H4.58922C5.14954 15.5616 5.60185 16.0139 5.60185 16.5742C5.60185 17.1345 5.14954 17.5868 4.58922 17.5868H3.23904C2.67872 17.5868 2.22641 17.1345 2.22641 16.5742ZM17.6994 11.5651C17.3011 11.1668 17.3011 10.5254 17.6994 10.1339L18.6513 9.182C19.0496 8.7837 19.6909 8.7837 20.0825 9.182C20.4808 9.5803 20.4808 10.2216 20.0825 10.6132L19.1306 11.5651C18.9348 11.7608 18.6715 11.8621 18.415 11.8621C18.1585 11.8621 17.9019 11.7608 17.6994 11.5651ZM7.68111 21.5833C8.07942 21.9816 8.07942 22.623 7.68111 23.0145L6.72924 23.9664C6.53347 24.1622 6.27018 24.2634 6.01365 24.2634C5.75712 24.2634 5.49383 24.1622 5.29806 23.9664C4.89976 23.5681 4.89976 22.9268 5.29806 22.5352L6.24993 21.5833C6.64148 21.1918 7.28281 21.1918 7.68111 21.5833ZM19.1373 21.5833L20.0892 22.5352C20.4875 22.9335 20.4875 23.5749 20.0892 23.9664C19.8934 24.1622 19.6302 24.2634 19.3736 24.2634C19.1171 24.2634 18.8538 24.1622 18.658 23.9664L17.7062 23.0145C17.3079 22.6162 17.3079 21.9749 17.7062 21.5833C18.0977 21.1918 18.739 21.1918 19.1373 21.5833ZM5.29131 10.6064C4.893 10.2081 4.893 9.5668 5.29131 9.17525C5.68961 8.77695 6.33094 8.77695 6.72249 9.17525L7.67436 10.1271C8.07266 10.5254 8.07266 11.1668 7.67436 11.5583C7.47859 11.7541 7.2153 11.8553 6.95877 11.8553C6.70224 11.8553 6.43895 11.7541 6.24318 11.5583L5.29131 10.6064ZM38.3436 16.2367H39.6937C40.6254 16.2367 41.3815 16.9928 41.3815 17.9244C41.3815 19.9699 43.0489 21.6374 45.0944 21.6374H54.5457C56.5912 21.6374 58.2586 19.9699 58.2586 17.9244C58.2586 15.8789 56.5912 14.2114 54.5457 14.2114C53.614 14.2114 52.8579 13.4553 52.8579 12.5237C52.8579 10.4782 51.1905 8.8107 49.145 8.8107H38.3436C36.2981 8.8107 34.6306 10.4782 34.6306 12.5237C34.6306 14.5692 36.2981 16.2367 38.3436 16.2367ZM38.3436 10.836H49.145C50.0766 10.836 50.8327 11.5921 50.8327 12.5237C50.8327 14.5692 52.5001 16.2367 54.5457 16.2367C55.4773 16.2367 56.2334 16.9928 56.2334 17.9244C56.2334 18.856 55.4773 19.6121 54.5457 19.6121H45.0944C44.1628 19.6121 43.4067 18.856 43.4067 17.9244C43.4067 15.8789 41.7393 14.2114 39.6937 14.2114H38.3436C37.4119 14.2114 36.6559 13.4553 36.6559 12.5237C36.6559 11.5921 37.4119 10.836 38.3436 10.836Z" fill="#56352E"/>
</svg>
