<svg width="58" height="55" viewBox="0 0 58 55" fill="none" xmlns="http://www.w3.org/2000/svg">
<g clip-path="url(#clip0_463_4933)">
<path d="M26.4751 49.1875L1.71984 49.19C1.45269 49.1838 1.2002 49.1324 1.01422 48.925C0.319704 48.1502 1.49898 47.2815 2.00651 46.8054L4.526 44.594C4.78257 44.3864 5.09411 44.2276 5.32649 43.9942C5.65806 43.6611 5.93915 43.2435 6.24406 42.8828C10.5702 37.7663 17.7719 35.6578 24.2058 34.9514L27.5739 34.6835C29.7037 34.6154 31.8309 34.7444 33.9508 34.9338C33.9897 34.8995 36.6694 22.0612 37.1259 20.641C36.3323 20.6703 36.2764 20.4598 35.7721 19.8813C34.8344 18.8055 33.3569 18.368 32.0037 18.94C30.8182 19.441 30.5062 19.7973 29.6293 18.689C28.6974 17.5111 27.131 16.9348 25.6894 17.5726C25.0473 17.8568 24.4277 18.4649 23.7484 17.8571C23.1068 17.283 23.421 16.777 23.6609 16.0904C25.6007 10.5395 30.3657 6.99625 36.0908 5.93251C36.9002 5.78218 37.7032 5.6488 38.5275 5.62574C39.2602 5.62308 40.009 5.59273 40.7392 5.64928C48.1462 6.22288 54.9698 11.5078 56.808 18.8137C57.1736 20.2667 57.1953 20.9146 57.1951 22.3991C57.195 22.7474 57.3013 23.2116 57.0707 23.5012C56.1663 24.6372 55.7595 24.2363 55.0292 23.2901C54.089 22.0719 52.1804 21.4592 50.7707 22.1702C50.3521 22.3815 49.9794 22.7747 49.493 22.8192C48.7449 22.8877 48.3117 22.0051 47.813 21.5769C46.9194 20.8094 45.5694 20.6293 44.525 21.2099C43.4183 21.8253 43.3993 22.3987 42.2186 21.3815L39.0214 35.8456C39.749 35.9941 40.4756 36.2591 41.1805 36.4942C45.1587 37.8211 48.6735 39.7957 51.3538 43.0482C52.152 44.0169 52.2522 44.0576 53.2199 44.8521L55.6805 46.9877C56.0179 47.3014 56.7204 47.8592 56.7275 48.3493C56.7417 49.3382 55.7148 49.1933 55.0949 49.1917L26.4751 49.1875ZM46.8317 9.17896C46.9554 9.37675 47.1205 9.55225 47.2655 9.73514C48.7347 11.5901 49.7583 13.7969 50.2663 16.1067L50.5549 17.7851C50.7169 18.7066 50.5364 19.5283 50.5962 20.3731C51.9304 19.9598 53.2701 20.0916 54.5025 20.7435L55.2123 21.1847L55.3571 21.3059C55.4027 20.7992 55.3007 20.2227 55.2047 19.7264C54.3978 15.5584 51.3163 11.5443 47.5851 9.52972C47.3745 9.41598 47.0616 9.21157 46.8317 9.17896ZM9.54263 41.9563L9.58937 41.9485C9.76004 41.9175 9.93498 41.8125 10.102 41.7577L11.7288 41.2505C12.8798 40.9178 14.0639 40.7039 15.2502 40.5439L16.8528 40.3546C17.7183 40.2924 19.1755 40.2894 20.0376 40.3642C22.2657 40.5571 24.4761 41.1655 26.6518 41.3333C28.5089 41.4764 30.306 41.1904 32.1257 40.8482L34.766 40.4322C35.801 40.2996 36.8239 40.2738 37.8655 40.2729L39.6351 40.2837C41.5419 40.371 43.5116 40.696 45.3585 41.1732L47.16 41.7253C47.4625 41.8341 47.7741 41.9945 48.0853 42.0663C47.6439 41.6794 47.1076 41.3448 46.6228 41.0126C42.2672 38.0276 36.2715 36.6572 30.9943 36.4365L26.8743 36.4484L22.9962 36.8621C18.9076 37.448 14.8077 38.5928 11.2788 40.787L10.1464 41.5135C9.94683 41.6444 9.70091 41.7778 9.54263 41.9563ZM37.6641 7.42714C36.6441 7.61194 35.6086 7.77017 34.6117 8.05751C31.4701 8.96289 28.642 10.9116 26.7756 13.6031C26.2902 14.3032 25.9427 15.0444 25.573 15.8064C25.9678 15.7105 26.3421 15.6428 26.7497 15.6284C28.0155 15.604 29.319 15.9258 30.2647 16.8254L30.3421 16.9032C30.8476 13.4408 34.1614 9.36028 37.0999 7.77757L37.5685 7.53394C37.6303 7.50267 37.7115 7.49382 37.7357 7.42445L37.6641 7.42714ZM40.268 8.12755C37.1182 9.20697 34.3089 11.8554 32.8622 14.8067C32.4909 15.5639 32.2513 16.3405 32.0022 17.1427L33.2622 17.0027C34.4423 16.9767 35.4169 17.2544 36.2988 18.1063L36.4785 18.2857C36.774 15.108 38.5753 10.6629 40.3526 8.12755H40.268ZM42.1609 8.46375C40.2217 11.1746 38.7621 14.897 38.2479 18.2124C38.5991 18.1484 39.7097 18.012 40.0561 18.1139C40.8885 18.2405 41.9584 18.5851 42.5389 19.2258C43.1848 16.1414 43.3402 11.4021 42.2152 8.4642L42.1609 8.46375ZM43.9897 8.5877C44.8519 11.3628 44.9235 14.0867 44.6455 16.9625C44.5672 17.7725 44.4924 18.6355 44.2609 19.4166C45.7583 19.0438 47.1382 19.0708 48.4397 19.9439L48.73 20.1686C48.7897 20.211 48.8178 20.2409 48.8525 20.305C49.0499 16.0047 47.6564 12.4987 44.7109 9.27802L43.9897 8.5877ZM39.3792 19.8359L39.0292 19.8648L35.6797 35.198L37.0723 35.4411C37.1463 35.4613 37.2329 35.5078 37.3015 35.4717C37.4511 35.0355 37.5185 34.5332 37.6098 34.0798L40.3798 21.5159C40.6161 20.523 41.1577 19.8879 39.7519 19.8274L39.3792 19.8359ZM38.103 41.952L36.5661 41.9738C35.4087 42.0377 34.2365 42.1965 33.0954 42.3971C30.5097 42.8517 28.7105 43.2672 26.0555 42.9892C23.974 42.7712 21.9485 42.2128 19.8492 42.0678L17.2012 42.0563C13.9928 42.2304 10.731 43.1723 7.88601 44.6357C6.70418 45.2435 4.76385 46.4054 3.82736 47.3834L3.74154 47.4851L18.4344 47.4855L53.7579 47.4756C53.5868 47.4164 53.1681 46.997 53.0034 46.864C49.4716 44.011 44.5181 42.2835 39.9701 41.9768C39.3515 41.9351 38.7229 41.9503 38.103 41.952Z" fill="#56352E"/>
</g>
<defs>
<clipPath id="clip0_463_4933">
<rect width="56.8429" height="54.6075" fill="white" transform="translate(0.578613 0.110352)"/>
</clipPath>
</defs>
</svg>
