<svg width="58" height="55" viewBox="0 0 58 55" fill="none" xmlns="http://www.w3.org/2000/svg">
<g clip-path="url(#clip0_463_4958)">
<path fill-rule="evenodd" clip-rule="evenodd" d="M22.0847 37.646C22.5365 37.5262 23.0181 37.6506 23.3556 37.9742L27.7087 42.1496C28.0705 42.4966 28.2083 43.0167 28.0658 43.4973L27.1154 46.7047C26.8782 47.5053 26.3975 48.2122 25.7401 48.7271L19.5183 53.601C17.7705 54.9701 15.2438 54.6633 13.8747 52.9155C12.5054 51.1677 12.8124 48.6409 14.5602 47.2718L19.7714 43.1894L21.1432 38.5606C21.276 38.1124 21.6328 37.7658 22.0847 37.646ZM23.0878 41.4309L22.2195 44.3611C22.1403 44.628 21.9802 44.8636 21.7609 45.0353L16.2129 49.3815C15.6304 49.8379 15.528 50.6801 15.9844 51.2627C16.4408 51.8454 17.283 51.9476 17.8656 51.4913L24.0875 46.6173C24.3066 46.4456 24.4668 46.2101 24.5459 45.9431L25.2644 43.5186L23.0878 41.4309ZM34.7158 11.579C36.9361 11.579 38.7359 9.77923 38.7359 7.55896C38.7359 5.33876 36.9361 3.53892 34.7158 3.53892C32.4957 3.53892 30.6958 5.33876 30.6958 7.55896C30.6958 9.77923 32.4957 11.579 34.7158 11.579ZM34.7158 14.259C38.4161 14.259 41.4159 11.2593 41.4159 7.55896C41.4159 3.85862 38.4161 0.858887 34.7158 0.858887C31.0155 0.858887 28.0157 3.85862 28.0157 7.55896C28.0157 11.2593 31.0155 14.259 34.7158 14.259Z" fill="#56352E"/>
<path fill-rule="evenodd" clip-rule="evenodd" d="M26.3236 14.7474C28.237 14.0362 30.2926 14.078 32.138 15.0323C33.8937 15.94 35.0827 17.4747 35.8306 19.0808C36.1105 19.6817 36.3692 20.2429 36.611 20.7675C37.2002 22.0456 37.6841 23.0947 38.1456 24.0117C38.7974 25.307 39.274 26.0657 39.6948 26.556C40.0555 26.9762 40.3664 27.1894 40.7647 27.345C41.2353 27.5288 42.0027 27.697 43.3678 27.7379C45.4348 27.7999 47.0601 29.5257 46.9982 31.5927C46.9361 33.6597 45.2103 35.2851 43.1433 35.2231C41.3251 35.1685 39.6136 34.935 38.0403 34.3204C36.3941 33.6774 35.0956 32.6953 34.0125 31.4334C33.884 31.2837 33.7591 31.1307 33.6374 30.9747L33.098 33.7937L38.95 39.5679C39.3227 39.9358 39.6143 40.3777 39.8055 40.8652L43.1345 49.3469C43.89 51.2719 42.9421 53.4447 41.0171 54.2003C39.0921 54.9558 36.9192 54.0078 36.1637 52.0829L33.1248 44.3405L22.5938 33.9492C21.776 33.1423 21.3738 32.0045 21.503 30.8629L21.9384 27.0164C20.7429 28.5627 19.7373 30.4207 19.0358 32.6189C18.407 34.589 16.3003 35.6763 14.3303 35.0475C12.3603 34.4188 11.2729 32.312 11.9016 30.3421C14.2703 22.9209 19.6285 17.3321 26.2792 14.7641L26.2871 14.761L26.3236 14.7474ZM27.2609 17.258L27.2407 17.2658C21.3678 19.5347 16.5825 24.4908 14.4549 31.1569C14.2762 31.7169 14.5852 32.3156 15.1452 32.4944C15.705 32.673 16.3039 32.364 16.4826 31.804C17.8142 27.6319 20.1342 24.4763 22.8614 22.2488C23.2835 21.9041 23.8723 21.8493 24.3507 22.1102C24.8291 22.3711 25.1019 22.8959 25.0405 23.4374L24.1662 31.1643C24.1293 31.4887 24.2436 31.8122 24.4761 32.0415L35.2096 42.6324C35.343 42.7641 35.4474 42.9223 35.5158 43.0967L38.6584 51.1037C38.8731 51.6508 39.4909 51.9203 40.0379 51.7055C40.5851 51.4908 40.8545 50.8732 40.6398 50.3261L37.3108 41.8443C37.2564 41.7058 37.1736 41.5801 37.0676 41.4756L30.7062 35.1987C30.3879 34.8846 30.2473 34.4323 30.3313 33.9931L31.6455 27.1243C31.7525 26.5647 32.2016 26.1341 32.765 26.0505C33.3285 25.9669 33.8832 26.2487 34.1481 26.7531C34.7511 27.9015 35.3554 28.8832 36.0461 29.6879C36.8709 30.6488 37.816 31.3556 39.0153 31.824C40.1942 32.2845 41.5679 32.4947 43.2236 32.5442C43.8111 32.5619 44.3017 32.0999 44.3193 31.5124C44.3369 30.925 43.875 30.4344 43.2874 30.4167C41.7606 30.371 40.6552 30.1795 39.7897 29.8414C38.9452 29.5115 38.2808 29.0234 37.6612 28.3016C37.0244 27.5598 36.4313 26.5671 35.7515 25.2164C35.2673 24.2541 34.7654 23.1656 34.1851 21.9065L34.1776 21.8903C33.9354 21.365 33.6787 20.808 33.4011 20.2122C32.8252 18.9755 31.9923 17.9739 30.9071 17.4128C29.798 16.8394 28.5362 16.7851 27.2609 17.258Z" fill="#56352E"/>
</g>
<defs>
<clipPath id="clip0_463_4958">
<rect width="56.8429" height="54.6075" fill="white" transform="translate(0.578613 0.110352)"/>
</clipPath>
</defs>
</svg>
