<svg width="57" height="55" viewBox="0 0 57 55" fill="none" xmlns="http://www.w3.org/2000/svg">
<path d="M34.6329 51.6596C33.9699 51.6554 33.3188 51.484 32.7397 51.1612C32.1606 50.8385 31.6723 50.3749 31.32 49.8133C27.4901 43.7936 24.0429 37.5388 20.999 31.086L19.8542 30.8064C18.7357 30.5006 17.705 29.9351 16.8461 29.156C15.9872 28.3768 15.3244 27.406 14.9113 26.3224L9.9526 13.3056C9.55371 12.2754 9.39256 11.1685 9.48116 10.0673C9.56976 8.96622 9.90583 7.8993 10.4643 6.94618L11.0921 5.86475C11.3185 5.47732 11.643 5.15634 12.0328 4.93409C12.4227 4.71184 12.8642 4.59616 13.3129 4.59867H13.3446C13.8 4.60123 14.2466 4.72468 14.6386 4.95639C15.0307 5.18811 15.3542 5.51978 15.576 5.9175L38.1119 45.9148C38.3616 46.357 38.5174 46.8459 38.5696 47.3511C38.6218 47.8562 38.5692 48.3666 38.4152 48.8505C38.1152 49.8224 37.4546 50.6426 36.5689 51.1427C35.9792 51.4797 35.3121 51.6579 34.6329 51.6596ZM13.3129 6.57691C13.2092 6.57564 13.107 6.6018 13.0167 6.65276C12.9264 6.70371 12.8511 6.77764 12.7986 6.86705L12.1735 7.94321C11.7639 8.64219 11.5178 9.42473 11.4533 10.2323C11.3889 11.0399 11.508 11.8515 11.8016 12.6066L16.763 25.626C17.0633 26.4183 17.5467 27.1284 18.1738 27.6982C18.8009 28.268 19.5539 28.6814 20.3712 28.9046L21.9538 29.3214C22.0921 29.3584 22.2209 29.4247 22.3314 29.5157C22.442 29.6067 22.5318 29.7203 22.5947 29.8489C25.6561 36.3617 29.1271 42.6739 32.987 48.7477C33.2499 49.1766 33.6689 49.4869 34.1559 49.6133C34.6428 49.7397 35.1599 49.6724 35.5982 49.4255C36.047 49.178 36.3819 48.7656 36.532 48.2755C36.6045 48.0482 36.6293 47.8083 36.6047 47.5709C36.5802 47.3335 36.507 47.1038 36.3895 46.896L13.8537 6.89343C13.8035 6.79425 13.7258 6.71163 13.6299 6.65549C13.534 6.59935 13.424 6.57207 13.3129 6.57691Z" fill="#56352E"/>
<path d="M18.0448 51.6595C17.3296 51.6613 16.6283 51.4611 16.0218 51.0819C15.1573 50.5658 14.5259 49.7355 14.2595 48.7647C13.993 47.7938 14.1122 46.7575 14.5922 45.8725C16.85 41.7182 19.5457 37.2184 22.389 32.8478C22.5324 32.6278 22.7573 32.4738 23.0143 32.4196C23.2713 32.3654 23.5393 32.4156 23.7593 32.559C23.9793 32.7024 24.1333 32.9273 24.1875 33.1843C24.2416 33.4413 24.1915 33.7092 24.0481 33.9292C21.2337 38.2523 18.5645 42.71 16.3462 46.8115C16.1096 47.2514 16.0522 47.7656 16.1859 48.2469C16.3196 48.7281 16.6341 49.139 17.0636 49.3938C17.4851 49.6565 17.993 49.743 18.4776 49.6344C18.9623 49.5258 19.3847 49.231 19.6538 48.8135C21.5502 45.949 23.5548 42.6915 25.6201 39.1201C25.756 38.9027 25.971 38.7465 26.2198 38.6845C26.4686 38.6226 26.7317 38.6596 26.9537 38.7879C27.1757 38.9162 27.3393 39.1257 27.4098 39.3722C27.4804 39.6187 27.4524 39.8829 27.3319 40.1092C25.2456 43.7149 23.2225 47.0067 21.3129 49.8923C20.9609 50.4381 20.4768 50.8862 19.9055 51.1951C19.3343 51.504 18.6943 51.6638 18.0448 51.6595ZM26.8334 28.9045C26.7042 28.9059 26.5761 28.8817 26.4563 28.8333C26.3365 28.7849 26.2275 28.7133 26.1356 28.6226C26.0436 28.5318 25.9705 28.4238 25.9205 28.3047C25.8706 28.1856 25.8446 28.0578 25.8443 27.9286V27.9048C25.8447 27.7056 25.9044 27.5109 26.0157 27.3457C27.4796 25.2144 28.7325 23.434 29.6609 22.1178C28.8991 21.4789 28.3887 20.5903 28.2206 19.6103C28.0525 18.6302 28.2376 17.6223 28.743 16.766L36.3394 4.10531C36.4803 3.89178 36.6982 3.74093 36.9477 3.68429C37.1971 3.62765 37.4588 3.66959 37.6781 3.80135C37.8974 3.93312 38.0572 4.14451 38.1243 4.39138C38.1914 4.63824 38.1605 4.90147 38.038 5.12608L30.4417 17.7868C30.2919 18.0354 30.193 18.3112 30.1507 18.5982C30.1084 18.8853 30.1235 19.1779 30.1951 19.4591C30.2668 19.7403 30.3936 20.0045 30.5681 20.2363C30.7426 20.4681 30.9614 20.663 31.2119 20.8096L31.5627 21.0258C31.6774 21.0968 31.7765 21.1905 31.8536 21.3012C31.9307 21.4119 31.9843 21.5372 32.0111 21.6694C32.0386 21.8015 32.0386 21.9379 32.0109 22.07C31.9832 22.2021 31.9285 22.3271 31.8502 22.437L31.5864 22.8326C30.6474 24.1515 29.297 26.0743 27.688 28.4192C27.5998 28.5672 27.4747 28.6897 27.3249 28.7748C27.175 28.8599 27.0057 28.9046 26.8334 28.9045ZM29.9168 34.3539C29.7538 34.3531 29.5935 34.3123 29.4499 34.2352C29.2194 34.1111 29.0474 33.9007 28.9717 33.65C28.8961 33.3993 28.9229 33.1288 29.0464 32.8979C31.0431 29.1709 32.8287 25.7024 33.8258 23.6239C33.8852 23.4976 33.9706 23.3853 34.0766 23.2944C34.1825 23.2035 34.3065 23.136 34.4403 23.0964C34.5721 23.0564 34.7109 23.0451 34.8474 23.0633C34.9839 23.0815 35.1149 23.1287 35.2316 23.2019L35.5745 23.4129C35.8215 23.5652 36.0962 23.6669 36.3829 23.7122C36.6695 23.7575 36.9622 23.7454 37.2441 23.6767C37.5226 23.6073 37.7845 23.4832 38.0146 23.3115C38.2446 23.1399 38.4382 22.9242 38.584 22.677L46.1804 10.0163C46.3212 9.80275 46.5392 9.65191 46.7886 9.59526C47.0381 9.53862 47.2998 9.58056 47.5191 9.71233C47.7383 9.84409 47.8982 10.0555 47.9653 10.3024C48.0324 10.5492 48.0014 10.8124 47.879 11.0371L40.2879 23.6846C40.0083 24.1547 39.6382 24.5646 39.199 24.8906C38.7599 25.2166 38.2603 25.4522 37.7294 25.5837C36.8736 25.7942 35.9734 25.7315 35.1551 25.4043C34.1001 27.5329 32.5175 30.5821 30.7898 33.8211C30.7069 33.9812 30.5817 34.1155 30.4278 34.2095C30.2738 34.3034 30.0971 34.3534 29.9168 34.3539Z" fill="#56352E"/>
<path d="M34.7205 17.1693C34.541 17.1685 34.3652 17.1193 34.2114 17.0269C33.9874 16.8921 33.8258 16.6741 33.762 16.4205C33.6983 16.167 33.7375 15.8985 33.8711 15.6737L39.6238 6.07797C39.7585 5.85272 39.9771 5.69018 40.2316 5.62612C40.4861 5.56207 40.7556 5.60173 40.9809 5.73639C41.2061 5.87106 41.3686 6.08969 41.4327 6.34419C41.4968 6.59869 41.4571 6.86821 41.3224 7.09347L35.5698 16.6866C35.4827 16.8342 35.3585 16.9565 35.2095 17.0412C35.0604 17.1258 34.8918 17.17 34.7205 17.1693ZM37.999 19.1343C37.8203 19.1344 37.6451 19.0851 37.4926 18.9919C37.3814 18.9254 37.2844 18.8377 37.2071 18.7337C37.1298 18.6297 37.0738 18.5115 37.0422 18.3858C37.0106 18.2602 37.0041 18.1295 37.023 18.0014C37.0419 17.8732 37.0858 17.75 37.1523 17.6388L42.905 8.04302C42.9689 7.9263 43.0558 7.82369 43.1603 7.74132C43.2648 7.65896 43.3849 7.59854 43.5134 7.56367C43.6418 7.52881 43.7759 7.52022 43.9078 7.53843C44.0396 7.55663 44.1664 7.60125 44.2806 7.66962C44.3948 7.73799 44.494 7.82869 44.5723 7.93631C44.6506 8.04392 44.7064 8.16622 44.7363 8.2959C44.7662 8.42558 44.7696 8.55996 44.7464 8.691C44.7231 8.82204 44.6737 8.94704 44.601 9.05852L38.851 18.6517C38.7633 18.7993 38.6385 18.9215 38.4891 19.0062C38.3397 19.0908 38.1708 19.135 37.999 19.1343Z" fill="#56352E"/>
</svg>
