<svg width="57" height="40" viewBox="0 0 57 40" fill="none" xmlns="http://www.w3.org/2000/svg">
<g clip-path="url(#clip0_463_4979)">
<path d="M37.9128 34.2454C37.8576 33.8263 37.9496 32.4143 38.815 31.2208C39.6158 30.1185 41.19 29.0526 44.4211 29.3897L44.6144 27.5767C40.8218 27.1759 38.5572 28.4422 37.3145 30.1549C36.1362 31.7856 35.9797 33.6806 36.0901 34.4823L37.9128 34.2363V34.2454ZM44.3199 38.1264C41.549 38.7186 40.0485 37.9351 39.2016 37.0241C38.2903 36.0402 37.9773 34.7647 37.9128 34.2454L36.0901 34.4914C36.1822 35.1929 36.578 36.8965 37.8576 38.2631C39.1924 39.7025 41.3741 40.6317 44.7157 39.912L44.3291 38.1355L44.3199 38.1264ZM54.2526 23.3769C54.0501 28.9706 52.927 32.3232 51.2608 34.4186C49.6038 36.4957 47.2932 37.4887 44.3199 38.1264L44.7065 39.903C47.8548 39.2288 50.6625 38.0991 52.6969 35.5391C54.7221 32.9973 55.8728 29.1983 56.0845 23.4315L54.2434 23.3678L54.2526 23.3769ZM37.2961 4.60964C45.7651 6.44081 54.6392 12.6541 54.2526 23.3769L56.0937 23.4406C56.5264 11.4424 46.566 4.75545 37.6919 2.83318L37.2961 4.60964ZM19.5754 6.65945C19.8639 7.19392 20.0081 7.46421 20.0081 7.47028C20.0081 7.47028 20.0081 7.47028 20.0265 7.47028C20.045 7.47028 20.0633 7.45214 20.1002 7.43392C20.1646 7.39748 20.2659 7.35189 20.3948 7.28812C20.6525 7.16969 21.0391 6.98744 21.527 6.78701C22.5028 6.37705 23.8929 5.84872 25.5498 5.37498C28.873 4.42752 33.1904 3.73507 37.3053 4.62788L37.7011 2.85142C33.1536 1.86751 28.5048 2.64187 25.0343 3.63489C23.2945 4.13596 21.8308 4.69169 20.7998 5.11987C20.2843 5.33852 19.8793 5.52069 19.5939 5.65735C19.4558 5.72112 19.3453 5.77582 19.2717 5.81226C19.2349 5.83048 19.2072 5.84863 19.1888 5.85774C19.1796 5.85774 19.1704 5.86686 19.1612 5.86686C19.1612 5.86686 19.3054 6.13715 19.5939 6.67769L19.5754 6.65945ZM15.6999 1.84019C15.436 2.38681 15.3041 2.66014 15.3041 2.66014C15.3041 2.66014 15.3041 2.66014 15.3133 2.66014C15.3225 2.66014 15.3501 2.67828 15.3777 2.6965C15.4422 2.73295 15.5343 2.78766 15.6539 2.86054C15.8933 3.01541 16.2338 3.25222 16.6113 3.59841C17.3569 4.28168 18.2223 5.34761 18.7009 6.92369L20.4592 6.39533C19.8608 4.45484 18.793 3.1156 17.8632 2.26835C17.403 1.84016 16.9703 1.53951 16.6573 1.33908C16.5008 1.23887 16.3627 1.16599 16.2707 1.11132C16.2246 1.08399 16.1878 1.06582 16.151 1.0476C16.1326 1.0476 16.1234 1.03847 16.1142 1.02936C16.1142 1.02936 16.1142 1.02936 16.105 1.02936C16.105 1.02936 15.973 1.30269 15.7092 1.84931L15.6999 1.84019ZM1.57869 14.5855C2.1617 14.7677 2.45319 14.8587 2.45319 14.8587C2.45319 14.8587 2.45319 14.8497 2.45319 14.8406C2.45319 14.8224 2.4716 14.7949 2.48081 14.7585C2.50843 14.6856 2.54525 14.5763 2.60049 14.4306C2.71095 14.139 2.88586 13.72 3.12521 13.2098C3.60389 12.1803 4.34955 10.7956 5.40818 9.36529C7.53466 6.49555 10.867 3.50736 15.8288 2.7421L15.5434 0.938282C9.93728 1.80376 6.20907 5.18361 3.9169 8.28111C2.76621 9.82986 1.96531 11.324 1.4498 12.4355C1.19204 12.9912 0.998732 13.4467 0.87906 13.7746C0.814622 13.9386 0.7686 14.0662 0.740983 14.1573C0.722572 14.2029 0.713359 14.2393 0.704154 14.2666C0.704154 14.2757 0.704173 14.2848 0.694967 14.2939C0.694967 14.2939 0.986458 14.385 1.56947 14.5672L1.57869 14.5855ZM17.2649 23.0853C17.1667 22.484 17.1176 22.1834 17.1176 22.1834C17.1176 22.1834 17.1176 22.1834 17.0992 22.1834C17.0808 22.1834 17.0531 22.1834 17.0163 22.1925C16.9427 22.2016 16.8322 22.2108 16.6849 22.229C16.3904 22.2563 15.9577 22.2836 15.4238 22.2927C14.3467 22.2927 12.8831 22.2107 11.2813 21.8099C8.11461 21.0264 4.46922 19.0495 2.41639 14.2302L0.722583 14.9408C3.05158 20.4161 7.24927 22.6936 10.8302 23.5773C12.6161 24.0146 14.2455 24.1239 15.433 24.1148C16.0313 24.1148 16.51 24.0784 16.8506 24.0511C17.0255 24.0328 17.1544 24.0237 17.2465 24.0055C17.2925 24.0055 17.3293 23.9963 17.3569 23.9872C17.3661 23.9872 17.3845 23.9872 17.3845 23.9872C17.3845 23.9872 17.3845 23.9872 17.3937 23.9872C17.3937 23.9872 17.3446 23.6866 17.2465 23.0853H17.2649ZM9.16402 32.7149C9.33892 32.5419 11.539 30.2824 13.6747 28.0869C14.7518 26.9845 15.8104 25.8913 16.6021 25.0714C16.9979 24.6614 17.3293 24.3243 17.5594 24.0874C17.6791 23.969 17.762 23.878 17.8264 23.8142C17.854 23.7869 17.8816 23.7595 17.9 23.7412L17.9185 23.7231C17.9185 23.7231 17.6975 23.5135 17.2557 23.0944C16.8138 22.6754 16.5929 22.4659 16.5929 22.4659C16.5929 22.4659 16.5837 22.4749 16.5745 22.484C16.5561 22.5022 16.5376 22.5205 16.5008 22.557C16.4364 22.6207 16.3443 22.7118 16.2338 22.8302C16.0037 23.0671 15.6723 23.4042 15.2765 23.8142C14.4848 24.6341 13.417 25.7273 12.3491 26.8296C10.195 29.0434 8.02253 31.2755 7.86604 31.4304L9.16402 32.7149ZM44.4211 29.3897C44.9274 29.4443 45.3785 29.0799 45.4337 28.5788C45.489 28.0778 45.1207 27.6314 44.6144 27.5767L44.4211 29.3897ZM19.5754 6.65945L18.6917 6.92369C18.7746 7.18789 18.9679 7.39743 19.2165 7.49764C19.4742 7.60696 19.7596 7.58871 19.9989 7.46116L19.5663 6.65945H19.5754ZM15.6999 1.84019L16.0958 1.02024C15.9301 0.938251 15.746 0.92007 15.5619 0.947401L15.6999 1.84931V1.84019ZM1.57869 14.5855L0.704154 14.3121C0.639715 14.5216 0.648919 14.7404 0.731769 14.9408L1.57869 14.5855ZM17.2649 23.0853L17.9277 23.714C18.2038 23.4316 18.2591 23.0034 18.0842 22.6572C17.9001 22.311 17.5134 22.1196 17.1268 22.1834L17.2741 23.0853H17.2649ZM7.86604 31.4304C7.50702 31.7857 7.50702 32.3596 7.86604 32.7149C8.22505 33.0702 8.805 33.0702 9.16402 32.7149L7.86604 31.4304Z" fill="#56352E"/>
<path d="M27.4752 23.149C27.4476 24.2058 26.9873 25.2534 26.2141 26.2737C25.4408 27.2941 24.4098 28.2234 23.3419 29.0251C22.2833 29.8177 21.2247 30.4645 20.4238 30.9018C20.0279 31.1205 19.6965 31.2935 19.4664 31.412C19.3559 31.4666 19.2639 31.5122 19.1994 31.5395C19.1718 31.5577 19.1442 31.5669 19.135 31.5669C19.135 31.5669 19.1258 31.5669 19.1166 31.5669C19.1166 31.5669 19.1166 31.5668 19.5032 32.3958C19.761 32.9485 19.8898 33.2249 19.8898 33.2249C19.8898 33.2249 19.8991 33.2249 19.9083 33.2158C19.9267 33.2158 19.9543 33.1976 19.9911 33.1794C20.0556 33.143 20.1568 33.0974 20.2857 33.0336C20.5343 32.9061 20.8933 32.7239 21.3167 32.487C22.1636 32.0133 23.3051 31.3299 24.4466 30.4736C25.5881 29.6172 26.7664 28.5696 27.6777 27.367C28.5891 26.1645 29.2611 24.7523 29.3071 23.1945L27.466 23.149H27.4752ZM22.808 17.6919C22.7835 18.2993 22.7712 18.603 22.7712 18.603C22.7712 18.603 22.7896 18.603 22.808 18.603C22.8356 18.603 22.8909 18.6029 22.9553 18.6211C23.0934 18.6393 23.2867 18.6576 23.526 18.7123C24.0047 18.8034 24.6307 18.9765 25.2382 19.2862C25.8458 19.596 26.4073 20.0241 26.8216 20.6254C27.2266 21.2176 27.512 22.0193 27.4844 23.1581L29.3255 23.2036C29.3623 21.7186 28.9849 20.5343 28.3497 19.6051C27.7237 18.6849 26.886 18.0745 26.076 17.6646C25.2751 17.2546 24.4742 17.045 23.885 16.9266C23.5905 16.8719 23.3419 16.8355 23.1578 16.8173C23.0658 16.8082 22.9921 16.799 22.9461 16.799C22.9185 16.799 22.9001 16.799 22.8816 16.799H22.8632C22.8632 16.799 22.8632 16.799 22.8264 17.7101L22.808 17.6919ZM19.1166 31.576C18.6563 31.7855 18.4538 32.3321 18.6655 32.7876C18.8773 33.2431 19.4296 33.4435 19.8898 33.234L19.1166 31.576ZM22.8448 16.7809C22.3385 16.7627 21.9059 17.1453 21.8875 17.6554C21.869 18.1565 22.2557 18.5847 22.7712 18.603L22.854 16.7809H22.8448Z" fill="#56352E"/>
<path d="M28.3866 24.0872H37.1779V22.2651H28.3866V24.0872ZM37.1779 24.0872C37.6842 24.0872 38.0984 23.6772 38.0984 23.1762C38.0984 22.6751 37.6842 22.2651 37.1779 22.2651V24.0872ZM28.3866 22.2651C27.8803 22.2651 27.4661 22.6751 27.4661 23.1762C27.4661 23.6772 27.8803 24.0872 28.3866 24.0872V22.2651Z" fill="#56352E"/>
<path d="M1.00063 33.3162H31.7286V31.4941H1.00063V33.3162ZM31.7286 33.3162C32.2349 33.3162 32.6492 32.9062 32.6492 32.4052C32.6492 31.9041 32.2349 31.4941 31.7286 31.4941V33.3162ZM1.00063 31.4941C0.494326 31.4941 0.0800781 31.9041 0.0800781 32.4052C0.0800781 32.9062 0.494326 33.3162 1.00063 33.3162V31.4941Z" fill="#56352E"/>
<path d="M13.0599 10.1765C13.8884 10.1765 14.5512 10.8416 14.5512 11.6524H16.3923C16.3923 9.83035 14.901 8.35449 13.0599 8.35449V10.1765ZM11.5686 11.6524C11.5686 10.8416 12.2314 10.1765 13.0599 10.1765V8.35449C11.2188 8.35449 9.72754 9.83035 9.72754 11.6524H11.5686ZM13.0599 13.1283C12.2314 13.1283 11.5686 12.4632 11.5686 11.6524H9.72754C9.72754 13.4745 11.2188 14.9503 13.0599 14.9503V13.1283ZM14.5512 11.6524C14.5512 12.4632 13.8884 13.1283 13.0599 13.1283V14.9503C14.901 14.9503 16.3923 13.4745 16.3923 11.6524H14.5512Z" fill="#56352E"/>
</g>
<defs>
<clipPath id="clip0_463_4979">
<rect width="56.84" height="38.976" fill="white" transform="translate(0.0800781 0.935547)"/>
</clipPath>
</defs>
</svg>
