<svg width="58" height="55" viewBox="0 0 58 55" fill="none" xmlns="http://www.w3.org/2000/svg">
<path d="M46.5004 20.9062C46.5004 19.9711 46.1289 19.0743 45.4677 18.4131C44.8065 17.7518 43.9096 17.3804 42.9745 17.3804H34.1599L46.5004 38.5354" stroke="#56352E" stroke-width="2.05589" stroke-linecap="round" stroke-linejoin="round"/>
<path d="M46.5004 47.3499C51.3686 47.3499 55.315 43.4035 55.315 38.5353C55.315 33.6671 51.3686 29.7207 46.5004 29.7207C41.6322 29.7207 37.6858 33.6671 37.6858 38.5353C37.6858 43.4035 41.6322 47.3499 46.5004 47.3499Z" stroke="#56352E" stroke-width="2.05589" stroke-linecap="round" stroke-linejoin="round"/>
<path d="M11.2419 47.3499C16.11 47.3499 20.0565 43.4035 20.0565 38.5353C20.0565 33.6671 16.11 29.7207 11.2419 29.7207C6.37369 29.7207 2.42725 33.6671 2.42725 38.5353C2.42725 43.4035 6.37369 47.3499 11.2419 47.3499Z" stroke="#56352E" stroke-width="2.05589" stroke-linecap="round" stroke-linejoin="round"/>
<path d="M11.2419 17.3804H17.4122L29.7526 38.5354" stroke="#56352E" stroke-width="2.05589" stroke-linecap="round" stroke-linejoin="round"/>
<path d="M38.1457 24.4316H21.5257L11.2419 38.535" stroke="#56352E" stroke-width="2.05589" stroke-linecap="round" stroke-linejoin="round"/>
</svg>
