<svg width="58" height="55" viewBox="0 0 58 55" fill="none" xmlns="http://www.w3.org/2000/svg">
<path d="M29.4111 3.3999C32.5968 3.39993 35.7512 4.02752 38.6943 5.24658C41.6375 6.46569 44.3118 8.25279 46.5645 10.5054C48.6763 12.6172 50.3798 15.0995 51.5889 17.8267L51.8232 18.3755C53.0424 21.3188 53.6699 24.4739 53.6699 27.6597C53.6699 32.3077 52.335 36.8546 49.8281 40.7612L49.582 41.1372C46.9164 45.1267 43.1272 48.2356 38.6943 50.0718C34.4002 51.8505 29.6886 52.3576 25.1201 51.5366L24.6777 51.4526C20.1192 50.5458 15.9205 48.3491 12.5781 45.1284L12.2568 44.813C8.9703 41.5263 6.69872 37.3674 5.70898 32.8325L5.61719 32.3921C4.71042 27.8333 5.13343 23.1131 6.83008 18.7925L6.99805 18.3755C8.7768 14.0813 11.7505 10.3916 15.5615 7.7417L15.9326 7.48877C19.9221 4.82311 24.6131 3.3999 29.4111 3.3999ZM37.4043 8.36182C33.5876 6.78087 29.3878 6.36738 25.3359 7.17334C21.5374 7.92893 18.029 9.72453 15.1982 12.353L14.6406 12.8892C11.902 15.6278 9.98321 19.0705 9.08984 22.8286L8.9248 23.5845C8.16921 27.3831 8.48488 31.3119 9.83008 34.9331L10.1133 35.6528C11.5954 39.2309 14.0407 42.3219 17.1709 44.5854L17.8066 45.0269C21.2416 47.322 25.28 48.5474 29.4111 48.5474C34.7777 48.5473 39.9314 46.4819 43.8096 42.7915L44.1807 42.4292C48.0978 38.512 50.2988 33.1994 50.2988 27.6597C50.2988 23.5285 49.0734 19.4901 46.7783 16.0552C44.6265 12.8348 41.6251 10.2798 38.1133 8.67041L37.4043 8.36182ZM24.3945 15.9409H31.9189C33.5852 15.9409 35.1876 16.5613 36.417 17.6743L36.6582 17.9038C37.9151 19.1607 38.6211 20.8655 38.6211 22.6431V25.1509C38.6211 26.9284 37.915 28.6332 36.6582 29.8901C35.4013 31.147 33.6965 31.853 31.9189 31.853H26.0801V37.6919C26.0801 38.1389 25.903 38.5681 25.5869 38.8843C25.2708 39.2004 24.8416 39.3784 24.3945 39.3784C24.0034 39.3784 23.6261 39.2423 23.3262 38.9966L23.2021 38.8843C22.8861 38.5681 22.709 38.1389 22.709 37.6919V17.6265C22.709 17.2352 22.8449 16.8581 23.0908 16.5581L23.2021 16.4351C23.5183 16.1189 23.9474 15.9409 24.3945 15.9409ZM26.0801 28.4819H31.9189C32.7469 28.4819 33.5434 28.1736 34.1543 27.6206L34.2744 27.5063C34.8989 26.8818 35.25 26.0341 35.25 25.1509V22.6431C35.25 21.8149 34.941 21.0187 34.3877 20.4077L34.2744 20.2876C33.6498 19.663 32.8022 19.313 31.9189 19.313H26.0801V28.4819Z" stroke="#56352E" stroke-width="1.64471"/>
</svg>
