<svg width="201" height="35" viewBox="0 0 201 35" fill="none" xmlns="http://www.w3.org/2000/svg">
<path d="M173.091 20.9812C173.091 13.4343 179.248 7.27666 186.795 7.27666C194.342 7.27666 200.5 13.4343 200.5 20.9812C200.5 28.5281 194.342 34.6857 186.795 34.6857C179.248 34.6857 173.091 28.5281 173.091 20.9812ZM179.173 20.9812C179.173 25.5243 182.59 28.9411 186.795 28.9411C191.001 28.9411 194.417 25.5243 194.417 20.9812C194.417 16.4381 191.001 13.0213 186.795 13.0213C182.59 13.0213 179.173 16.4381 179.173 20.9812Z" fill="white"/>
<path d="M163.159 0.478423C163.159 0.293093 163.31 0.142853 163.495 0.142853H166.203C166.388 0.142853 166.539 0.293093 166.539 0.478423V1.87C166.539 4.19789 165.262 6.11277 162.934 6.11277C161.77 6.11277 160.756 5.73731 159.818 5.06147C159.255 4.64845 158.616 4.1228 157.94 4.1228C157.452 4.1228 157.227 4.46072 157.227 4.94883V5.92739C157.227 6.11272 157.077 6.26296 156.891 6.26296H154.183C153.998 6.26296 153.848 6.11272 153.848 5.92739V4.83619C153.848 2.62093 155.2 0.931332 157.415 0.931332C158.504 0.931332 159.517 1.3068 160.419 1.94509C161.057 2.39565 161.658 2.77112 162.333 2.77112C162.934 2.77112 163.159 2.39565 163.159 1.87V0.478423ZM172.22 33.8367C172.32 34.0588 172.157 34.3103 171.914 34.3103H166.229C166.097 34.3103 165.978 34.2337 165.923 34.1142L164.713 31.4652C164.659 31.3457 164.539 31.269 164.408 31.269H155.378C155.246 31.269 155.127 31.3457 155.072 31.4652L153.862 34.1142C153.808 34.2337 153.688 34.3103 153.557 34.3103H148.21C147.966 34.3103 147.804 34.0588 147.904 33.8367L159.823 7.43072C159.866 7.33698 159.959 7.27672 160.062 7.27672C160.165 7.27672 160.258 7.33698 160.3 7.43072L172.22 33.8367ZM157.815 25.3894C157.715 25.6114 157.877 25.8623 158.121 25.8623H161.665C161.908 25.8623 162.071 25.6114 161.971 25.3894L160.199 21.4386C160.08 21.1743 159.705 21.1743 159.587 21.4386L157.815 25.3894Z" fill="white"/>
<path d="M144.824 28.5656C145.01 28.5656 145.16 28.7159 145.16 28.9012V33.9747C145.16 34.16 145.01 34.3103 144.824 34.3103H130.402C130.216 34.3103 130.066 34.16 130.066 33.9747V7.98771C130.066 7.80238 130.216 7.65213 130.402 7.65213H144.824C145.01 7.65213 145.16 7.80237 145.16 7.9877V13.0612C145.16 13.2465 145.01 13.3968 144.824 13.3968H136.484C136.299 13.3968 136.149 13.547 136.149 13.7323V17.1913C136.149 17.3767 136.299 17.5269 136.484 17.5269H144.073C144.259 17.5269 144.409 17.6771 144.409 17.8625V22.936C144.409 23.1213 144.259 23.2716 144.073 23.2716H136.484C136.299 23.2716 136.149 23.4218 136.149 23.6071V28.2301C136.149 28.4154 136.299 28.5656 136.484 28.5656H144.824Z" fill="white"/>
<path d="M110.854 7.98771C110.854 7.80238 111.004 7.65213 111.189 7.65213H116.601C116.786 7.65213 116.936 7.80237 116.936 7.9877V28.2301C116.936 28.4154 117.086 28.5656 117.272 28.5656H125.612C125.797 28.5656 125.947 28.7159 125.947 28.9012V33.9747C125.947 34.16 125.797 34.3103 125.612 34.3103H111.189C111.004 34.3103 110.854 34.16 110.854 33.9747V7.98771Z" fill="white"/>
<path d="M106.734 33.8366C106.834 34.0587 106.671 34.3103 106.428 34.3103H100.743C100.611 34.3103 100.492 34.2336 100.437 34.1141L99.2272 31.4651C99.1727 31.3456 99.0534 31.269 98.922 31.269H89.8915C89.7602 31.269 89.6409 31.3456 89.5863 31.4651L88.3763 34.1141C88.3217 34.2336 88.2024 34.3103 88.071 34.3103H82.7237C82.4801 34.3103 82.3176 34.0587 82.4179 33.8366L94.3373 7.43067C94.3796 7.33692 94.4729 7.27666 94.5757 7.27666C94.6786 7.27666 94.7719 7.33692 94.8142 7.43067L106.734 33.8366ZM92.3285 25.3894C92.229 25.6114 92.3914 25.8623 92.6347 25.8623H96.1788C96.4222 25.8623 96.5846 25.6114 96.485 25.3894L94.713 21.4386C94.5944 21.1742 94.2191 21.1742 94.1006 21.4386L92.3285 25.3894Z" fill="white"/>
<path d="M78.3102 33.9747C78.3102 34.16 78.16 34.3103 77.9746 34.3103H72.5632C72.3779 34.3103 72.2276 34.16 72.2276 33.9747V23.0662C72.2276 22.7623 71.856 22.6149 71.6477 22.8362L65.6812 29.1735C65.6178 29.2408 65.5294 29.279 65.4369 29.279H65.3889C65.2964 29.279 65.208 29.2408 65.1446 29.1735L59.1781 22.8362C58.9698 22.6149 58.5982 22.7623 58.5982 23.0662V33.9747C58.5982 34.16 58.4479 34.3103 58.2626 34.3103H52.8512C52.6659 34.3103 52.5156 34.16 52.5156 33.9747V7.51249C52.5156 7.38225 52.6212 7.27666 52.7514 7.27666C52.8166 7.27666 52.8788 7.30361 52.9234 7.35112L65.1866 20.4197C65.3193 20.5611 65.5439 20.5609 65.6764 20.4193L77.9024 7.35133C77.947 7.3037 78.0093 7.27666 78.0745 7.27666C78.2047 7.27666 78.3102 7.38218 78.3102 7.51234V33.9747Z" fill="white"/>
<path d="M48.3986 33.8366C48.4989 34.0587 48.3364 34.3103 48.0928 34.3103H42.4076C42.2762 34.3103 42.1569 34.2336 42.1023 34.1141L40.8923 31.4651C40.8377 31.3456 40.7184 31.269 40.5871 31.269H31.5566C31.4252 31.269 31.3059 31.3456 31.2513 31.4651L30.0413 34.1141C29.9867 34.2336 29.8674 34.3103 29.7361 34.3103H24.3888C24.1451 34.3103 23.9827 34.0587 24.0829 33.8366L36.0023 7.43066C36.0446 7.33692 36.1379 7.27666 36.2408 7.27666C36.3436 7.27666 36.4369 7.33692 36.4792 7.43066L48.3986 33.8366ZM33.9936 25.3894C33.894 25.6114 34.0564 25.8623 34.2998 25.8623H37.8439C38.0872 25.8623 38.2496 25.6114 38.15 25.3894L36.378 21.4386C36.2594 21.1742 35.8842 21.1742 35.7656 21.4386L33.9936 25.3894Z" fill="white"/>
<path d="M19.641 26.91C19.79 26.7911 20.0088 26.8139 20.1254 26.9648L23.1753 30.9098C23.2828 31.0488 23.2651 31.2476 23.1318 31.3621C20.582 33.555 17.4463 34.6857 14.2045 34.6857C6.65766 34.6857 0.5 28.5281 0.5 20.9812C0.5 13.4343 6.65766 7.27666 14.2045 7.27666C17.4415 7.27666 20.5023 8.40405 23.0115 10.4882C23.1484 10.6019 23.1682 10.8035 23.0593 10.9443L20.0077 14.8915C19.893 15.0399 19.6789 15.0648 19.5298 14.9511C17.7586 13.5998 16.1347 13.0213 14.2045 13.0213C9.99931 13.0213 6.58256 16.4381 6.58256 20.9812C6.58256 25.5243 9.99931 28.9411 14.2045 28.9411C16.1701 28.9411 17.8635 28.3288 19.641 26.91Z" fill="white"/>
<path d="M185.504 17.1993C181.12 16.9951 178.998 19.4623 177.782 21.0101L176.801 26.1826C179.185 27.6791 184.049 30.7185 184.426 30.9037C184.897 31.1353 186.795 30.0447 184.175 28.6357C181.634 27.2691 181.579 26.7754 181.257 25.4471C180.935 24.1188 182.412 22.6997 183.817 22.2202C184.942 21.8367 185.774 22.2066 189.147 23.2788C192.36 23.8826 192.336 20.4911 191.076 19.352L191.072 19.3479C190.567 18.9024 188.811 17.3534 185.504 17.1993Z" fill="white"/>
</svg>
