<svg width="197" height="57" viewBox="0 0 197 57" fill="none" xmlns="http://www.w3.org/2000/svg">
<mask id="path-1-outside-1_352_1679" maskUnits="userSpaceOnUse" x="-0.107666" y="0.142822" width="57" height="56" fill="black">
<rect fill="white" x="-0.107666" y="0.142822" width="57" height="56"/>
<path d="M33.3669 1.14282C32.6043 1.14282 31.9356 1.60563 31.4197 2.16724C30.6249 3.03252 29.4838 3.57446 28.2166 3.57446C26.9491 3.57446 25.8084 3.0327 25.0134 2.16724C24.4979 1.60582 23.8293 1.14286 23.0671 1.14282H3.36987C2.2653 1.14282 1.36987 2.03825 1.36987 3.14282V23.3157C1.36988 24.0748 1.82892 24.741 2.38647 25.2561C3.24657 26.0508 3.78491 27.1886 3.78491 28.4514C3.78489 29.7142 3.24659 30.852 2.38647 31.6467C1.82891 32.1619 1.36987 32.828 1.36987 33.5872V53.1428C1.36987 54.2474 2.2653 55.1428 3.36987 55.1428H23.6873C24.4538 55.1428 25.125 54.6752 25.6414 54.1086C26.4367 53.2359 27.583 52.6887 28.8572 52.6887C30.1313 52.6888 31.2777 53.2359 32.073 54.1086C32.5892 54.675 33.2598 55.1427 34.0261 55.1428H53.8923C54.9968 55.1428 55.8923 54.2473 55.8923 53.1428V32.9827C55.8923 32.2157 55.4241 31.5442 54.8572 31.0276C53.984 30.2321 53.4353 29.0847 53.4353 27.8108C53.4353 26.5366 53.9837 25.3896 54.8572 24.594C55.424 24.0777 55.8923 23.4066 55.8923 22.6399V3.14282C55.8923 2.0383 54.9968 1.14289 53.8923 1.14282H33.3669ZM28.6306 32.6438C28.6345 32.9943 28.6482 33.347 28.6697 33.7014C29.0111 39.2144 31.4466 44.0996 35.1541 47.6301C36.3658 48.7842 35.557 51.7258 33.8835 51.7258C33.4174 51.7258 32.9853 51.5048 32.6472 51.1838C31.6605 50.2467 30.3258 49.6712 28.8572 49.6711C27.403 49.6711 26.0802 50.2347 25.0964 51.1555C24.7374 51.4916 24.2816 51.7258 23.7898 51.7258C22.0228 51.7255 21.1451 48.5694 22.4011 47.3264C25.9438 43.8204 28.2603 39.0487 28.5925 33.6819C28.614 33.3343 28.6267 32.9885 28.6306 32.6438ZM33.1697 31.5471C37.6451 31.5471 41.9156 33.2384 45.1941 36.3088C48.4854 39.3922 50.452 43.5706 50.7312 48.0754C50.748 48.3421 50.7589 48.6087 50.7634 48.8752C50.7742 49.505 50.2703 50.0168 49.6404 50.0168C45.1649 50.0168 40.8945 48.3257 37.6169 45.2551C34.3248 42.1728 32.3591 37.9943 32.0798 33.4905C32.0634 33.2229 32.0532 32.9549 32.0486 32.6877C32.0379 32.0587 32.5405 31.5471 33.1697 31.5471ZM24.0906 31.5276C24.7203 31.5276 25.2232 32.0396 25.2126 32.6692C25.2081 32.936 25.1982 33.2037 25.1814 33.4709C24.9031 37.9747 22.9364 42.1533 19.6453 45.2356C16.3668 48.3061 12.0963 49.9972 7.62085 49.9973C6.99125 49.9973 6.48804 49.4862 6.49878 48.8567C6.50333 48.5899 6.51366 48.3229 6.53003 48.0559C6.80927 43.551 8.77586 39.3726 12.0671 36.2893C15.3447 33.2189 19.6151 31.5276 24.0906 31.5276ZM4.78687 23.4172C4.78687 21.6313 7.97901 20.7375 9.24292 21.9993C12.8522 25.6039 17.7509 27.8879 23.1257 28.1331C17.5473 28.3868 12.482 30.8376 8.83862 34.6819C7.69934 35.884 4.78687 35.0852 4.78687 33.429C4.78692 32.9727 5.00108 32.5489 5.31323 32.2161C6.23648 31.2316 6.8015 29.9076 6.80151 28.4514C6.80151 27.0155 6.25181 25.7078 5.35132 24.7278C5.01853 24.3655 4.78693 23.9092 4.78687 23.4172ZM48.4519 21.553C49.5826 20.3553 52.4753 21.1481 52.4753 22.7952C52.4752 23.254 52.258 23.68 51.9412 24.012C50.9983 24.9997 50.4187 26.3378 50.4187 27.8108C50.4187 29.2624 50.9815 30.5832 51.9001 31.5667C52.2392 31.9296 52.4753 32.3903 52.4753 32.887C52.4748 34.6691 49.2911 35.5595 48.031 34.2991C44.3698 30.6365 39.379 28.3344 33.9099 28.1428C39.5917 27.9438 44.7571 25.4667 48.4519 21.553ZM28.45 25.4875C29.9165 25.4877 31.1052 26.6762 31.1052 28.1428C31.1052 29.6095 29.9165 30.798 28.45 30.7981C26.9832 30.7981 25.7937 29.6095 25.7937 28.1428C25.7937 26.6761 26.9832 25.4875 28.45 25.4875ZM49.6394 6.2688C50.2699 6.2688 50.7742 6.78102 50.7634 7.41138C50.7589 7.67795 50.748 7.94467 50.7312 8.21118C50.452 12.7151 48.4854 16.8945 45.1941 19.9778C41.9156 23.0473 37.6451 24.7385 33.1697 24.7385C32.54 24.7385 32.0379 24.2274 32.0486 23.5979C32.0532 23.3309 32.0635 23.0631 32.0798 22.7961C32.3591 18.2914 34.3248 14.1138 37.616 11.0305C40.8945 7.95995 45.1639 6.26886 49.6394 6.2688ZM7.62085 6.2688C12.0963 6.2689 16.3668 7.95999 19.6453 11.0305C22.9364 14.1138 24.9031 18.2914 25.1814 22.7961C25.1982 23.0635 25.2081 23.3316 25.2126 23.5989C25.2231 24.2278 24.7216 24.7385 24.0925 24.7385C19.6161 24.7385 15.3457 23.0473 12.0671 19.9778C8.77586 16.8945 6.80927 12.7151 6.53003 8.21118C6.51365 7.94401 6.50333 7.67665 6.49878 7.40942C6.48808 6.77991 6.99125 6.2688 7.62085 6.2688ZM23.2283 4.55981C23.6821 4.55981 24.1037 4.77336 24.4333 5.08521C25.4197 6.0187 26.7513 6.59106 28.2166 6.59106C29.6552 6.59106 30.9652 6.03954 31.946 5.13599C32.3142 4.79682 32.7785 4.55994 33.2791 4.55981C35.0874 4.55981 35.9959 7.79441 34.7224 9.07837C31.2581 12.5713 28.9976 17.288 28.6697 22.5842C28.6482 22.9347 28.6345 23.2845 28.6306 23.6321C28.6277 23.2845 28.614 22.9347 28.5925 22.5842C28.2478 17.017 25.7674 12.0909 21.9988 8.55298C20.8037 7.43076 21.589 4.56013 23.2283 4.55981Z"/>
</mask>
<path d="M33.3669 1.14282C32.6043 1.14282 31.9356 1.60563 31.4197 2.16724C30.6249 3.03252 29.4838 3.57446 28.2166 3.57446C26.9491 3.57446 25.8084 3.0327 25.0134 2.16724C24.4979 1.60582 23.8293 1.14286 23.0671 1.14282H3.36987C2.2653 1.14282 1.36987 2.03825 1.36987 3.14282V23.3157C1.36988 24.0748 1.82892 24.741 2.38647 25.2561C3.24657 26.0508 3.78491 27.1886 3.78491 28.4514C3.78489 29.7142 3.24659 30.852 2.38647 31.6467C1.82891 32.1619 1.36987 32.828 1.36987 33.5872V53.1428C1.36987 54.2474 2.2653 55.1428 3.36987 55.1428H23.6873C24.4538 55.1428 25.125 54.6752 25.6414 54.1086C26.4367 53.2359 27.583 52.6887 28.8572 52.6887C30.1313 52.6888 31.2777 53.2359 32.073 54.1086C32.5892 54.675 33.2598 55.1427 34.0261 55.1428H53.8923C54.9968 55.1428 55.8923 54.2473 55.8923 53.1428V32.9827C55.8923 32.2157 55.4241 31.5442 54.8572 31.0276C53.984 30.2321 53.4353 29.0847 53.4353 27.8108C53.4353 26.5366 53.9837 25.3896 54.8572 24.594C55.424 24.0777 55.8923 23.4066 55.8923 22.6399V3.14282C55.8923 2.0383 54.9968 1.14289 53.8923 1.14282H33.3669ZM28.6306 32.6438C28.6345 32.9943 28.6482 33.347 28.6697 33.7014C29.0111 39.2144 31.4466 44.0996 35.1541 47.6301C36.3658 48.7842 35.557 51.7258 33.8835 51.7258C33.4174 51.7258 32.9853 51.5048 32.6472 51.1838C31.6605 50.2467 30.3258 49.6712 28.8572 49.6711C27.403 49.6711 26.0802 50.2347 25.0964 51.1555C24.7374 51.4916 24.2816 51.7258 23.7898 51.7258C22.0228 51.7255 21.1451 48.5694 22.4011 47.3264C25.9438 43.8204 28.2603 39.0487 28.5925 33.6819C28.614 33.3343 28.6267 32.9885 28.6306 32.6438ZM33.1697 31.5471C37.6451 31.5471 41.9156 33.2384 45.1941 36.3088C48.4854 39.3922 50.452 43.5706 50.7312 48.0754C50.748 48.3421 50.7589 48.6087 50.7634 48.8752C50.7742 49.505 50.2703 50.0168 49.6404 50.0168C45.1649 50.0168 40.8945 48.3257 37.6169 45.2551C34.3248 42.1728 32.3591 37.9943 32.0798 33.4905C32.0634 33.2229 32.0532 32.9549 32.0486 32.6877C32.0379 32.0587 32.5405 31.5471 33.1697 31.5471ZM24.0906 31.5276C24.7203 31.5276 25.2232 32.0396 25.2126 32.6692C25.2081 32.936 25.1982 33.2037 25.1814 33.4709C24.9031 37.9747 22.9364 42.1533 19.6453 45.2356C16.3668 48.3061 12.0963 49.9972 7.62085 49.9973C6.99125 49.9973 6.48804 49.4862 6.49878 48.8567C6.50333 48.5899 6.51366 48.3229 6.53003 48.0559C6.80927 43.551 8.77586 39.3726 12.0671 36.2893C15.3447 33.2189 19.6151 31.5276 24.0906 31.5276ZM4.78687 23.4172C4.78687 21.6313 7.97901 20.7375 9.24292 21.9993C12.8522 25.6039 17.7509 27.8879 23.1257 28.1331C17.5473 28.3868 12.482 30.8376 8.83862 34.6819C7.69934 35.884 4.78687 35.0852 4.78687 33.429C4.78692 32.9727 5.00108 32.5489 5.31323 32.2161C6.23648 31.2316 6.8015 29.9076 6.80151 28.4514C6.80151 27.0155 6.25181 25.7078 5.35132 24.7278C5.01853 24.3655 4.78693 23.9092 4.78687 23.4172ZM48.4519 21.553C49.5826 20.3553 52.4753 21.1481 52.4753 22.7952C52.4752 23.254 52.258 23.68 51.9412 24.012C50.9983 24.9997 50.4187 26.3378 50.4187 27.8108C50.4187 29.2624 50.9815 30.5832 51.9001 31.5667C52.2392 31.9296 52.4753 32.3903 52.4753 32.887C52.4748 34.6691 49.2911 35.5595 48.031 34.2991C44.3698 30.6365 39.379 28.3344 33.9099 28.1428C39.5917 27.9438 44.7571 25.4667 48.4519 21.553ZM28.45 25.4875C29.9165 25.4877 31.1052 26.6762 31.1052 28.1428C31.1052 29.6095 29.9165 30.798 28.45 30.7981C26.9832 30.7981 25.7937 29.6095 25.7937 28.1428C25.7937 26.6761 26.9832 25.4875 28.45 25.4875ZM49.6394 6.2688C50.2699 6.2688 50.7742 6.78102 50.7634 7.41138C50.7589 7.67795 50.748 7.94467 50.7312 8.21118C50.452 12.7151 48.4854 16.8945 45.1941 19.9778C41.9156 23.0473 37.6451 24.7385 33.1697 24.7385C32.54 24.7385 32.0379 24.2274 32.0486 23.5979C32.0532 23.3309 32.0635 23.0631 32.0798 22.7961C32.3591 18.2914 34.3248 14.1138 37.616 11.0305C40.8945 7.95995 45.1639 6.26886 49.6394 6.2688ZM7.62085 6.2688C12.0963 6.2689 16.3668 7.95999 19.6453 11.0305C22.9364 14.1138 24.9031 18.2914 25.1814 22.7961C25.1982 23.0635 25.2081 23.3316 25.2126 23.5989C25.2231 24.2278 24.7216 24.7385 24.0925 24.7385C19.6161 24.7385 15.3457 23.0473 12.0671 19.9778C8.77586 16.8945 6.80927 12.7151 6.53003 8.21118C6.51365 7.94401 6.50333 7.67665 6.49878 7.40942C6.48808 6.77991 6.99125 6.2688 7.62085 6.2688ZM23.2283 4.55981C23.6821 4.55981 24.1037 4.77336 24.4333 5.08521C25.4197 6.0187 26.7513 6.59106 28.2166 6.59106C29.6552 6.59106 30.9652 6.03954 31.946 5.13599C32.3142 4.79682 32.7785 4.55994 33.2791 4.55981C35.0874 4.55981 35.9959 7.79441 34.7224 9.07837C31.2581 12.5713 28.9976 17.288 28.6697 22.5842C28.6482 22.9347 28.6345 23.2845 28.6306 23.6321C28.6277 23.2845 28.614 22.9347 28.5925 22.5842C28.2478 17.017 25.7674 12.0909 21.9988 8.55298C20.8037 7.43076 21.589 4.56013 23.2283 4.55981Z" fill="#232323"/>
<path d="M31.4197 2.16724L30.6832 1.49076L30.6832 1.49074L31.4197 2.16724ZM28.2166 3.57446V4.57446H28.2165L28.2166 3.57446ZM25.0134 2.16724L24.2769 2.8437L24.2769 2.84361L25.0134 2.16724ZM23.0671 1.14282V0.142822H23.0672L23.0671 1.14282ZM1.36987 23.3157L0.369873 23.3157V23.3157H1.36987ZM2.38647 25.2561L3.06509 24.5216L3.06511 24.5216L2.38647 25.2561ZM3.78491 28.4514H4.78491V28.4514L3.78491 28.4514ZM2.38647 31.6467L3.0651 32.3812H3.06509L2.38647 31.6467ZM25.6414 54.1086L26.3805 54.7822L26.3805 54.7822L25.6414 54.1086ZM28.8572 52.6887V51.6887H28.8572L28.8572 52.6887ZM32.073 54.1086L31.3339 54.7823L31.3339 54.7822L32.073 54.1086ZM34.0261 55.1428V56.1428H34.0259L34.0261 55.1428ZM53.8923 55.1428L53.8924 56.1428H53.8923V55.1428ZM54.8572 31.0276L55.5307 30.2884L55.5307 30.2884L54.8572 31.0276ZM53.4353 27.8108H52.4353V27.8108L53.4353 27.8108ZM54.8572 24.594L54.1838 23.8547L54.1838 23.8547L54.8572 24.594ZM53.8923 1.14282V0.142822H53.8924L53.8923 1.14282ZM28.6306 32.6438L27.6307 32.6325L29.6306 32.6327L28.6306 32.6438ZM28.6697 33.7014L27.6716 33.7632L27.6715 33.7619L28.6697 33.7014ZM35.1541 47.6301L35.8437 46.9059L35.8437 46.906L35.1541 47.6301ZM33.8835 51.7258V52.7258H33.8834L33.8835 51.7258ZM32.6472 51.1838L31.9587 51.9091L31.9586 51.9089L32.6472 51.1838ZM28.8572 49.6711V48.6711H28.8572L28.8572 49.6711ZM25.0964 51.1555L24.4131 50.4254L24.4131 50.4254L25.0964 51.1555ZM23.7898 51.7258V52.7258H23.7896L23.7898 51.7258ZM22.4011 47.3264L23.1045 48.0372L23.1045 48.0372L22.4011 47.3264ZM28.5925 33.6819L29.5906 33.7436L29.5906 33.7437L28.5925 33.6819ZM33.1697 31.5471V30.5471H33.1697L33.1697 31.5471ZM45.1941 36.3088L45.8777 35.5789L45.8778 35.5791L45.1941 36.3088ZM50.7312 48.0754L49.7332 48.1382L49.7331 48.1373L50.7312 48.0754ZM50.7634 48.8752L51.7633 48.8581L51.7633 48.8581L50.7634 48.8752ZM49.6404 50.0168V51.0168H49.6404L49.6404 50.0168ZM37.6169 45.2551L38.3004 44.5251L38.3006 44.5254L37.6169 45.2551ZM32.0798 33.4905L31.0818 33.5524L31.0817 33.5516L32.0798 33.4905ZM32.0486 32.6877L31.0487 32.705L31.0487 32.7047L32.0486 32.6877ZM24.0906 31.5276V30.5276H24.0906L24.0906 31.5276ZM25.2126 32.6692L26.2125 32.686L26.2125 32.6863L25.2126 32.6692ZM25.1814 33.4709L24.1833 33.4093L24.1834 33.4083L25.1814 33.4709ZM19.6453 45.2356L18.9617 44.5057L18.9617 44.5057L19.6453 45.2356ZM7.62085 49.9973L7.62087 50.9973H7.62085V49.9973ZM6.49878 48.8567L5.49892 48.8396V48.8396L6.49878 48.8567ZM6.53003 48.0559L5.53191 47.9947L5.53194 47.994L6.53003 48.0559ZM12.0671 36.2893L11.3835 35.5595L11.3835 35.5595L12.0671 36.2893ZM4.78687 23.4172L3.78687 23.4174V23.4172H4.78687ZM9.24292 21.9993L9.94944 21.2916L9.94958 21.2917L9.24292 21.9993ZM23.1257 28.1331L23.1713 27.1341L23.1712 29.132L23.1257 28.1331ZM8.83862 34.6819L8.1128 33.994L8.11281 33.994L8.83862 34.6819ZM4.78687 33.429H3.78687V33.4288L4.78687 33.429ZM5.31323 32.2161L6.04264 32.9001L6.04263 32.9002L5.31323 32.2161ZM6.80151 28.4514H7.80151V28.4514L6.80151 28.4514ZM5.35132 24.7278L4.61497 25.4044L4.61486 25.4043L5.35132 24.7278ZM48.4519 21.553L47.7248 20.8665L47.7248 20.8665L48.4519 21.553ZM52.4753 22.7952H53.4753V22.7954L52.4753 22.7952ZM51.9412 24.012L52.6646 24.7024L52.6645 24.7024L51.9412 24.012ZM50.4187 27.8108H49.4187V27.8108L50.4187 27.8108ZM51.9001 31.5667L52.6309 30.884L52.631 30.8841L51.9001 31.5667ZM52.4753 32.887H53.4753V32.8872L52.4753 32.887ZM48.031 34.2991L47.3238 35.0061L47.3238 35.0061L48.031 34.2991ZM33.9099 28.1428L33.8749 29.1422V27.1434L33.9099 28.1428ZM28.45 25.4875V24.4875H28.4501L28.45 25.4875ZM31.1052 28.1428H32.1052V28.1428L31.1052 28.1428ZM28.45 30.7981L28.4501 31.7981H28.45V30.7981ZM25.7937 28.1428L24.7937 28.1428V28.1428H25.7937ZM49.6394 6.2688L49.6394 5.2688H49.6394V6.2688ZM50.7634 7.41138L51.7633 7.4285L51.7633 7.42854L50.7634 7.41138ZM50.7312 8.21118L49.7331 8.1493L49.7332 8.14845L50.7312 8.21118ZM45.1941 19.9778L45.8778 20.7076L45.8775 20.7078L45.1941 19.9778ZM33.1697 24.7385L33.1697 25.7385H33.1697V24.7385ZM32.0486 23.5979L31.0487 23.5809L31.0487 23.5806L32.0486 23.5979ZM32.0798 22.7961L31.0817 22.7349L31.0818 22.7343L32.0798 22.7961ZM37.616 11.0305L36.9323 10.3007L36.9324 10.3006L37.616 11.0305ZM7.62085 6.2688V5.2688H7.62087L7.62085 6.2688ZM19.6453 11.0305L20.3288 10.3006L20.3289 10.3007L19.6453 11.0305ZM25.1814 22.7961L24.1834 22.8589L24.1833 22.8578L25.1814 22.7961ZM25.2126 23.5989L26.2125 23.5818L26.2125 23.5822L25.2126 23.5989ZM24.0925 24.7385L24.0926 25.7385H24.0925V24.7385ZM12.0671 19.9778L11.3837 20.7078L11.3835 20.7076L12.0671 19.9778ZM6.53003 8.21118L5.53194 8.27306L5.53191 8.27239L6.53003 8.21118ZM6.49878 7.40942L5.49892 7.42644V7.42642L6.49878 7.40942ZM23.2283 4.55981L23.2281 3.55981H23.2283V4.55981ZM24.4333 5.08521L25.1206 4.35874L25.1207 4.3589L24.4333 5.08521ZM28.2166 6.59106V7.59106H28.2165L28.2166 6.59106ZM31.946 5.13599L32.6236 5.87147L32.6236 5.8715L31.946 5.13599ZM33.2791 4.55981L33.2788 3.55981H33.2791V4.55981ZM34.7224 9.07837L34.0124 8.37418L34.0124 8.37418L34.7224 9.07837ZM28.6697 22.5842L27.6716 22.5231L27.6716 22.5224L28.6697 22.5842ZM28.6306 23.6321L29.6306 23.6433L27.6307 23.6405L28.6306 23.6321ZM28.5925 22.5842L29.5906 22.5224L29.5907 22.5231L28.5925 22.5842ZM21.9988 8.55298L21.3143 9.28205L21.3142 9.28195L21.9988 8.55298ZM33.3669 1.14282V2.14282C33.0165 2.14282 32.5959 2.36503 32.1561 2.84374L31.4197 2.16724L30.6832 1.49074C31.2753 0.846228 32.1922 0.142822 33.3669 0.142822V1.14282ZM31.4197 2.16724L32.1561 2.84372C31.1798 3.90668 29.7751 4.57446 28.2166 4.57446V3.57446V2.57446C29.1925 2.57446 30.07 2.15836 30.6832 1.49076L31.4197 2.16724ZM28.2166 3.57446L28.2165 4.57446C26.6579 4.57446 25.2535 3.90689 24.2769 2.8437L25.0134 2.16724L25.7499 1.49078C26.3632 2.15852 27.2404 2.57446 28.2166 2.57446L28.2166 3.57446ZM25.0134 2.16724L24.2769 2.84361C23.8373 2.36497 23.417 2.14284 23.0671 2.14282L23.0671 1.14282L23.0672 0.142822C24.2417 0.142885 25.1584 0.846669 25.75 1.49087L25.0134 2.16724ZM23.0671 1.14282V2.14282H3.36987V1.14282V0.142822H23.0671V1.14282ZM3.36987 1.14282V2.14282C2.81759 2.14282 2.36987 2.59054 2.36987 3.14282H1.36987H0.369873C0.369873 1.48597 1.71302 0.142822 3.36987 0.142822V1.14282ZM1.36987 3.14282H2.36987V23.3157H1.36987H0.369873V3.14282H1.36987ZM1.36987 23.3157L2.36987 23.3157C2.36988 23.6642 2.58999 24.0827 3.06509 24.5216L2.38647 25.2561L1.70786 25.9906C1.06784 25.3993 0.369892 24.4854 0.369873 23.3157L1.36987 23.3157ZM2.38647 25.2561L3.06511 24.5216C4.12156 25.4978 4.78491 26.8983 4.78491 28.4514H3.78491H2.78491C2.78491 27.4789 2.37157 26.6038 1.70784 25.9906L2.38647 25.2561ZM3.78491 28.4514L4.78491 28.4514C4.78489 30.0045 4.1216 31.4051 3.0651 32.3812L2.38647 31.6467L1.70785 30.9122C2.37157 30.299 2.7849 29.4239 2.78491 28.4514L3.78491 28.4514ZM2.38647 31.6467L3.06509 32.3812C2.58997 32.8202 2.36987 33.2386 2.36987 33.5872H1.36987H0.369873C0.369873 32.4174 1.06785 31.5036 1.70786 30.9122L2.38647 31.6467ZM1.36987 33.5872H2.36987V53.1428H1.36987H0.369873V33.5872H1.36987ZM1.36987 53.1428H2.36987C2.36987 53.6951 2.81759 54.1428 3.36987 54.1428V55.1428V56.1428C1.71302 56.1428 0.369873 54.7997 0.369873 53.1428H1.36987ZM3.36987 55.1428V54.1428H23.6873V55.1428V56.1428H3.36987V55.1428ZM23.6873 55.1428V54.1428C24.0393 54.1428 24.4618 53.9183 24.9023 53.4351L25.6414 54.1086L26.3805 54.7822C25.7883 55.432 24.8683 56.1428 23.6873 56.1428V55.1428ZM25.6414 54.1086L24.9022 53.4351C25.8794 52.3629 27.2904 51.6887 28.8572 51.6887V52.6887V53.6887C27.8755 53.6887 26.994 54.109 26.3805 54.7822L25.6414 54.1086ZM28.8572 52.6887L28.8572 51.6887C30.4239 51.6888 31.835 52.3629 32.8121 53.4351L32.073 54.1086L31.3339 54.7822C30.7204 54.109 29.8388 53.6887 28.8572 53.6887L28.8572 52.6887ZM32.073 54.1086L32.8121 53.435C33.2527 53.9184 33.6746 54.1427 34.0263 54.1428L34.0261 55.1428L34.0259 56.1428C32.845 56.1426 31.9257 55.4316 31.3339 54.7823L32.073 54.1086ZM34.0261 55.1428V54.1428H53.8923V55.1428V56.1428H34.0261V55.1428ZM53.8923 55.1428L53.8923 54.1428C54.4446 54.1428 54.8923 53.695 54.8923 53.1428H55.8923H56.8923C56.8923 54.7997 55.5491 56.1427 53.8924 56.1428L53.8923 55.1428ZM55.8923 53.1428H54.8923V32.9827H55.8923H56.8923V53.1428H55.8923ZM55.8923 32.9827H54.8923C54.8923 32.6305 54.6676 32.2077 54.1836 31.7667L54.8572 31.0276L55.5307 30.2884C56.1806 30.8806 56.8923 31.8009 56.8923 32.9827H55.8923ZM54.8572 31.0276L54.1837 31.7668C53.1115 30.7899 52.4353 29.378 52.4353 27.8108H53.4353H54.4353C54.4353 28.7915 54.8566 29.6742 55.5307 30.2884L54.8572 31.0276ZM53.4353 27.8108L52.4353 27.8108C52.4353 26.2435 53.1111 24.8318 54.1838 23.8547L54.8572 24.594L55.5306 25.3333C54.8563 25.9474 54.4353 26.8297 54.4353 27.8108L53.4353 27.8108ZM54.8572 24.594L54.1838 23.8547C54.6678 23.4139 54.8923 22.9916 54.8923 22.6399H55.8923H56.8923C56.8923 23.8216 56.1803 24.7415 55.5306 25.3333L54.8572 24.594ZM55.8923 22.6399H54.8923V3.14282H55.8923H56.8923V22.6399H55.8923ZM55.8923 3.14282H54.8923C54.8923 2.59064 54.4446 2.14286 53.8923 2.14282L53.8923 1.14282L53.8924 0.142822C55.5491 0.142928 56.8923 1.48595 56.8923 3.14282H55.8923ZM53.8923 1.14282V2.14282H33.3669V1.14282V0.142822H53.8923V1.14282ZM28.6306 32.6438L29.6306 32.6327C29.6343 32.9647 29.6472 33.3008 29.6678 33.6409L28.6697 33.7014L27.6715 33.7619C27.6492 33.3932 27.6348 33.0239 27.6307 32.6549L28.6306 32.6438ZM28.6697 33.7014L29.6678 33.6396C29.9929 38.8911 32.3117 43.5426 35.8437 46.9059L35.1541 47.6301L34.4644 48.3543C30.5815 44.6567 28.0292 39.5378 27.6716 33.7632L28.6697 33.7014ZM35.1541 47.6301L35.8437 46.906C36.8308 47.8462 36.8749 49.3275 36.5598 50.3941C36.2498 51.4432 35.3823 52.7258 33.8835 52.7258V51.7258V50.7258C34.0582 50.7258 34.4319 50.5377 34.6417 49.8274C34.8464 49.1347 34.689 48.5682 34.4644 48.3542L35.1541 47.6301ZM33.8835 51.7258L33.8834 52.7258C33.0949 52.7257 32.4283 52.3548 31.9587 51.9091L32.6472 51.1838L33.3357 50.4586C33.5423 50.6547 33.7399 50.7258 33.8836 50.7258L33.8835 51.7258ZM32.6472 51.1838L31.9586 51.9089C31.1502 51.1412 30.0594 50.6712 28.8572 50.6711L28.8572 49.6711L28.8572 48.6711C30.5923 48.6712 32.1708 49.3522 33.3359 50.4587L32.6472 51.1838ZM28.8572 49.6711V50.6711C27.6665 50.6711 26.5855 51.1315 25.7798 51.8856L25.0964 51.1555L24.4131 50.4254C25.575 49.338 27.1395 48.6711 28.8572 48.6711V49.6711ZM25.0964 51.1555L25.7798 51.8856C25.2935 52.3408 24.6051 52.7258 23.7898 52.7258V51.7258V50.7258C23.9582 50.7258 24.1812 50.6425 24.4131 50.4254L25.0964 51.1555ZM23.7898 51.7258L23.7896 52.7258C22.2382 52.7255 21.3343 51.3805 21.004 50.2794C20.6673 49.1572 20.6978 47.6052 21.6977 46.6156L22.4011 47.3264L23.1045 48.0372C22.8484 48.2906 22.6897 48.9382 22.9196 49.7048C23.156 50.4926 23.5743 50.7258 23.79 50.7258L23.7898 51.7258ZM22.4011 47.3264L21.6977 46.6156C25.0725 43.2758 27.278 38.7325 27.5944 33.6201L28.5925 33.6819L29.5906 33.7437C29.2427 39.365 26.8151 44.3651 23.1045 48.0372L22.4011 47.3264ZM28.5925 33.6819L27.5944 33.6202C27.6149 33.2892 27.627 32.9601 27.6307 32.6325L28.6306 32.6438L29.6306 32.6551C29.6265 33.0168 29.6131 33.3794 29.5906 33.7436L28.5925 33.6819ZM33.1697 31.5471L33.1697 30.5471C37.9001 30.5471 42.4146 32.3357 45.8777 35.5789L45.1941 36.3088L44.5105 37.0387C41.4165 34.1411 37.3902 32.5471 33.1697 32.5471L33.1697 31.5471ZM45.1941 36.3088L45.8778 35.5791C49.3553 38.8369 51.4343 43.2543 51.7293 48.0136L50.7312 48.0754L49.7331 48.1373C49.4697 43.8869 47.6154 39.9474 44.5104 37.0386L45.1941 36.3088ZM50.7312 48.0754L51.7292 48.0127C51.7469 48.2939 51.7584 48.5758 51.7633 48.8581L50.7634 48.8752L49.7636 48.8924C49.7593 48.6417 49.749 48.3902 49.7332 48.1382L50.7312 48.0754ZM50.7634 48.8752L51.7633 48.8581C51.7837 50.0478 50.8283 51.0168 49.6404 51.0168V50.0168V49.0168C49.7122 49.0168 49.7648 48.9623 49.7636 48.8924L50.7634 48.8752ZM49.6404 50.0168L49.6404 51.0168C44.91 51.0168 40.3954 49.2284 36.9333 45.9849L37.6169 45.2551L38.3006 44.5254C41.3936 47.423 45.4198 49.0168 49.6404 49.0168L49.6404 50.0168ZM37.6169 45.2551L36.9335 45.9851C33.4548 42.7282 31.3768 38.3105 31.0818 33.5524L32.0798 33.4905L33.0779 33.4286C33.3414 37.6781 35.1948 41.6175 38.3004 44.5251L37.6169 45.2551ZM32.0798 33.4905L31.0817 33.5516C31.0644 33.2688 31.0536 32.9861 31.0487 32.705L32.0486 32.6877L33.0484 32.6704C33.0528 32.9237 33.0625 33.177 33.078 33.4293L32.0798 33.4905ZM32.0486 32.6877L31.0487 32.7047C31.0286 31.5173 31.9811 30.5471 33.1697 30.5471V31.5471V32.5471C33.0999 32.5471 33.0472 32.6001 33.0484 32.6708L32.0486 32.6877ZM24.0906 31.5276L24.0906 30.5276C25.2798 30.5277 26.2324 31.4982 26.2125 32.686L25.2126 32.6692L24.2128 32.6524C24.214 32.581 24.1609 32.5276 24.0905 32.5276L24.0906 31.5276ZM25.2126 32.6692L26.2125 32.6863C26.2077 32.9663 26.1973 33.2493 26.1794 33.5336L25.1814 33.4709L24.1834 33.4083C24.1991 33.1581 24.2084 32.9057 24.2128 32.6521L25.2126 32.6692ZM25.1814 33.4709L26.1795 33.5326C25.8855 38.291 23.8063 42.7087 20.3288 45.9655L19.6453 45.2356L18.9617 44.5057C22.0665 41.5979 23.9207 37.6585 24.1833 33.4093L25.1814 33.4709ZM19.6453 45.2356L20.3288 45.9655C16.8658 49.2089 12.3512 50.9972 7.62087 50.9973L7.62085 49.9973L7.62083 48.9973C11.8414 48.9972 15.8677 47.4034 18.9617 44.5057L19.6453 45.2356ZM7.62085 49.9973V50.9973C6.43315 50.9973 5.47864 50.0289 5.49892 48.8396L6.49878 48.8567L7.49863 48.8737C7.49744 48.9435 7.54935 48.9973 7.62085 48.9973V49.9973ZM6.49878 48.8567L5.49892 48.8396C5.50372 48.5584 5.51461 48.2767 5.53191 47.9947L6.53003 48.0559L7.52815 48.1171C7.5127 48.3691 7.50294 48.6213 7.49863 48.8737L6.49878 48.8567ZM6.53003 48.0559L5.53194 47.994C5.82695 43.2347 7.90592 38.8173 11.3835 35.5595L12.0671 36.2893L12.7508 37.0191C9.6458 39.9279 7.79158 43.8673 7.52811 48.1178L6.53003 48.0559ZM12.0671 36.2893L11.3835 35.5595C14.8456 32.3161 19.3602 30.5276 24.0906 30.5276V31.5276V32.5276C19.8701 32.5276 15.8438 34.1216 12.7508 37.0191L12.0671 36.2893ZM4.78687 23.4172H3.78687C3.78687 21.8568 5.14034 20.944 6.25159 20.6081C7.38443 20.2657 8.94851 20.2923 9.94944 21.2916L9.24292 21.9993L8.5364 22.707C8.27341 22.4444 7.60947 22.287 6.83026 22.5226C6.02946 22.7646 5.78687 23.1917 5.78687 23.4172H4.78687ZM9.24292 21.9993L9.94958 21.2917C13.3888 24.7265 18.0542 26.9007 23.1713 27.1341L23.1257 28.1331L23.0802 29.132C17.4476 28.8751 12.3155 26.4813 8.53626 22.7068L9.24292 21.9993ZM23.1257 28.1331L23.1712 29.132C17.8604 29.3736 13.0363 31.7065 9.56444 35.3698L8.83862 34.6819L8.11281 33.994C11.9278 29.9687 17.2342 27.4 23.0803 27.1341L23.1257 28.1331ZM8.83862 34.6819L9.56445 35.3698C8.63194 36.3537 7.16049 36.3981 6.10291 36.0865C5.06287 35.7801 3.78687 34.9196 3.78687 33.429H4.78687H5.78687C5.78687 33.5945 5.9671 33.9615 6.66812 34.1681C7.3516 34.3694 7.90603 34.2122 8.1128 33.994L8.83862 34.6819ZM4.78687 33.429L3.78687 33.4288C3.78696 32.6536 4.14796 31.9967 4.58383 31.532L5.31323 32.2161L6.04263 32.9002C5.8542 33.1011 5.78688 33.2917 5.78687 33.4291L4.78687 33.429ZM5.31323 32.2161L4.58383 31.532C5.34 30.7257 5.8015 29.6437 5.80151 28.4514L6.80151 28.4514L7.80151 28.4514C7.80149 30.1715 7.13296 31.7376 6.04264 32.9001L5.31323 32.2161ZM6.80151 28.4514H5.80151C5.80151 27.2757 5.35251 26.207 4.61497 25.4044L5.35132 24.7278L6.08767 24.0512C7.15111 25.2085 7.80151 26.7553 7.80151 28.4514H6.80151ZM5.35132 24.7278L4.61486 25.4043C4.16601 24.9156 3.78696 24.2289 3.78687 23.4174L4.78687 23.4172L5.78687 23.4171C5.78689 23.5894 5.87104 23.8154 6.08777 24.0513L5.35132 24.7278ZM48.4519 21.553L47.7248 20.8665C48.6526 19.8837 50.1176 19.8383 51.1699 20.148C52.205 20.4525 53.4753 21.3096 53.4753 22.7952H52.4753H51.4753C51.4753 22.6336 51.2993 22.2708 50.6054 22.0666C49.9287 21.8675 49.3819 22.0246 49.179 22.2395L48.4519 21.553ZM52.4753 22.7952L53.4753 22.7954C53.4752 23.5759 53.1086 24.2371 52.6646 24.7024L51.9412 24.012L51.2178 23.3215C51.4074 23.1229 51.4753 22.9322 51.4753 22.7949L52.4753 22.7952ZM51.9412 24.012L52.6645 24.7024C51.8919 25.5119 51.4187 26.6055 51.4187 27.8108L50.4187 27.8108L49.4187 27.8108C49.4187 26.0702 50.1048 24.4876 51.2178 23.3215L51.9412 24.012ZM50.4187 27.8108H51.4187C51.4187 28.9988 51.8782 30.0783 52.6309 30.884L51.9001 31.5667L51.1694 32.2493C50.0848 31.0882 49.4187 29.5259 49.4187 27.8108H50.4187ZM51.9001 31.5667L52.631 30.8841C53.0889 31.3744 53.4753 32.0675 53.4753 32.887H52.4753H51.4753C51.4753 32.7131 51.3894 32.4848 51.1693 32.2492L51.9001 31.5667ZM52.4753 32.887L53.4753 32.8872C53.4749 34.4455 52.1237 35.3565 51.0145 35.6913C49.8838 36.0326 48.3226 36.0051 47.3238 35.0061L48.031 34.2991L48.7382 33.5921C48.9995 33.8534 49.6602 34.011 50.4365 33.7766C51.2344 33.5358 51.4753 33.1105 51.4753 32.8867L52.4753 32.887ZM48.031 34.2991L47.3238 35.0061C43.8351 31.5161 39.0819 29.3246 33.8749 29.1422L33.9099 28.1428L33.9449 27.1434C39.676 27.3442 44.9046 29.757 48.7382 33.5921L48.031 34.2991ZM33.9099 28.1428L33.8749 27.1434C39.2843 26.9539 44.2039 24.5959 47.7248 20.8665L48.4519 21.553L49.1791 22.2395C45.3103 26.3375 39.899 28.9336 33.9449 29.1422L33.9099 28.1428ZM28.45 25.4875L28.4501 24.4875C30.4688 24.4877 32.1052 26.1238 32.1052 28.1428H31.1052H30.1052C30.1052 27.2286 29.3643 26.4876 28.4499 26.4875L28.45 25.4875ZM31.1052 28.1428L32.1052 28.1428C32.1052 30.1618 30.4688 31.7979 28.4501 31.7981L28.45 30.7981L28.4499 29.7981C29.3643 29.798 30.1052 29.0571 30.1052 28.1428L31.1052 28.1428ZM28.45 30.7981V31.7981C26.4314 31.7981 24.7937 30.1623 24.7937 28.1428L25.7937 28.1428L26.7937 28.1428C26.7937 29.0568 27.535 29.7981 28.45 29.7981V30.7981ZM25.7937 28.1428H24.7937C24.7937 26.1233 26.4314 24.4875 28.45 24.4875V25.4875V26.4875C27.535 26.4875 26.7937 27.2289 26.7937 28.1428H25.7937ZM49.6394 6.2688V5.2688C50.8279 5.2688 51.7837 6.23825 51.7633 7.4285L50.7634 7.41138L49.7636 7.39425C49.7648 7.32379 49.7119 7.2688 49.6394 7.2688V6.2688ZM50.7634 7.41138L51.7633 7.42854C51.7584 7.7109 51.7469 7.99282 51.7292 8.27392L50.7312 8.21118L49.7332 8.14845C49.749 7.89651 49.7593 7.645 49.7636 7.39422L50.7634 7.41138ZM50.7312 8.21118L51.7293 8.27306C51.4343 13.0314 49.3553 17.4497 45.8778 20.7076L45.1941 19.9778L44.5104 19.248C47.6154 16.3392 49.4697 12.3988 49.7331 8.1493L50.7312 8.21118ZM45.1941 19.9778L45.8775 20.7078C42.4145 23.95 37.9001 25.7385 33.1697 25.7385L33.1697 24.7385L33.1697 23.7385C37.3902 23.7385 41.4166 22.1446 44.5106 19.2478L45.1941 19.9778ZM33.1697 24.7385V25.7385C31.9807 25.7385 31.0286 24.7689 31.0487 23.5809L32.0486 23.5979L33.0484 23.6149C33.0472 23.686 33.0994 23.7385 33.1697 23.7385V24.7385ZM32.0486 23.5979L31.0487 23.5806C31.0536 23.2997 31.0644 23.0172 31.0817 22.7349L32.0798 22.7961L33.078 22.8574C33.0625 23.1091 33.0528 23.3622 33.0484 23.6152L32.0486 23.5979ZM32.0798 22.7961L31.0818 22.7343C31.3768 17.9751 33.4548 13.5586 36.9323 10.3007L37.616 11.0305L38.2996 11.7603C35.1948 14.669 33.3414 18.6076 33.0779 22.858L32.0798 22.7961ZM37.616 11.0305L36.9324 10.3006C40.3954 7.05728 44.9089 5.26887 49.6394 5.2688L49.6394 6.2688L49.6394 7.2688C45.4189 7.26886 41.3936 8.86263 38.2995 11.7604L37.616 11.0305ZM7.62085 6.2688L7.62087 5.2688C12.3512 5.2689 16.8658 7.05726 20.3288 10.3006L19.6453 11.0305L18.9617 11.7604C15.8677 8.86271 11.8414 7.26889 7.62083 7.2688L7.62085 6.2688ZM19.6453 11.0305L20.3289 10.3007C23.8063 13.5584 25.8855 17.9751 26.1795 22.7345L25.1814 22.7961L24.1833 22.8578C23.9207 18.6077 22.0665 14.6691 18.9616 11.7603L19.6453 11.0305ZM25.1814 22.7961L26.1794 22.7334C26.1973 23.0179 26.2077 23.3014 26.2125 23.5818L25.2126 23.5989L24.2128 23.6159C24.2085 23.3618 24.1991 23.109 24.1834 22.8589L25.1814 22.7961ZM25.2126 23.5989L26.2125 23.5822C26.2323 24.7691 25.2812 25.7385 24.0926 25.7385L24.0925 24.7385L24.0925 23.7385C24.162 23.7385 24.214 23.6865 24.2128 23.6156L25.2126 23.5989ZM24.0925 24.7385V25.7385C19.3612 25.7385 14.8467 23.95 11.3837 20.7078L12.0671 19.9778L12.7506 19.2478C15.8446 22.1445 19.871 23.7385 24.0925 23.7385V24.7385ZM12.0671 19.9778L11.3835 20.7076C7.90589 17.4497 5.82695 13.0314 5.53194 8.27306L6.53003 8.21118L7.52811 8.1493C7.79158 12.3988 9.64583 16.3392 12.7508 19.248L12.0671 19.9778ZM6.53003 8.21118L5.53191 8.27239C5.5146 7.99014 5.50372 7.70805 5.49892 7.42644L6.49878 7.40942L7.49863 7.39241C7.50294 7.64526 7.5127 7.89787 7.52815 8.14997L6.53003 8.21118ZM6.49878 7.40942L5.49892 7.42642C5.4787 6.23727 6.4331 5.2688 7.62085 5.2688V6.2688V7.2688C7.5494 7.2688 7.49745 7.32256 7.49863 7.39242L6.49878 7.40942ZM23.2283 4.55981V3.55981C24.0018 3.55981 24.6577 3.92094 25.1206 4.35874L24.4333 5.08521L23.7461 5.81167C23.5496 5.62578 23.3623 5.55981 23.2283 5.55981V4.55981ZM24.4333 5.08521L25.1207 4.3589C25.9287 5.12361 27.0169 5.59106 28.2166 5.59106L28.2166 6.59106L28.2165 7.59106C26.4856 7.59106 24.9107 6.91378 23.746 5.81151L24.4333 5.08521ZM28.2166 6.59106V5.59106C29.3946 5.59106 30.4651 5.14055 31.2685 4.40048L31.946 5.13599L32.6236 5.8715C31.4652 6.93852 29.9158 7.59106 28.2166 7.59106V6.59106ZM31.946 5.13599L31.2685 4.40051C31.7623 3.94561 32.4572 3.56002 33.2788 3.55981L33.2791 4.55981L33.2793 5.55981C33.0997 5.55986 32.8661 5.64803 32.6236 5.87147L31.946 5.13599ZM33.2791 4.55981V3.55981C34.8507 3.55981 35.7726 4.92392 36.1134 6.04733C36.4608 7.19263 36.4356 8.77115 35.4324 9.78256L34.7224 9.07837L34.0124 8.37418C34.2827 8.10163 34.44 7.42087 34.1995 6.62788C33.9523 5.81301 33.5158 5.55981 33.2791 5.55981V4.55981ZM34.7224 9.07837L35.4324 9.78256C32.1323 13.1099 29.9802 17.6009 29.6678 22.646L28.6697 22.5842L27.6716 22.5224C28.0151 16.9752 30.3839 12.0327 34.0124 8.37418L34.7224 9.07837ZM28.6697 22.5842L29.6678 22.6454C29.6472 22.9813 29.6342 23.3143 29.6306 23.6433L28.6306 23.6321L27.6307 23.6208C27.6348 23.2547 27.6492 22.8881 27.6716 22.5231L28.6697 22.5842ZM28.6306 23.6321L27.6307 23.6405C27.6279 23.3133 27.615 22.9814 27.5944 22.6454L28.5925 22.5842L29.5907 22.5231C29.613 22.8881 29.6275 23.2557 29.6306 23.6237L28.6306 23.6321ZM28.5925 22.5842L27.5944 22.646C27.2661 17.3431 24.9047 12.6526 21.3143 9.28205L21.9988 8.55298L22.6832 7.82391C26.6301 11.5292 29.2296 16.691 29.5906 22.5224L28.5925 22.5842ZM21.9988 8.55298L21.3142 9.28195C20.3317 8.35932 20.2837 6.90149 20.5911 5.85403C20.8937 4.82323 21.7477 3.5601 23.2281 3.55981L23.2283 4.55981L23.2285 5.55981C23.0696 5.55984 22.7113 5.73218 22.5102 6.41733C22.3139 7.08582 22.4708 7.62441 22.6833 7.82401L21.9988 8.55298Z" fill="#232323" mask="url(#path-1-outside-1_352_1679)"/>
<path d="M190.679 27.2436C191.377 27.2436 191.99 27.2331 192.519 27.2119C192.727 27.1959 192.921 27.1769 193.102 27.1548C193.563 27.0986 193.882 26.6937 193.882 26.2296V22.7237C193.882 22.3449 193.664 22 193.293 21.9257C193.157 21.8986 193.005 21.874 192.836 21.8519C192.371 21.7673 191.8 21.7251 191.123 21.7251C190.679 21.7251 190.203 21.7568 189.696 21.8202C189.21 21.8836 188.755 22.0211 188.332 22.2325C187.93 22.4228 187.592 22.6977 187.317 23.0571C187.042 23.3954 186.905 23.85 186.905 24.4209C186.905 25.4781 187.243 26.2182 187.92 26.641C188.596 27.0428 189.516 27.2436 190.679 27.2436ZM190.425 12.464C191.609 12.464 192.603 12.6226 193.407 12.9397C194.231 13.2357 194.887 13.6692 195.373 14.2401C195.881 14.7898 196.24 15.4559 196.451 16.2382C196.663 16.9994 196.769 17.8451 196.769 18.7755V28.236C196.769 28.7249 196.415 29.1426 195.934 29.2293C195.856 29.2433 195.775 29.258 195.69 29.2735C195.246 29.3369 194.739 29.4003 194.168 29.4638C193.597 29.5272 192.973 29.58 192.297 29.6223C191.641 29.6858 190.986 29.7175 190.33 29.7175C189.4 29.7175 188.544 29.6223 187.761 29.432C186.979 29.2417 186.302 28.9457 185.731 28.544C185.161 28.1211 184.716 27.5714 184.399 26.8948C184.082 26.2182 183.924 25.4041 183.924 24.4526C183.924 23.5434 184.103 22.7611 184.463 22.1056C184.843 21.4502 185.351 20.9216 185.985 20.5198C186.619 20.1181 187.359 19.8221 188.205 19.6318C189.051 19.4415 189.939 19.3464 190.869 19.3464C191.165 19.3464 191.472 19.3675 191.789 19.4098C192.106 19.4309 192.402 19.4732 192.677 19.5367C192.973 19.5789 193.227 19.6212 193.438 19.6635C193.665 19.7088 193.882 19.5352 193.882 19.3045V18.934C193.882 18.4477 193.83 17.972 193.724 17.5068C193.618 17.0205 193.428 16.5976 193.153 16.2382C192.878 15.8576 192.497 15.5616 192.011 15.3501C191.546 15.1176 190.933 15.0013 190.172 15.0013C189.199 15.0013 188.343 15.0753 187.603 15.2233C187.47 15.2467 187.343 15.2705 187.223 15.2946C186.583 15.4228 185.896 15.0084 185.803 14.3628L185.743 13.9417C185.68 13.499 185.92 13.0694 186.354 12.9587C186.679 12.8755 187.075 12.7952 187.539 12.7177C188.427 12.5486 189.389 12.464 190.425 12.464Z" fill="#232323"/>
<path d="M175.096 11.8763C175.096 12.4286 175.543 12.8763 176.096 12.8763H180.344C180.896 12.8763 181.344 13.324 181.344 13.8763V14.3501C181.344 14.9024 180.896 15.3501 180.344 15.3501H176.096C175.543 15.3501 175.096 15.7979 175.096 16.3501V22.962C175.096 23.7866 175.159 24.4738 175.286 25.0235C175.413 25.5521 175.603 25.975 175.857 26.2922C176.11 26.5882 176.428 26.7996 176.808 26.9265C177.189 27.0533 177.633 27.1168 178.14 27.1168C179.028 27.1168 179.737 27.0216 180.265 26.8313C180.285 26.8239 180.304 26.8165 180.323 26.8092C180.894 26.5893 181.533 26.9242 181.672 27.5203L181.798 28.0605C181.904 28.5113 181.683 28.9706 181.243 29.1174C181.01 29.1955 180.737 29.2792 180.424 29.3686C179.684 29.6012 178.838 29.7175 177.887 29.7175C176.766 29.7175 175.836 29.58 175.096 29.3052C174.377 29.0092 173.795 28.5757 173.351 28.0048C172.907 27.4339 172.59 26.7362 172.4 25.9116C172.231 25.0658 172.146 24.0932 172.146 22.9937V9.12012C172.146 8.63326 172.497 8.21715 172.976 8.1346L173.926 7.97123C174.537 7.8661 175.096 8.3367 175.096 8.95675V11.8763Z" fill="#232323"/>
<path d="M168.186 21.1225C168.186 22.4334 167.996 23.6174 167.615 24.6746C167.235 25.7318 166.696 26.641 165.998 27.4022C165.321 28.1634 164.507 28.7554 163.556 29.1783C162.604 29.58 161.568 29.7809 160.448 29.7809C159.327 29.7809 158.291 29.58 157.34 29.1783C156.388 28.7554 155.563 28.1634 154.866 27.4022C154.189 26.641 153.66 25.7318 153.28 24.6746C152.899 23.6174 152.709 22.4334 152.709 21.1225C152.709 19.8327 152.899 18.6592 153.28 17.602C153.66 16.5236 154.189 15.6039 154.866 14.8427C155.563 14.0815 156.388 13.5 157.34 13.0983C158.291 12.6754 159.327 12.464 160.448 12.464C161.568 12.464 162.604 12.6754 163.556 13.0983C164.507 13.5 165.321 14.0815 165.998 14.8427C166.696 15.6039 167.235 16.5236 167.615 17.602C167.996 18.6592 168.186 19.8327 168.186 21.1225ZM165.11 21.1225C165.11 19.2618 164.687 17.7923 163.841 16.7139C163.017 15.6144 161.885 15.0647 160.448 15.0647C159.01 15.0647 157.868 15.6144 157.022 16.7139C156.198 17.7923 155.785 19.2618 155.785 21.1225C155.785 22.9831 156.198 24.4632 157.022 25.5627C157.868 26.641 159.01 27.1802 160.448 27.1802C161.885 27.1802 163.017 26.641 163.841 25.5627C164.687 24.4632 165.11 22.9831 165.11 21.1225Z" fill="#232323"/>
<path d="M146.456 29.7492C145.124 29.7492 143.951 29.5378 142.936 29.1149C141.942 28.692 141.096 28.1 140.398 27.3388C139.722 26.5776 139.214 25.679 138.876 24.6429C138.538 23.5857 138.369 22.4228 138.369 21.1542C138.369 19.8855 138.548 18.7226 138.908 17.6654C139.288 16.6082 139.817 15.699 140.494 14.9378C141.17 14.1555 141.995 13.5529 142.967 13.13C143.961 12.686 145.061 12.464 146.266 12.464C147.006 12.464 147.746 12.5274 148.486 12.6543C148.929 12.7302 149.361 12.8327 149.781 12.9617C150.262 13.1095 150.514 13.6218 150.385 14.1086L150.254 14.5988C150.094 15.2037 149.418 15.5167 148.813 15.3561C148.677 15.3198 148.536 15.2861 148.391 15.255C147.82 15.1281 147.207 15.0647 146.551 15.0647C144.902 15.0647 143.634 15.5827 142.745 16.6188C141.879 17.6548 141.445 19.1666 141.445 21.1542C141.445 22.0422 141.54 22.8563 141.731 23.5963C141.942 24.3363 142.259 24.9707 142.682 25.4993C143.126 26.0279 143.686 26.4402 144.363 26.7362C145.04 27.0111 145.864 27.1485 146.837 27.1485C147.619 27.1485 148.327 27.0745 148.962 26.9265C149.044 26.9073 149.124 26.8879 149.202 26.8684C149.844 26.7065 150.561 27.0997 150.67 27.7535L150.755 28.266C150.821 28.6647 150.639 29.0643 150.258 29.1996C150.218 29.2137 150.177 29.2277 150.135 29.2417C149.818 29.3263 149.459 29.4003 149.057 29.4638C148.655 29.5483 148.222 29.6118 147.757 29.6541C147.313 29.7175 146.879 29.7492 146.456 29.7492Z" fill="#232323"/>
<path d="M128.3 27.2436C128.998 27.2436 129.611 27.2331 130.14 27.2119C130.348 27.1959 130.542 27.1769 130.723 27.1548C131.184 27.0986 131.503 26.6937 131.503 26.2296V22.7237C131.503 22.3449 131.285 22 130.914 21.9257C130.778 21.8986 130.626 21.874 130.457 21.8519C129.992 21.7673 129.421 21.7251 128.744 21.7251C128.3 21.7251 127.824 21.7568 127.317 21.8202C126.831 21.8836 126.376 22.0211 125.953 22.2325C125.551 22.4228 125.213 22.6977 124.938 23.0571C124.663 23.3954 124.526 23.85 124.526 24.4209C124.526 25.4781 124.864 26.2182 125.541 26.641C126.217 27.0428 127.137 27.2436 128.3 27.2436ZM128.046 12.464C129.231 12.464 130.224 12.6226 131.028 12.9397C131.852 13.2357 132.508 13.6692 132.994 14.2401C133.502 14.7898 133.861 15.4559 134.072 16.2382C134.284 16.9994 134.39 17.8451 134.39 18.7755V28.236C134.39 28.7249 134.036 29.1426 133.555 29.2293C133.477 29.2433 133.396 29.258 133.311 29.2735C132.867 29.3369 132.36 29.4003 131.789 29.4638C131.218 29.5272 130.594 29.58 129.918 29.6223C129.262 29.6858 128.607 29.7175 127.951 29.7175C127.021 29.7175 126.165 29.6223 125.382 29.432C124.6 29.2417 123.923 28.9457 123.352 28.544C122.782 28.1211 122.338 27.5714 122.02 26.8948C121.703 26.2182 121.545 25.4041 121.545 24.4526C121.545 23.5434 121.724 22.7611 122.084 22.1056C122.464 21.4502 122.972 20.9216 123.606 20.5198C124.241 20.1181 124.981 19.8221 125.826 19.6318C126.672 19.4415 127.56 19.3464 128.49 19.3464C128.786 19.3464 129.093 19.3675 129.41 19.4098C129.727 19.4309 130.023 19.4732 130.298 19.5367C130.594 19.5789 130.848 19.6212 131.059 19.6635C131.286 19.7088 131.503 19.5352 131.503 19.3045V18.934C131.503 18.4477 131.451 17.972 131.345 17.5068C131.239 17.0205 131.049 16.5976 130.774 16.2382C130.499 15.8576 130.119 15.5616 129.632 15.3501C129.167 15.1176 128.554 15.0013 127.793 15.0013C126.82 15.0013 125.964 15.0753 125.224 15.2233C125.091 15.2467 124.964 15.2705 124.844 15.2946C124.205 15.4228 123.517 15.0084 123.424 14.3628L123.364 13.9417C123.301 13.499 123.542 13.0694 123.975 12.9587C124.301 12.8755 124.696 12.7952 125.16 12.7177C126.048 12.5486 127.01 12.464 128.046 12.464Z" fill="#232323"/>
<path d="M116.573 12.5273C116.827 12.5273 117.113 12.5485 117.43 12.5908C117.768 12.6119 118.096 12.6542 118.413 12.7176C118.73 12.7599 119.015 12.8128 119.269 12.8762C119.617 12.9298 119.821 13.2621 119.752 13.6078L119.59 14.4273C119.472 15.029 118.834 15.4115 118.232 15.2946C118.218 15.2919 118.205 15.2893 118.191 15.2866C117.662 15.1598 116.975 15.0963 116.129 15.0963C115.58 15.0963 115.03 15.1598 114.48 15.2866C114.379 15.3069 114.284 15.3259 114.197 15.3438C113.747 15.4353 113.433 15.8306 113.433 16.2894V28.3685C113.433 28.9208 112.986 29.3685 112.433 29.3685H111.484C110.932 29.3685 110.484 28.9208 110.484 28.3685V14.2744C110.484 13.8539 110.746 13.4757 111.149 13.354C111.71 13.1843 112.356 13.025 113.085 12.8762C114.121 12.6436 115.284 12.5273 116.573 12.5273Z" fill="#232323"/>
<path d="M104.339 12.5273C104.593 12.5273 104.878 12.5485 105.196 12.5908C105.534 12.6119 105.862 12.6542 106.179 12.7176C106.496 12.7599 106.781 12.8128 107.035 12.8762C107.383 12.9298 107.587 13.2621 107.518 13.6078L107.356 14.4273C107.238 15.029 106.6 15.4115 105.998 15.2946C105.984 15.2919 105.971 15.2893 105.957 15.2866C105.428 15.1598 104.741 15.0963 103.895 15.0963C103.345 15.0963 102.796 15.1598 102.246 15.2866C102.145 15.3069 102.05 15.3259 101.962 15.3438C101.513 15.4353 101.199 15.8306 101.199 16.2894V28.3685C101.199 28.9208 100.752 29.3685 100.199 29.3685H99.2498C98.6975 29.3685 98.2498 28.9208 98.2498 28.3685V14.2744C98.2498 13.8539 98.512 13.4757 98.9145 13.354C99.4761 13.1843 100.121 13.025 100.85 12.8762C101.887 12.6436 103.049 12.5273 104.339 12.5273Z" fill="#232323"/>
<path d="M79.6138 21.1542C79.6138 19.6952 79.8252 18.4266 80.2481 17.3483C80.671 16.2488 81.2313 15.3396 81.929 14.6207C82.6268 13.9018 83.4303 13.3626 84.3394 13.0032C85.2486 12.6437 86.179 12.464 87.1305 12.464C89.3506 12.464 91.0527 13.1617 92.2367 14.5572C93.4208 15.9316 94.0128 18.0354 94.0128 20.8687C94.0128 20.9956 94.0128 21.1647 94.0128 21.3762C94.0128 21.6849 93.7494 21.9154 93.4407 21.9154H83.767C83.1856 21.9154 82.7193 22.4116 82.8271 22.9829C83.0529 24.1787 83.5041 25.1232 84.1809 25.8164C85.0478 26.7045 86.401 27.1485 88.2405 27.1485C89.2766 27.1485 90.1435 27.0639 90.8412 26.8948C90.9713 26.8603 91.0955 26.8262 91.2138 26.7925C91.8513 26.6107 92.5669 27.0045 92.6759 27.6584L92.7526 28.1185C92.8233 28.5431 92.6123 28.9641 92.2032 29.0979C91.8721 29.2062 91.4604 29.3176 90.9681 29.432C90.08 29.6435 89.0651 29.7492 87.9234 29.7492C86.4856 29.7492 85.2381 29.5378 84.1809 29.1149C83.1448 28.6709 82.2885 28.0683 81.6119 27.3071C80.9353 26.5459 80.4278 25.6473 80.0895 24.6112C79.7723 23.554 79.6138 22.4017 79.6138 21.1542ZM89.9521 19.5367C90.4982 19.5367 90.9547 19.0959 90.881 18.5548C90.7592 17.6592 90.4393 16.8976 89.9215 16.2699C89.2449 15.403 88.3039 14.9696 87.0987 14.9696C86.4221 14.9696 85.8195 15.107 85.2909 15.3819C84.7835 15.6356 84.35 15.9739 83.9906 16.3968C83.6311 16.8197 83.3457 17.306 83.1342 17.8557C83.0674 18.0489 83.0084 18.2433 82.9572 18.4391C82.8063 19.0157 83.2749 19.5367 83.8709 19.5367H89.9521Z" fill="#232323"/>
<path d="M70.8417 11.8763C70.8417 12.4286 71.2894 12.8763 71.8417 12.8763H76.0897C76.642 12.8763 77.0897 13.324 77.0897 13.8763V14.3501C77.0897 14.9024 76.642 15.3501 76.0897 15.3501H71.8417C71.2894 15.3501 70.8417 15.7979 70.8417 16.3501V22.962C70.8417 23.7866 70.9051 24.4738 71.032 25.0235C71.1588 25.5521 71.3491 25.975 71.6029 26.2922C71.8566 26.5882 72.1737 26.7996 72.5543 26.9265C72.9349 27.0533 73.379 27.1168 73.8864 27.1168C74.7745 27.1168 75.4828 27.0216 76.0114 26.8313C76.0308 26.8239 76.0499 26.8165 76.0689 26.8092C76.6402 26.5893 77.2787 26.9242 77.418 27.5203L77.5443 28.0605C77.6497 28.5113 77.4287 28.9706 76.9896 29.1174C76.7561 29.1955 76.4829 29.2792 76.17 29.3686C75.4299 29.6012 74.5842 29.7175 73.6327 29.7175C72.5121 29.7175 71.5817 29.58 70.8417 29.3052C70.1228 29.0092 69.5413 28.5757 69.0973 28.0048C68.6533 27.4339 68.3361 26.7362 68.1458 25.9116C67.9767 25.0658 67.8921 24.0932 67.8921 22.9937V9.12012C67.8921 8.63326 68.2427 8.21715 68.7225 8.1346L69.6721 7.97123C70.2832 7.8661 70.8417 8.3367 70.8417 8.95675V11.8763Z" fill="#232323"/>
<path d="M106.484 35.7809C106.828 35.7809 107.108 36.0603 107.108 36.405V45.4862C107.108 45.8309 106.828 46.1103 106.484 46.1103C106.139 46.1103 105.86 45.8309 105.86 45.4862V36.405C105.86 36.0603 106.139 35.7809 106.484 35.7809Z" fill="#232323"/>
<path d="M103.828 45.5563C103.828 45.8622 103.58 46.1103 103.274 46.1103C103.153 46.1103 103.055 46.0916 102.98 46.0542C102.905 46.0168 102.856 45.9373 102.833 45.8157C102.77 45.5227 102.413 45.4061 102.176 45.5891C102.166 45.5969 102.156 45.6047 102.145 45.6124C101.968 45.7433 101.781 45.8555 101.584 45.949C101.388 46.0378 101.178 46.1056 100.953 46.1523C100.734 46.1991 100.488 46.2225 100.217 46.2225C99.9411 46.2225 99.6817 46.1851 99.4386 46.1103C99.2001 46.0308 98.9921 45.9139 98.8145 45.7596C98.6368 45.6054 98.4942 45.4113 98.3867 45.1776C98.2838 44.9392 98.2324 44.6587 98.2324 44.3361C98.2324 44.0556 98.3096 43.7868 98.4638 43.5297C98.6181 43.2679 98.8659 43.0364 99.2072 42.8354C99.5531 42.6344 100.004 42.4708 100.561 42.3445C100.984 42.2448 101.48 42.1777 102.048 42.1431C102.355 42.1243 102.601 41.8742 102.601 41.5662C102.601 41.0145 102.482 40.5984 102.244 40.3179C102.01 40.0328 101.662 39.8902 101.199 39.8902C100.895 39.8902 100.638 39.9299 100.427 40.0094C100.222 40.0842 100.042 40.1707 99.8874 40.2688C99.7378 40.3623 99.6069 40.4488 99.4947 40.5283C99.3871 40.6031 99.2796 40.6405 99.1721 40.6405C99.0879 40.6405 99.0131 40.6195 98.9477 40.5774C98.8869 40.5306 98.8378 40.4745 98.8004 40.4091C98.6682 40.1736 98.7089 39.875 98.9209 39.7076C99.2135 39.4766 99.5217 39.2943 99.8453 39.1609C100.299 38.9739 100.801 38.8804 101.353 38.8804C101.75 38.8804 102.103 38.9458 102.412 39.0767C102.72 39.2076 102.98 39.3899 103.19 39.6237C103.401 39.8574 103.56 40.1403 103.667 40.4722C103.775 40.8041 103.828 41.1688 103.828 41.5662V45.5563ZM100.589 45.3459C100.808 45.3459 101.009 45.3249 101.192 45.2828C101.374 45.236 101.545 45.1729 101.704 45.0934C101.867 45.0093 102.022 44.9088 102.166 44.7919C102.217 44.7522 102.268 44.7106 102.317 44.6672C102.509 44.5 102.601 44.2508 102.601 43.9967V43.9456C102.601 43.3806 102.132 42.9187 101.571 42.9868C101.416 43.0056 101.271 43.0276 101.136 43.0528C100.734 43.1229 100.406 43.2164 100.154 43.3333C99.9014 43.4502 99.7167 43.5881 99.5999 43.747C99.4877 43.906 99.4316 44.0836 99.4316 44.28C99.4316 44.467 99.4619 44.6283 99.5227 44.7639C99.5835 44.8994 99.6653 45.0116 99.7682 45.1005C99.871 45.1846 99.9926 45.2477 100.133 45.2898C100.273 45.3272 100.425 45.3459 100.589 45.3459Z" fill="#232323"/>
<path d="M95.5317 46.2224C94.9707 46.2224 94.5382 46.0658 94.2344 45.7526C93.9352 45.4394 93.7856 44.9882 93.7856 44.3992V40.907C93.7856 40.4345 93.4025 40.0514 92.93 40.0514C92.8552 40.0514 92.7921 40.0304 92.7407 39.9883C92.6893 39.9416 92.6636 39.8715 92.6636 39.778C92.6636 39.4934 92.8752 39.2533 93.1575 39.2176L93.2842 39.2016C93.6044 39.161 93.8569 38.9096 93.8988 38.5896L94.1152 36.9379C94.1245 36.8678 94.1549 36.8117 94.2063 36.7696C94.2577 36.7228 94.3232 36.6995 94.4027 36.6995C94.7512 36.6995 95.0338 36.982 95.0338 37.3306V38.1468C95.0338 38.6991 95.4815 39.1468 96.0338 39.1468H96.6151C96.8649 39.1468 97.0674 39.3493 97.0674 39.5991C97.0674 39.8489 96.8649 40.0514 96.6151 40.0514H96.0338C95.4815 40.0514 95.0338 40.4992 95.0338 41.0514V44.315C95.0338 44.6142 95.1063 44.8363 95.2512 44.9812C95.3961 45.1262 95.5831 45.1986 95.8122 45.1986C95.9431 45.1986 96.0553 45.1823 96.1488 45.1495C96.247 45.1121 96.3311 45.0724 96.4012 45.0303C96.4714 44.9882 96.5298 44.9508 96.5765 44.9181C96.628 44.8807 96.6724 44.862 96.7098 44.862C96.7752 44.862 96.8337 44.9018 96.8851 44.9812C97.0974 45.3282 97.0399 45.7911 96.6732 45.9672C96.6082 45.9984 96.541 46.0274 96.4714 46.0541C96.1675 46.1663 95.8543 46.2224 95.5317 46.2224Z" fill="#232323"/>
<path d="M90.5548 39.0066C90.8995 39.0066 91.1789 39.286 91.1789 39.6307V45.4862C91.1789 45.8308 90.8995 46.1103 90.5548 46.1103C90.2101 46.1103 89.9307 45.8308 89.9307 45.4862V39.6307C89.9307 39.286 90.2101 39.0066 90.5548 39.0066ZM91.4594 36.7766C91.4594 36.8982 91.4337 37.0127 91.3823 37.1202C91.3355 37.2231 91.2701 37.3166 91.1859 37.4007C91.1064 37.4802 91.0129 37.5433 90.9054 37.5901C90.7979 37.6368 90.6833 37.6602 90.5618 37.6602C90.4402 37.6602 90.3257 37.6368 90.2182 37.5901C90.1153 37.5433 90.0218 37.4802 89.9377 37.4007C89.8582 37.3166 89.7951 37.2231 89.7483 37.1202C89.7016 37.0127 89.6782 36.8982 89.6782 36.7766C89.6782 36.6551 89.7016 36.5405 89.7483 36.433C89.7951 36.3208 89.8582 36.225 89.9377 36.1455C90.0218 36.0614 90.1153 35.9959 90.2182 35.9492C90.3257 35.9024 90.4402 35.879 90.5618 35.879C90.6833 35.879 90.7979 35.9024 90.9054 35.9492C91.0129 35.9959 91.1064 36.0614 91.1859 36.1455C91.2701 36.225 91.3355 36.3208 91.3823 36.433C91.4337 36.5405 91.4594 36.6551 91.4594 36.7766Z" fill="#232323"/>
<path d="M82.6764 48.5155C82.3317 48.5155 82.0522 48.2361 82.0522 47.8914V39.7499C82.0522 39.3394 82.385 39.0066 82.7956 39.0066C82.9732 39.0066 83.0854 39.0931 83.1322 39.2661C83.1719 39.5839 83.5886 39.7118 83.8399 39.513C83.9786 39.4033 84.1237 39.3046 84.2752 39.217C84.6679 38.9926 85.119 38.8804 85.6286 38.8804C86.0353 38.8804 86.4047 38.9598 86.7366 39.1188C87.0685 39.2731 87.3514 39.5045 87.5851 39.813C87.8189 40.1169 87.9988 40.4956 88.1251 40.9491C88.2513 41.4025 88.3144 41.9238 88.3144 42.5128C88.3144 43.0364 88.2443 43.525 88.104 43.9785C87.9638 44.4273 87.7628 44.8176 87.501 45.1495C87.2392 45.4768 86.9166 45.7363 86.5332 45.9279C86.1546 46.1149 85.7268 46.2084 85.2499 46.2084C84.8105 46.2084 84.4342 46.136 84.1209 45.991C83.7928 45.8369 83.3005 46.0451 83.3005 46.4076V47.8914C83.3005 48.2361 83.021 48.5155 82.6764 48.5155ZM85.2149 39.8902C84.8082 39.8902 84.4505 39.9837 84.142 40.1707C83.9198 40.3074 83.71 40.4854 83.5128 40.7047C83.3676 40.8661 83.3005 41.0805 83.3005 41.2976V44.0686C83.3005 44.2833 83.3645 44.4971 83.5126 44.6526C83.6817 44.8301 83.8611 44.9631 84.0508 45.0514C84.3266 45.1776 84.6328 45.2407 84.9694 45.2407C85.6286 45.2407 86.1359 45.0046 86.4912 44.5324C86.8465 44.0603 87.0241 43.3871 87.0241 42.5128C87.0241 42.05 86.982 41.6526 86.8979 41.3207C86.8184 40.9888 86.7015 40.7176 86.5473 40.5073C86.393 40.2922 86.2036 40.1356 85.9792 40.0374C85.7548 39.9393 85.5001 39.8902 85.2149 39.8902Z" fill="#232323"/>
<path d="M80.1612 45.5563C80.1612 45.8622 79.9131 46.1103 79.6072 46.1103C79.4856 46.1103 79.3874 46.0916 79.3126 46.0542C79.2378 46.0168 79.1888 45.9373 79.1654 45.8157C79.103 45.5227 78.7457 45.4061 78.5085 45.5891C78.4984 45.5969 78.4883 45.6047 78.4782 45.6124C78.3005 45.7433 78.1135 45.8555 77.9172 45.949C77.7208 46.0378 77.5104 46.1056 77.286 46.1523C77.0663 46.1991 76.8209 46.2225 76.5497 46.2225C76.2739 46.2225 76.0144 46.1851 75.7713 46.1103C75.5329 46.0308 75.3249 45.9139 75.1472 45.7596C74.9696 45.6054 74.827 45.4113 74.7195 45.1776C74.6166 44.9392 74.5652 44.6587 74.5652 44.3361C74.5652 44.0556 74.6423 43.7868 74.7966 43.5297C74.9509 43.2679 75.1986 43.0364 75.5399 42.8354C75.8859 42.6344 76.337 42.4708 76.8933 42.3445C77.3171 42.2448 77.8128 42.1777 78.3804 42.1431C78.6879 42.1243 78.934 41.8742 78.934 41.5662C78.934 41.0145 78.8148 40.5984 78.5763 40.3179C78.3426 40.0328 77.9943 39.8902 77.5315 39.8902C77.2276 39.8902 76.9705 39.9299 76.7601 40.0094C76.5544 40.0842 76.3744 40.1707 76.2201 40.2688C76.0705 40.3623 75.9396 40.4488 75.8274 40.5283C75.7199 40.6031 75.6124 40.6405 75.5049 40.6405C75.4207 40.6405 75.3459 40.6195 75.2805 40.5774C75.2197 40.5306 75.1706 40.4745 75.1332 40.4091C75.001 40.1736 75.0417 39.875 75.2536 39.7076C75.5463 39.4766 75.8544 39.2943 76.1781 39.1609C76.6315 38.9739 77.1341 38.8804 77.6857 38.8804C78.0831 38.8804 78.4361 38.9458 78.7446 39.0767C79.0532 39.2076 79.3126 39.3899 79.523 39.6237C79.7334 39.8574 79.8923 40.1403 79.9999 40.4722C80.1074 40.8041 80.1612 41.1688 80.1612 41.5662V45.5563ZM76.9214 45.3459C77.1411 45.3459 77.3421 45.3249 77.5245 45.2828C77.7068 45.236 77.8774 45.1729 78.0364 45.0934C78.2 45.0093 78.3543 44.9088 78.4992 44.7919C78.55 44.7522 78.6003 44.7106 78.65 44.6672C78.8413 44.5 78.934 44.2508 78.934 43.9967V43.9456C78.934 43.3806 78.4648 42.9187 77.9039 42.9868C77.7489 43.0056 77.6037 43.0276 77.4684 43.0528C77.0663 43.1229 76.7391 43.2164 76.4866 43.3333C76.2342 43.4502 76.0495 43.5881 75.9326 43.747C75.8204 43.906 75.7643 44.0836 75.7643 44.28C75.7643 44.467 75.7947 44.6283 75.8555 44.7639C75.9163 44.8994 75.9981 45.0116 76.1009 45.1005C76.2038 45.1846 76.3253 45.2477 76.4656 45.2898C76.6058 45.3272 76.7578 45.3459 76.9214 45.3459Z" fill="#232323"/>
<path d="M73.2426 40.2689C73.2052 40.3203 73.1678 40.36 73.1304 40.3881C73.093 40.4161 73.0393 40.4301 72.9691 40.4301C72.899 40.4301 72.8219 40.4021 72.7377 40.346C72.6583 40.2852 72.5554 40.2198 72.4292 40.1496C72.303 40.0795 72.1487 40.0164 71.9664 39.9603C71.7887 39.8995 71.569 39.8691 71.3072 39.8691C70.9612 39.8691 70.655 39.9323 70.3885 40.0585C70.1221 40.18 69.8977 40.3577 69.7153 40.5914C69.5377 40.8252 69.4021 41.108 69.3086 41.4399C69.2198 41.7719 69.1754 42.1435 69.1754 42.5549C69.1754 42.985 69.2245 43.3684 69.3226 43.705C69.4208 44.0369 69.5587 44.3174 69.7364 44.5465C69.914 44.7709 70.1291 44.9439 70.3815 45.0654C70.6387 45.1823 70.9262 45.2407 71.2441 45.2407C71.5479 45.2407 71.7981 45.2057 71.9944 45.1355C72.1908 45.0607 72.3544 44.9789 72.4853 44.8901C72.6162 44.8013 72.7237 44.7218 72.8079 44.6517C72.892 44.5769 72.9762 44.5395 73.0603 44.5395C73.1678 44.5395 73.2473 44.5792 73.2987 44.6587C73.5042 44.9258 73.5053 45.3084 73.243 45.5199C73.0206 45.6992 72.7704 45.8422 72.4923 45.949C72.0295 46.122 71.5409 46.2084 71.0267 46.2084C70.5826 46.2084 70.1688 46.1266 69.7855 45.963C69.4068 45.7994 69.0772 45.5633 68.7967 45.2547C68.5162 44.9415 68.2941 44.5582 68.1305 44.1047C67.9716 43.6512 67.8921 43.1346 67.8921 42.5549C67.8921 42.0267 67.9646 41.5381 68.1095 41.0893C68.2591 40.6405 68.4741 40.2548 68.7546 39.9323C69.0398 39.605 69.3904 39.3502 69.8065 39.1679C70.2226 38.9856 70.6994 38.8944 71.2371 38.8944C71.7326 38.8944 72.1721 38.9762 72.5554 39.1398C72.7657 39.227 72.9626 39.3346 73.1462 39.4626C73.4089 39.6458 73.4322 40.0107 73.2426 40.2689Z" fill="#232323"/>
</svg>
