<svg width="25" height="32" viewBox="0 0 25 32" fill="none" xmlns="http://www.w3.org/2000/svg">
<path d="M15.9756 31.1344C15.5615 31.1317 15.1548 31.0246 14.7931 30.823C14.4313 30.6214 14.1263 30.3318 13.9062 29.981C11.5138 26.2208 9.36056 22.3138 7.45917 18.283L6.74411 18.1083C6.04538 17.9173 5.40159 17.5641 4.86508 17.0774C4.32857 16.5907 3.91449 15.9842 3.6565 15.3074L0.559012 7.17636C0.309844 6.53287 0.209178 5.84142 0.264523 5.1536C0.319868 4.46578 0.529796 3.79932 0.878647 3.20395L1.27078 2.52843C1.41223 2.28642 1.61491 2.08592 1.85844 1.94709C2.10196 1.80827 2.37774 1.736 2.65806 1.73757H2.67783C2.9623 1.73917 3.24124 1.81628 3.48614 1.96103C3.73104 2.10577 3.93311 2.31295 4.0717 2.56138L18.1488 27.5459C18.3048 27.8221 18.4021 28.1275 18.4347 28.443C18.4673 28.7585 18.4345 29.0774 18.3383 29.3797C18.1509 29.9867 17.7382 30.4991 17.185 30.8114C16.8166 31.022 16.3999 31.1333 15.9756 31.1344ZM2.65806 2.97329C2.59328 2.97249 2.52945 2.98884 2.47302 3.02066C2.4166 3.05249 2.3696 3.09867 2.33677 3.15453L1.94629 3.82675C1.69047 4.26337 1.53669 4.75219 1.49646 5.25664C1.45623 5.76108 1.53059 6.26809 1.71398 6.73974L4.81312 14.8724C5.00072 15.3673 5.3027 15.8108 5.69442 16.1667C6.08613 16.5227 6.55648 16.7809 7.06704 16.9204L8.0556 17.1807C8.142 17.2038 8.22244 17.2452 8.2915 17.3021C8.36056 17.3589 8.41664 17.4299 8.45597 17.5102C10.3683 21.5785 12.5365 25.5214 14.9475 29.3154C15.1118 29.5833 15.3735 29.7772 15.6777 29.8561C15.9819 29.9351 16.3048 29.8931 16.5786 29.7388C16.859 29.5842 17.0682 29.3266 17.1619 29.0205C17.2072 28.8785 17.2227 28.7286 17.2074 28.5803C17.1921 28.4321 17.1463 28.2885 17.0729 28.1588L2.99581 3.171C2.9645 3.10905 2.91598 3.05744 2.85607 3.02237C2.79616 2.9873 2.72741 2.97026 2.65806 2.97329Z" fill="white"/>
<path d="M2.6796 1.48755L2.80264 1.49243C3.08816 1.51305 3.36576 1.59921 3.61319 1.74536C3.89582 1.9124 4.12884 2.15214 4.28897 2.43872L18.3671 27.4231L18.4843 27.6584C18.5892 27.8991 18.6564 28.1551 18.6835 28.4172C18.7196 28.7669 18.6836 29.1204 18.5771 29.4553L18.5761 29.4543C18.3697 30.1219 17.9169 30.686 17.3085 31.0295L17.3075 31.0286C16.9019 31.2601 16.4435 31.3828 15.9765 31.384H15.9745C15.5184 31.3811 15.0702 31.2633 14.6718 31.0413C14.2738 30.8195 13.9376 30.5013 13.6952 30.1155L12.8075 28.6946C10.7828 25.3988 8.93956 21.9945 7.28506 18.4973L6.68448 18.3508L6.67862 18.3499C5.94201 18.1485 5.26279 17.776 4.69717 17.2629C4.20227 16.814 3.80662 16.2678 3.53311 15.6604L3.42276 15.3967L0.325103 7.26489C0.0631595 6.58721 -0.042669 5.85826 0.0155332 5.13403C0.0665968 4.49942 0.242559 3.88165 0.532135 3.31665L0.662994 3.07739L1.0546 2.40259L1.12003 2.30005C1.27836 2.06588 1.48875 1.87026 1.73526 1.72974C2.01638 1.56958 2.33459 1.48697 2.65811 1.48853L2.6796 1.48755ZM2.48038 1.99829C2.30567 2.02038 2.13631 2.07653 1.98233 2.16431C1.77705 2.28135 1.6065 2.45055 1.48721 2.65454L1.48624 2.65356L1.09463 3.32935C0.76481 3.89224 0.565906 4.52376 0.51358 5.17407C0.467867 5.74292 0.535593 6.31428 0.710846 6.85571L0.7919 7.08618L0.792877 7.08716L3.89053 15.218L3.98819 15.4553C4.23348 16.0001 4.58927 16.4891 5.03311 16.8918C5.53881 17.3506 6.14536 17.6844 6.80362 17.8655L7.63467 18.0686L7.68545 18.176C9.3452 21.6945 11.1973 25.1188 13.2333 28.4329L14.1171 29.8469L14.1181 29.8479L14.1962 29.9641C14.3855 30.2273 14.6307 30.4463 14.9149 30.6047C15.2397 30.7857 15.6048 30.8805 15.9765 30.8831C16.357 30.8818 16.7311 30.7828 17.0614 30.594L17.2431 30.4797C17.6496 30.1959 17.9521 29.7835 18.0995 29.3059L18.1005 29.304L18.1542 29.0989C18.1972 28.8923 18.2082 28.6798 18.1864 28.469C18.1574 28.1878 18.0705 27.9153 17.9315 27.6692L3.8544 2.68384L3.85342 2.68286C3.73642 2.47323 3.56596 2.29819 3.35928 2.17603C3.20416 2.08434 3.03269 2.02484 2.85538 2.00024L2.67667 1.98755H2.65713L2.48038 1.99829ZM2.66006 2.72388C2.77312 2.7213 2.88459 2.74968 2.98233 2.80688C3.08032 2.86425 3.15969 2.94791 3.2128 3.0481L17.2899 28.0354C17.3803 28.1951 17.4371 28.3724 17.456 28.5549C17.4747 28.7363 17.4553 28.9192 17.4003 29.093L17.4013 29.094C17.2887 29.4616 17.0365 29.7693 16.7001 29.9553L16.7011 29.9563C16.3709 30.1422 15.9819 30.1931 15.6151 30.0979C15.2484 30.0027 14.9323 29.7695 14.7343 29.4465C12.3193 25.646 10.1471 21.6955 8.23135 17.6204L8.18936 17.552C8.17282 17.5311 8.15344 17.5124 8.13272 17.4954C8.09124 17.4612 8.04301 17.436 7.99112 17.4221L7.00381 17.1624L7.00088 17.1614C6.45246 17.0115 5.94706 16.7341 5.52628 16.3518C5.15799 16.0172 4.86393 15.6102 4.66104 15.1575L4.57999 14.9612L1.48038 6.82837C1.28412 6.32239 1.20383 5.77759 1.24698 5.23657C1.28481 4.76246 1.41646 4.30126 1.63272 3.87915L1.73038 3.70044L2.121 3.02856L2.1669 2.96021C2.21681 2.89635 2.27945 2.84306 2.35049 2.80298C2.44521 2.74957 2.55231 2.72161 2.66104 2.7229L2.66006 2.72388ZM2.65518 3.22388C2.63448 3.22362 2.61364 3.22835 2.59561 3.23853C2.57773 3.24869 2.56306 3.26376 2.55264 3.28149L2.55167 3.28052L2.16299 3.95239L2.16202 3.95337C1.92533 4.35741 1.78323 4.80983 1.746 5.27661C1.71344 5.68502 1.76227 6.0951 1.88858 6.48364L1.94717 6.64868L1.94815 6.65063L5.04678 14.7834L5.1171 14.9534C5.29181 15.3431 5.54515 15.6935 5.86221 15.9817C6.22465 16.311 6.66034 16.5499 7.13272 16.679L8.11905 16.9387L8.20987 16.968C8.29676 17.0016 8.37783 17.0492 8.4501 17.1086C8.52254 17.1683 8.58487 17.2396 8.63467 17.3186L8.68057 17.4006L8.68253 17.4036L9.41006 18.9202C10.8886 21.9405 12.51 24.8887 14.2685 27.7551L15.1591 29.1809L15.161 29.1848L15.2128 29.262C15.3433 29.4349 15.5297 29.5596 15.7411 29.6145C15.9825 29.677 16.2387 29.6431 16.456 29.5208L16.4579 29.5198L16.539 29.47C16.7216 29.3448 16.8573 29.161 16.9228 28.9475L16.9237 28.9446L16.9452 28.8616C16.9627 28.7777 16.9677 28.6913 16.9589 28.6057C16.95 28.5203 16.9277 28.437 16.8935 28.3586L16.8554 28.2815L2.77823 3.29419L2.77237 3.28345C2.76283 3.2648 2.7484 3.2492 2.73038 3.23853C2.71198 3.22775 2.69015 3.22197 2.66885 3.2229L2.65518 3.22388Z" fill="white"/>
<path d="M5.6138 31.1343C5.16699 31.1355 4.72894 31.0104 4.35009 30.7735C3.81011 30.4511 3.41567 29.9325 3.24924 29.3261C3.08281 28.7196 3.15728 28.0723 3.45709 27.5195C4.86743 24.9245 6.55128 22.1136 8.32739 19.3835C8.41697 19.2461 8.55748 19.1499 8.71799 19.116C8.87851 19.0822 9.0459 19.1135 9.18332 19.2031C9.32075 19.2927 9.41697 19.4332 9.4508 19.5937C9.48463 19.7542 9.45332 19.9216 9.36374 20.059C7.60575 22.7595 5.93837 25.544 4.55274 28.106C4.40496 28.3808 4.36908 28.702 4.4526 29.0026C4.53611 29.3032 4.73256 29.5599 5.00089 29.719C5.26415 29.8832 5.5814 29.9371 5.88413 29.8693C6.18686 29.8015 6.45076 29.6173 6.61883 29.3566C7.80346 27.5672 9.05563 25.5324 10.3457 23.3016C10.4306 23.1657 10.5649 23.0682 10.7203 23.0295C10.8757 22.9908 11.0401 23.0139 11.1788 23.094C11.3174 23.1742 11.4196 23.305 11.4637 23.459C11.5077 23.613 11.4903 23.778 11.415 23.9194C10.1117 26.1717 8.84804 28.2279 7.65517 30.0304C7.43529 30.3714 7.13292 30.6513 6.77608 30.8442C6.41924 31.0372 6.01946 31.137 5.6138 31.1343ZM11.1036 16.9203C11.0229 16.9212 10.9429 16.9061 10.868 16.8759C10.7932 16.8456 10.7251 16.8009 10.6677 16.7442C10.6103 16.6876 10.5646 16.6201 10.5334 16.5457C10.5022 16.4713 10.486 16.3914 10.4858 16.3107V16.2959C10.486 16.1714 10.5233 16.0498 10.5928 15.9466C11.5073 14.6153 12.2899 13.5032 12.8698 12.681C12.3939 12.2819 12.0751 11.7268 11.9701 11.1147C11.8651 10.5025 11.9808 9.8729 12.2965 9.338L17.0416 1.42944C17.1295 1.29605 17.2657 1.20182 17.4215 1.16644C17.5773 1.13106 17.7408 1.15726 17.8778 1.23957C18.0147 1.32187 18.1146 1.45392 18.1565 1.60813C18.1984 1.76233 18.1791 1.92676 18.1026 2.06706L13.3575 9.97563C13.264 10.1309 13.2022 10.3032 13.1758 10.4825C13.1493 10.6618 13.1588 10.8446 13.2035 11.0202C13.2483 11.1959 13.3275 11.3609 13.4365 11.5057C13.5455 11.6505 13.6822 11.7722 13.8386 11.8638L14.0578 11.9989C14.1294 12.0432 14.1913 12.1017 14.2395 12.1709C14.2877 12.24 14.3211 12.3183 14.3378 12.4009C14.3551 12.4834 14.355 12.5686 14.3377 12.6512C14.3204 12.7337 14.2863 12.8117 14.2373 12.8804L14.0726 13.1275C13.486 13.9513 12.6425 15.1524 11.6374 16.6172C11.5823 16.7096 11.5042 16.7862 11.4106 16.8393C11.317 16.8925 11.2112 16.9204 11.1036 16.9203ZM13.0296 20.3243C12.9278 20.3238 12.8277 20.2984 12.738 20.2502C12.594 20.1727 12.4866 20.0412 12.4393 19.8846C12.3921 19.728 12.4088 19.5591 12.4859 19.4148C13.7332 17.0867 14.8486 14.9201 15.4714 13.6218C15.5085 13.5429 15.5619 13.4727 15.6281 13.416C15.6942 13.3592 15.7717 13.317 15.8553 13.2923C15.9376 13.2673 16.0243 13.2602 16.1096 13.2716C16.1948 13.283 16.2767 13.3125 16.3496 13.3582L16.5638 13.49C16.718 13.5851 16.8897 13.6487 17.0687 13.677C17.2477 13.7052 17.4306 13.6977 17.6067 13.6548C17.7807 13.6114 17.9442 13.5339 18.0879 13.4267C18.2316 13.3195 18.3526 13.1847 18.4437 13.0303L23.1888 5.12175C23.2768 4.98836 23.4129 4.89413 23.5687 4.85875C23.7245 4.82337 23.888 4.84957 24.025 4.93188C24.1619 5.01418 24.2618 5.14623 24.3037 5.30044C24.3456 5.45464 24.3263 5.61907 24.2498 5.75937L19.508 13.6597C19.3334 13.9533 19.1022 14.2094 18.8278 14.413C18.5535 14.6167 18.2415 14.7638 17.9098 14.846C17.3753 14.9775 16.813 14.9383 16.3018 14.7339C15.6427 16.0636 14.6542 17.9682 13.575 19.9915C13.5232 20.0915 13.445 20.1754 13.3488 20.2341C13.2527 20.2928 13.1423 20.324 13.0296 20.3243Z" fill="white"/>
<path d="M8.66627 18.8718C8.89162 18.8243 9.12663 18.8681 9.31959 18.9938C9.51244 19.1196 9.64797 19.3165 9.69556 19.5417C9.74307 19.7671 9.69928 20.003 9.57349 20.196L9.57252 20.195C7.81774 22.8905 6.15472 25.67 4.77271 28.2253C4.65588 28.443 4.62757 28.6972 4.69361 28.9353C4.75154 29.1438 4.87787 29.326 5.05103 29.4528L5.12818 29.5036L5.13306 29.5065L5.21314 29.5515C5.4032 29.6454 5.62068 29.6724 5.82935 29.6257C6.0679 29.5722 6.27594 29.4268 6.40845 29.2214L6.41041 29.2185L7.30884 27.8347C8.21897 26.4065 9.1632 24.8469 10.1292 23.1765L10.134 23.1687L10.1819 23.1003C10.3008 22.9456 10.4686 22.8345 10.6594 22.7868C10.8777 22.7324 11.1092 22.7651 11.304 22.8776L11.3743 22.9235C11.533 23.0371 11.6502 23.2011 11.7044 23.3903C11.7662 23.6065 11.7416 23.8384 11.636 24.0368L11.6311 24.0446C10.3266 26.299 9.06009 28.358 7.86451 30.1647L7.86549 30.1657C7.6228 30.542 7.28864 30.8512 6.89478 31.0642C6.50109 31.277 6.0601 31.3873 5.61256 31.3845C5.12082 31.3854 4.6393 31.247 4.22193 30.987C3.62661 30.6316 3.19156 30.0609 3.00806 29.3923C2.82456 28.7236 2.907 28.0096 3.23756 27.4001L3.78052 26.4147C5.0749 24.0957 6.56065 21.6397 8.11744 19.2468L8.16822 19.1774C8.29329 19.0217 8.4691 18.9134 8.66627 18.8718ZM8.76978 19.361C8.67429 19.3812 8.58977 19.4376 8.53638 19.5192L8.53736 19.5202C6.98602 21.9048 5.50543 24.3505 4.21705 26.6589L3.67701 27.6384C3.40803 28.1344 3.34126 28.7153 3.49049 29.2595C3.62117 29.7357 3.90855 30.1518 4.30299 30.4421L4.47779 30.5593L4.48267 30.5612L4.61256 30.6364C4.91999 30.7997 5.26392 30.8853 5.61353 30.8845H5.61549L5.75123 30.8806C6.06784 30.8627 6.37756 30.7761 6.65748 30.6247C6.97727 30.4518 7.2485 30.2008 7.44556 29.8952L7.44654 29.8923L8.35181 28.4978C9.26819 27.0587 10.2199 25.4848 11.1946 23.8005C11.2388 23.7166 11.249 23.6192 11.2229 23.528C11.2032 23.4592 11.1648 23.3976 11.1116 23.3513L11.054 23.3103C10.9714 23.2625 10.873 23.2491 10.7805 23.2722C10.6881 23.2953 10.6084 23.3535 10.5579 23.4343L10.5569 23.4333C9.26699 25.6636 8.01441 27.6993 6.82838 29.4909L6.82935 29.4919C6.62572 29.8078 6.30552 30.0308 5.93873 30.113C5.57193 30.1952 5.18739 30.1302 4.86841 29.9313C4.54748 29.7392 4.31248 29.4305 4.21216 29.07C4.11143 28.7074 4.15414 28.3195 4.33228 27.988L4.33326 27.987L4.86646 27.0144C6.1411 24.7223 7.61343 22.2899 9.15455 19.9226L9.18775 19.8581C9.21457 19.791 9.22142 19.7169 9.20631 19.6452C9.18616 19.5497 9.12882 19.4662 9.04713 19.4128C8.96528 19.3594 8.86538 19.3409 8.76978 19.361ZM23.5129 4.61494C23.7316 4.5653 23.9614 4.60205 24.1536 4.71748C24.3458 4.833 24.4864 5.01863 24.5452 5.23506C24.6039 5.45137 24.5762 5.6818 24.469 5.87862L24.4641 5.88838L19.7219 13.7868L19.7229 13.7878C19.5314 14.1098 19.2777 14.3907 18.9768 14.614C18.7512 14.7814 18.5022 14.9137 18.2385 15.0075L17.97 15.0886C17.4594 15.2141 16.9255 15.1975 16.426 15.0427C15.768 16.362 14.8227 18.1804 13.7961 20.1052L13.7971 20.1062C13.7243 20.2468 13.6139 20.3655 13.4788 20.448C13.3437 20.5302 13.1887 20.5734 13.0305 20.5739H13.0286C12.9215 20.5734 12.8153 20.554 12.7161 20.5153L12.6194 20.4704C12.4171 20.3615 12.2668 20.1766 12.2004 19.9567C12.1341 19.7368 12.1576 19.4992 12.2659 19.2966L13.1702 17.5935C14.0383 15.9429 14.781 14.4834 15.2463 13.5134C15.2984 13.4034 15.3728 13.3055 15.4651 13.2263C15.5349 13.1663 15.6138 13.1178 15.6985 13.0827L15.7844 13.0524C15.9004 13.0175 16.0227 13.0081 16.1428 13.0241C16.2628 13.0402 16.378 13.0812 16.4807 13.1452L16.6946 13.2771L16.7922 13.3308C16.8917 13.3792 16.998 13.413 17.1077 13.4304C17.2536 13.4534 17.4026 13.4467 17.5461 13.4118L17.6506 13.3806C17.7535 13.3438 17.8508 13.2918 17.9387 13.2263C18.0558 13.1389 18.1546 13.0288 18.2288 12.903L18.2297 12.9021L22.9749 4.99287L22.9797 4.98408L23.0295 4.9167C23.1518 4.76535 23.3217 4.65846 23.5129 4.61494ZM23.6243 5.10225C23.5325 5.12308 23.4522 5.17858 23.3997 5.25655L18.6585 13.1589C18.5506 13.3412 18.4073 13.5 18.2376 13.6267C18.0673 13.7537 17.8733 13.8458 17.6672 13.8972L17.6663 13.8981C17.458 13.9489 17.2413 13.957 17.0295 13.9235C16.8709 13.8985 16.7173 13.85 16.5735 13.78L16.4329 13.7028L16.219 13.571L16.217 13.57C16.1745 13.5433 16.1262 13.5259 16.0764 13.5192C16.0266 13.5126 15.976 13.5173 15.928 13.5319H15.926C15.8765 13.5466 15.8305 13.5716 15.7913 13.6052C15.7519 13.639 15.7196 13.6812 15.6975 13.7282L15.6965 13.7302C15.2277 14.7076 14.4825 16.1729 13.6126 17.8269L12.7063 19.5329C12.6605 19.6187 12.6509 19.7191 12.679 19.8122C12.7071 19.9054 12.7709 19.9838 12.8567 20.03L12.9407 20.0632C12.9693 20.0705 12.9989 20.0726 13.0286 20.073C13.0955 20.0728 13.1619 20.0561 13.219 20.0212C13.276 19.9864 13.322 19.936 13.3528 19.8767L13.3547 19.8737L14.1428 18.3864C14.9063 16.9363 15.5843 15.6175 16.0774 14.6228L16.1799 14.4157L16.3948 14.5017C16.8574 14.6865 17.3661 14.7221 17.8499 14.6032L18.0706 14.5368C18.2879 14.4595 18.4931 14.3506 18.679 14.2126C18.9267 14.0287 19.1355 13.7971 19.2932 13.5319L24.0305 5.63643C24.0749 5.55333 24.0875 5.45692 24.0628 5.36592C24.0378 5.27395 23.9775 5.19529 23.8958 5.14619C23.8142 5.0973 23.717 5.08126 23.6243 5.10225ZM17.3665 0.92256C17.5849 0.873041 17.814 0.909824 18.0061 1.0251C18.1983 1.14062 18.3389 1.32625 18.3977 1.54268C18.4565 1.75909 18.4298 1.99031 18.3225 2.18721L18.3176 2.196L13.5715 10.1042C13.4951 10.2311 13.4447 10.3727 13.4231 10.5192C13.4015 10.6657 13.409 10.8152 13.4456 10.9587C13.4821 11.1021 13.547 11.2369 13.636 11.3552C13.7029 11.444 13.7827 11.5225 13.8723 11.5876L13.9651 11.6481L13.97 11.6511L14.1887 11.7858L14.262 11.8366C14.3321 11.8906 14.3938 11.9551 14.4446 12.028C14.5123 12.1252 14.5598 12.2352 14.5833 12.3513C14.6073 12.4672 14.6066 12.587 14.5823 12.7028C14.5584 12.8164 14.511 12.9232 14.4446 13.0183L14.4456 13.0192L14.2766 13.2722C13.691 14.0947 12.8481 15.2951 11.844 16.7585L11.842 16.7575C11.7654 16.881 11.6609 16.9844 11.5344 17.0563C11.4038 17.1305 11.2559 17.1693 11.1057 17.1696L11.1038 17.1706C10.9911 17.1715 10.8792 17.1503 10.7747 17.1081C10.6694 17.0656 10.5733 17.0023 10.4924 16.9226C10.4115 16.8427 10.347 16.7471 10.303 16.6423C10.259 16.5375 10.2359 16.4249 10.2356 16.3112V16.2956L10.2454 16.1657C10.2647 16.038 10.3123 15.9154 10.385 15.8073L10.387 15.8054L11.6516 13.9792C11.9799 13.5095 12.2773 13.0868 12.5383 12.7165C12.1118 12.2959 11.8258 11.7511 11.7239 11.1569C11.6089 10.4864 11.7355 9.79653 12.0813 9.21065L12.0823 9.20967L16.8274 1.30049L16.8323 1.2917C16.9558 1.10461 17.1478 0.972201 17.3665 0.92256ZM10.7434 16.3806C10.7481 16.4039 10.7547 16.4269 10.7639 16.4489C10.7823 16.4928 10.8092 16.5327 10.843 16.5661C10.877 16.5996 10.9179 16.6264 10.9622 16.6442C11.0062 16.662 11.0533 16.6711 11.1008 16.6706H11.1038L11.1985 16.6579C11.2293 16.6498 11.2594 16.6377 11.2874 16.6218C11.3432 16.59 11.3902 16.5441 11.4231 16.489L11.4309 16.4753C12.4367 15.0094 13.282 13.8071 13.8694 12.9821L14.0295 12.7419L14.0335 12.7351L14.0706 12.6706C14.0804 12.6481 14.0879 12.6245 14.093 12.6003C14.1032 12.5515 14.1032 12.5006 14.093 12.4519C14.0831 12.4029 14.063 12.3552 14.0344 12.3142C14.0058 12.2731 13.9686 12.2379 13.926 12.2116L13.7073 12.0769C13.5245 11.9689 13.3643 11.8255 13.2366 11.656C13.1077 11.4848 13.0141 11.2894 12.9612 11.0817C12.9083 10.8741 12.8967 10.658 12.928 10.446C12.9592 10.2339 13.0332 10.03 13.1438 9.84639L17.8831 1.94404C17.9275 1.86093 17.94 1.76456 17.9153 1.67354C17.8903 1.58168 17.8308 1.50289 17.7493 1.45381C17.6676 1.40472 17.5697 1.38877 17.4768 1.40987C17.385 1.43071 17.3047 1.48616 17.2522 1.56416L12.511 9.46455L12.512 9.46553C12.2265 9.94925 12.1212 10.5184 12.2161 11.072C12.3111 11.6258 12.6 12.1289 13.0305 12.4899L13.2063 12.6374L13.0745 12.8249C12.4947 13.6468 11.7126 14.7586 10.7991 16.0886C10.7581 16.1502 10.7358 16.2225 10.7356 16.2966V16.3103L10.7434 16.3806Z" fill="white"/>
<path d="M16.0307 9.59002C15.9186 9.58951 15.8087 9.55877 15.7127 9.50105C15.5727 9.41685 15.4718 9.28068 15.432 9.12229C15.3922 8.96391 15.4167 8.79619 15.5001 8.65582L19.0936 2.66178C19.1777 2.52108 19.3142 2.41955 19.4732 2.37954C19.6322 2.33952 19.8005 2.3643 19.9412 2.44842C20.0819 2.53254 20.1835 2.6691 20.2235 2.82808C20.2635 2.98705 20.2387 3.15541 20.1546 3.29612L16.5612 9.2885C16.5068 9.38072 16.4292 9.45708 16.3361 9.50998C16.243 9.56288 16.1377 9.59047 16.0307 9.59002ZM18.0786 10.8175C17.967 10.8175 17.8575 10.7867 17.7623 10.7285C17.6928 10.687 17.6322 10.6322 17.584 10.5672C17.5357 10.5023 17.5007 10.4284 17.4809 10.3499C17.4612 10.2714 17.4571 10.1898 17.4689 10.1098C17.4807 10.0297 17.5082 9.95275 17.5497 9.88329L21.1432 3.88926C21.1831 3.81635 21.2374 3.75225 21.3026 3.7008C21.3679 3.64935 21.443 3.61161 21.5232 3.58983C21.6034 3.56806 21.6872 3.56269 21.7696 3.57406C21.8519 3.58544 21.9311 3.61331 22.0024 3.65601C22.0738 3.69872 22.1357 3.75538 22.1846 3.8226C22.2335 3.88982 22.2684 3.96622 22.2871 4.04722C22.3058 4.12823 22.3079 4.21217 22.2934 4.29402C22.2789 4.37588 22.248 4.45396 22.2026 4.52359L18.6108 10.516C18.556 10.6082 18.4781 10.6845 18.3848 10.7374C18.2914 10.7903 18.1859 10.8179 18.0786 10.8175Z" fill="white"/>
<path d="M21.804 3.32666C21.9196 3.34266 22.0311 3.38195 22.1312 3.4419C22.2312 3.50185 22.3184 3.58101 22.387 3.6753C22.4557 3.76963 22.5043 3.87707 22.5306 3.99073C22.5568 4.10443 22.5597 4.22251 22.5394 4.33741C22.5196 4.44906 22.4771 4.55524 22.4163 4.65088L22.4173 4.65186L18.8255 10.644C18.7485 10.7734 18.6391 10.8803 18.5081 10.9546C18.3771 11.0288 18.229 11.0674 18.0784 11.0669V11.0679C17.921 11.0679 17.7665 11.024 17.6321 10.9419V10.9409C17.5355 10.8827 17.4504 10.8069 17.3831 10.7163C17.3323 10.6479 17.2917 10.5726 17.263 10.4927L17.2386 10.4106C17.2109 10.3005 17.2055 10.1861 17.222 10.0737C17.2386 9.96131 17.277 9.85292 17.3353 9.75537V9.7544L20.929 3.76026C20.9846 3.66159 21.0588 3.57454 21.1478 3.5044C21.2394 3.43219 21.3448 3.37875 21.4573 3.34815C21.57 3.31756 21.6884 3.31069 21.804 3.32666ZM21.5892 3.83155C21.5414 3.84451 21.4962 3.86636 21.4573 3.89698C21.4185 3.92758 21.3864 3.96592 21.3626 4.00928L21.3577 4.01807L17.764 10.0122C17.7395 10.0533 17.7231 10.0987 17.7161 10.146C17.7091 10.1935 17.7123 10.242 17.7239 10.2886L17.7474 10.3569C17.7576 10.3785 17.7702 10.3992 17.7845 10.4185C17.7989 10.4378 17.8155 10.4551 17.8333 10.4712L17.8909 10.5142L17.8929 10.5151L17.9818 10.5542C18.0131 10.563 18.0456 10.5679 18.0784 10.5679H18.0794L18.1741 10.5552C18.2045 10.5472 18.2344 10.5357 18.262 10.52C18.3174 10.4886 18.3633 10.4429 18.3958 10.3882L18.3968 10.3872L21.9886 4.39502L21.9935 4.38721L22.0267 4.32178C22.0358 4.29879 22.0428 4.27497 22.0472 4.25049C22.0558 4.20176 22.0544 4.15126 22.0433 4.10303C22.0321 4.05496 22.0118 4.00914 21.9827 3.96924C21.9537 3.92939 21.9166 3.89598 21.8743 3.87061C21.8319 3.84523 21.7846 3.82857 21.7357 3.82178C21.6867 3.81503 21.6369 3.81865 21.5892 3.83155ZM19.4124 2.13721C19.6357 2.08106 19.8721 2.11577 20.0696 2.23389C20.2672 2.35203 20.4099 2.54384 20.4661 2.76709C20.5153 2.96233 20.4944 3.16754 20.4095 3.34815L20.3695 3.42432L16.7757 9.41748C16.6992 9.54649 16.5897 9.65293 16.4593 9.72705C16.361 9.78287 16.2533 9.81938 16.1419 9.8335L16.0296 9.84034C15.912 9.83981 15.7961 9.81519 15.6888 9.76905L15.5843 9.71534C15.3877 9.59708 15.2457 9.40558 15.1898 9.18311C15.1339 8.96067 15.1682 8.72498 15.2855 8.52784V8.52686L18.8792 2.5337L18.9271 2.46241C19.046 2.30192 19.217 2.18639 19.4124 2.13721ZM19.5345 2.62159C19.4634 2.63949 19.3994 2.67831 19.3509 2.73194L19.3079 2.79053L15.7142 8.78272L15.7152 8.7837C15.6655 8.86716 15.6506 8.96686 15.6741 9.06104C15.6978 9.15534 15.7588 9.2365 15.8421 9.28662H15.8411C15.8985 9.32113 15.9646 9.33998 16.0316 9.34034L16.1253 9.32862C16.1557 9.32068 16.1847 9.30809 16.2122 9.29248C16.2673 9.26117 16.3138 9.2162 16.346 9.16162L16.347 9.15967L19.9398 3.16748L19.971 3.10205C19.9951 3.03412 19.9986 2.96011 19.9808 2.88916C19.9569 2.7945 19.8966 2.71269 19.8128 2.6626C19.7292 2.61272 19.629 2.59789 19.5345 2.62159Z" fill="white"/>
</svg>
