<svg width="251" height="59" viewBox="0 0 251 59" fill="none" xmlns="http://www.w3.org/2000/svg">
<g clip-path="url(#clip0_1057_5068)">
<path d="M56.3172 29.4209C56.3172 28.42 56.745 27.2337 57.4371 26.5911C58.1039 25.9856 58.8337 25.0464 58.8337 23.8477V3.80417C58.8337 2.08651 57.4371 0.714844 55.7007 0.714844H34.9148C33.6691 0.714844 32.7129 1.45628 32.1089 2.11122C31.4546 2.80323 30.5361 3.23574 29.517 3.23574H29.4918C28.4726 3.23574 27.5541 2.80323 26.8998 2.11122C26.2959 1.45628 25.3396 0.714844 24.094 0.714844H3.30804C1.57168 0.714844 0.175049 2.08651 0.175049 3.80417V23.8477C0.175049 25.0464 0.904822 25.9856 1.57168 26.5911C2.26371 27.2337 2.69151 28.42 2.69151 29.4209V29.4703C2.69151 30.4713 2.26371 31.6576 1.57168 32.3002C0.904822 32.9057 0.175049 33.8448 0.175049 35.0435V55.0871C0.175049 56.8047 1.57168 58.1764 3.30804 58.1764H24.094C25.3396 58.1764 26.2959 57.4349 26.8998 56.78C27.5541 56.088 28.4726 55.6555 29.4918 55.6555H29.517C30.5361 55.6555 31.4546 56.088 32.1089 56.78C32.7129 57.4349 33.6691 58.1764 34.9148 58.1764H55.7007C57.4371 58.1764 58.8337 56.8047 58.8337 55.0871V35.0435C58.8337 33.8448 58.1039 32.9057 57.4371 32.3002C56.745 31.6576 56.3172 30.4713 56.3172 29.4703V29.4209ZM51.2592 8.05509C51.3347 8.05509 51.385 8.09216 51.385 8.16631C51.385 8.43817 51.3724 8.68532 51.3598 8.95718C51.083 13.307 49.1453 17.3478 45.9117 20.3259C42.6655 23.304 38.463 24.9475 34.0592 24.9475C33.9963 24.9475 33.9208 24.8858 33.9208 24.8116C33.9459 24.5521 33.9585 24.2926 33.9711 24.0331C34.2227 19.6833 36.173 15.6301 39.4192 12.652C42.6529 9.6739 46.8554 8.05509 51.2592 8.05509ZM23.7165 7.31365C23.9807 6.51043 24.4086 6.26328 24.635 6.26328C24.8112 6.26328 25.0377 6.36214 25.2893 6.58457C26.4972 7.69673 27.7051 8.37638 29.4918 8.37638H29.517C31.3036 8.37638 32.5115 7.69673 33.7194 6.58457C33.9711 6.36214 34.1976 6.26328 34.3737 6.26328C34.6002 6.26328 35.028 6.51043 35.2922 7.31365C35.5187 8.10452 35.3677 8.77182 35.0909 9.01896C32.4738 11.5769 30.6494 14.7404 29.5044 18.324C28.3594 14.7404 26.535 11.5769 23.9178 9.01896C23.641 8.77182 23.49 8.10452 23.7165 7.31365ZM32.2851 29.4333V29.458C32.2851 30.9656 31.0394 32.1766 29.5044 32.1766C27.9693 32.1766 26.7237 30.9656 26.7237 29.458V29.4333C26.7237 27.9257 27.9693 26.7146 29.5044 26.7146C31.0394 26.7146 32.2851 27.9257 32.2851 29.4333ZM7.74959 8.05509C12.1534 8.05509 16.3559 9.6739 19.5895 12.652C22.8358 15.6301 24.7734 19.6833 25.0377 24.0331C25.0377 24.2926 25.0628 24.5521 25.0754 24.8116C25.0754 24.8858 25.0125 24.9475 24.9496 24.9475C20.5458 24.9475 16.3433 23.304 13.0971 20.3259C9.86342 17.3478 7.92574 13.307 7.64893 8.95718C7.63635 8.68532 7.62377 8.43817 7.62377 8.16631C7.62377 8.09216 7.6741 8.05509 7.74959 8.05509ZM6.75559 35.6366C6.01323 35.4142 5.83708 35.0435 5.83708 34.8705C5.83708 34.7345 5.89999 34.5368 6.10131 34.3391C7.2463 33.1405 7.93832 31.2374 7.93832 29.4703V29.4209C7.93832 27.6538 7.2463 25.7508 6.10131 24.5521C5.89999 24.3544 5.83708 24.1567 5.83708 24.0208C5.83708 23.8477 6.01323 23.477 6.75559 23.2546C7.4602 23.0569 8.05157 23.2052 8.25288 23.44C10.9077 26.1833 14.2546 28.2717 18.0042 29.4333C17.9916 29.4333 17.979 29.4456 17.9664 29.4456C17.979 29.4456 17.9916 29.458 18.0042 29.458C14.2546 30.6196 10.9077 32.7079 8.25288 35.4513C8.05157 35.6861 7.4602 35.8344 6.75559 35.6366ZM7.74959 50.8361C7.6741 50.8361 7.62377 50.7991 7.62377 50.7249C7.62377 50.4531 7.63635 50.2059 7.64893 49.9341C7.92574 45.5843 9.86342 41.5434 13.0971 38.5653C16.3433 35.5872 20.5458 33.9437 24.9496 33.9437C25.0125 33.9437 25.0754 34.0055 25.0754 34.0796C25.0628 34.3391 25.0502 34.5986 25.0377 34.8581C24.7734 39.2079 22.8358 43.2611 19.5895 46.2392C16.3559 49.2173 12.1534 50.8361 7.74959 50.8361ZM35.2922 51.5776C35.028 52.3808 34.6002 52.6279 34.3737 52.6279C34.1976 52.6279 33.9711 52.5291 33.7194 52.3067C32.5115 51.1945 31.3036 50.5148 29.517 50.5148H29.4918C27.7051 50.5148 26.4972 51.1945 25.2893 52.3067C25.0377 52.5291 24.8112 52.6279 24.635 52.6279C24.4086 52.6279 23.9807 52.3808 23.7165 51.5776C23.49 50.7867 23.641 50.1194 23.9178 49.8723C26.535 47.3143 28.3594 44.1508 29.5044 40.5672C30.6494 44.1508 32.4738 47.3143 35.0909 49.8723C35.3677 50.1194 35.5187 50.7867 35.2922 51.5776ZM51.2592 50.8361C46.8554 50.8361 42.6529 49.2173 39.4192 46.2392C36.173 43.2611 34.2227 39.2079 33.9711 34.8581C33.9585 34.5986 33.9459 34.3391 33.9208 34.0796C33.9208 34.0055 33.9963 33.9437 34.0592 33.9437C38.463 33.9437 42.6655 35.5872 45.9117 38.5653C49.1453 41.5434 51.083 45.5843 51.3598 49.9341C51.3724 50.2059 51.385 50.4531 51.385 50.7249C51.385 50.7991 51.3347 50.8361 51.2592 50.8361ZM52.9074 34.3391C53.1088 34.5368 53.1843 34.7345 53.1843 34.8705C53.1843 35.0435 52.9955 35.4142 52.2532 35.6366C51.5486 35.8344 50.9572 35.6861 50.7559 35.4513C48.101 32.7079 44.7541 30.6196 41.0046 29.458C41.0046 29.458 41.0298 29.4456 41.0423 29.4456C41.0298 29.4456 41.0172 29.4333 41.0046 29.4333C44.7541 28.2717 48.101 26.1833 50.7559 23.44C50.9572 23.2052 51.5486 23.0569 52.2532 23.2546C52.9955 23.477 53.1843 23.8477 53.1843 24.0208C53.1843 24.1567 53.1088 24.3544 52.9074 24.5521C51.7625 25.7508 51.0704 27.6538 51.0704 29.4209V29.4703C51.0704 31.2374 51.7625 33.1405 52.9074 34.3391Z" fill="#834639"/>
</g>
<path d="M241.571 28.1775C242.555 28.1775 243.42 28.1626 244.165 28.1328C244.459 28.1102 244.733 28.0833 244.988 28.0522C245.638 27.9729 246.089 27.4019 246.089 26.7475V21.8032C246.089 21.2691 245.781 20.7826 245.257 20.6779C245.066 20.6396 244.851 20.6049 244.613 20.5738C243.957 20.4545 243.152 20.3949 242.197 20.3949C241.571 20.3949 240.9 20.4396 240.185 20.5291C239.499 20.6185 238.858 20.8124 238.261 21.1105C237.695 21.3789 237.218 21.7666 236.83 22.2735C236.442 22.7506 236.249 23.3917 236.249 24.1967C236.249 25.6877 236.726 26.7313 237.68 27.3277C238.634 27.8942 239.931 28.1775 241.571 28.1775ZM241.213 7.33447C242.883 7.33447 244.285 7.55811 245.418 8.00539C246.581 8.42284 247.505 9.03412 248.191 9.83921C248.906 10.6145 249.413 11.5538 249.712 12.657C250.01 13.7305 250.159 14.9232 250.159 16.2352V29.577C250.159 30.2664 249.661 30.8555 248.982 30.9778C248.872 30.9975 248.758 31.0183 248.638 31.0401C248.012 31.1295 247.296 31.219 246.491 31.3084C245.686 31.3979 244.806 31.4724 243.852 31.5321C242.928 31.6215 242.004 31.6662 241.079 31.6662C239.767 31.6662 238.56 31.5321 237.456 31.2637C236.353 30.9953 235.399 30.5779 234.594 30.0113C233.789 29.415 233.162 28.6397 232.715 27.6855C232.268 26.7313 232.044 25.5833 232.044 24.2415C232.044 22.9593 232.298 21.856 232.805 20.9316C233.341 20.0073 234.057 19.2618 234.951 18.6953C235.846 18.1287 236.89 17.7113 238.082 17.4429C239.275 17.1745 240.528 17.0403 241.84 17.0403C242.257 17.0403 242.689 17.0702 243.137 17.1298C243.584 17.1596 244.001 17.2193 244.389 17.3087C244.806 17.3683 245.164 17.428 245.462 17.4876C245.781 17.5514 246.089 17.3067 246.089 16.9813V16.4589C246.089 15.7731 246.014 15.1022 245.865 14.4461C245.716 13.7603 245.448 13.164 245.06 12.657C244.672 12.1203 244.136 11.7029 243.45 11.4047C242.794 11.0767 241.929 10.9127 240.856 10.9127C239.484 10.9127 238.276 11.017 237.233 11.2258C237.045 11.2588 236.867 11.2923 236.697 11.3264C235.795 11.5071 234.825 10.9227 234.695 10.0123L234.61 9.41843C234.521 8.79409 234.86 8.18829 235.471 8.03215C235.931 7.91479 236.488 7.8015 237.143 7.69229C238.395 7.45375 239.752 7.33447 241.213 7.33447Z" fill="#413C39"/>
<path d="M219.594 6.50572C219.594 7.28458 220.226 7.91597 221.005 7.91597H226.996C227.774 7.91597 228.406 8.54737 228.406 9.32623V9.99447C228.406 10.7733 227.774 11.4047 226.996 11.4047H221.005C220.226 11.4047 219.594 12.0361 219.594 12.815V22.1393C219.594 23.3022 219.684 24.2713 219.863 25.0466C220.042 25.7921 220.31 26.3884 220.668 26.8357C221.026 27.2532 221.473 27.5514 222.01 27.7303C222.546 27.9092 223.173 27.9986 223.888 27.9986C225.141 27.9986 226.14 27.8644 226.885 27.5961C226.912 27.5856 226.939 27.5752 226.966 27.5649C227.772 27.2548 228.672 27.727 228.869 28.5677L229.047 29.3296C229.195 29.9653 228.884 30.6131 228.265 30.82C227.935 30.9301 227.55 31.0482 227.109 31.1743C226.065 31.5023 224.872 31.6663 223.53 31.6663C221.95 31.6663 220.638 31.4725 219.594 31.0848C218.581 30.6674 217.761 30.0561 217.134 29.251C216.508 28.4459 216.061 27.4619 215.793 26.299C215.554 25.1063 215.435 23.7346 215.435 22.1841V2.61883C215.435 1.93223 215.929 1.34541 216.606 1.229L217.945 0.998606C218.807 0.850343 219.594 1.514 219.594 2.38844V6.50572Z" fill="#413C39"/>
<path d="M209.851 19.5451C209.851 21.3938 209.583 23.0637 209.046 24.5546C208.509 26.0455 207.749 27.3277 206.765 28.4011C205.811 29.4746 204.663 30.3095 203.321 30.9059C201.979 31.4724 200.518 31.7557 198.937 31.7557C197.357 31.7557 195.896 31.4724 194.554 30.9059C193.212 30.3095 192.049 29.4746 191.065 28.4011C190.111 27.3277 189.366 26.0455 188.829 24.5546C188.292 23.0637 188.024 21.3938 188.024 19.5451C188.024 17.7262 188.292 16.0712 188.829 14.5803C189.366 13.0596 190.111 11.7625 191.065 10.689C192.049 9.61558 193.212 8.79557 194.554 8.22903C195.896 7.63266 197.357 7.33447 198.937 7.33447C200.518 7.33447 201.979 7.63266 203.321 8.22903C204.663 8.79557 205.811 9.61558 206.765 10.689C207.749 11.7625 208.509 13.0596 209.046 14.5803C209.583 16.0712 209.851 17.7262 209.851 19.5451ZM205.512 19.5451C205.512 16.9211 204.916 14.8487 203.723 13.328C202.56 11.7774 200.965 11.0021 198.937 11.0021C196.91 11.0021 195.3 11.7774 194.107 13.328C192.944 14.8487 192.362 16.9211 192.362 19.5451C192.362 22.1691 192.944 24.2564 194.107 25.8069C195.3 27.3277 196.91 28.088 198.937 28.088C200.965 28.088 202.56 27.3277 203.723 25.8069C204.916 24.2564 205.512 22.1691 205.512 19.5451Z" fill="#413C39"/>
<path d="M179.206 31.711C177.327 31.711 175.672 31.4128 174.241 30.8164C172.84 30.2201 171.647 29.3851 170.663 28.3117C169.709 27.2382 168.993 25.9709 168.516 24.5098C168.039 23.0189 167.8 21.3789 167.8 19.5898C167.8 17.8007 168.054 16.1607 168.561 14.6698C169.097 13.1789 169.843 11.8967 170.797 10.8232C171.751 9.71994 172.914 8.87012 174.286 8.27375C175.687 7.64757 177.238 7.33447 178.937 7.33447C179.981 7.33447 181.025 7.42393 182.068 7.60284C182.693 7.70994 183.302 7.85444 183.895 8.03634C184.574 8.24474 184.928 8.96728 184.746 9.65375L184.562 10.3452C184.335 11.1981 183.383 11.6396 182.53 11.413C182.338 11.3619 182.139 11.3144 181.934 11.2705C181.129 11.0916 180.264 11.0021 179.34 11.0021C177.014 11.0021 175.225 11.7327 173.973 13.1938C172.75 14.6549 172.139 16.7869 172.139 19.5898C172.139 20.8422 172.273 21.9902 172.541 23.0338C172.84 24.0775 173.287 24.972 173.883 25.7175C174.509 26.4629 175.3 27.0444 176.254 27.4619C177.208 27.8495 178.371 28.0433 179.743 28.0433C180.846 28.0433 181.845 27.9389 182.739 27.7302C182.855 27.7032 182.968 27.6759 183.077 27.6483C183.984 27.42 184.994 27.9745 185.148 28.8966L185.268 29.6193C185.362 30.1816 185.104 30.745 184.567 30.9359C184.511 30.9557 184.454 30.9755 184.394 30.9953C183.947 31.1146 183.44 31.219 182.873 31.3084C182.307 31.4277 181.696 31.5172 181.04 31.5768C180.413 31.6662 179.802 31.711 179.206 31.711Z" fill="#413C39"/>
<path d="M153.601 28.1775C154.585 28.1775 155.45 28.1626 156.195 28.1328C156.489 28.1102 156.763 28.0833 157.018 28.0522C157.668 27.9729 158.119 27.4019 158.119 26.7475V21.8032C158.119 21.2691 157.811 20.7826 157.287 20.6779C157.096 20.6396 156.881 20.6049 156.643 20.5738C155.987 20.4545 155.182 20.3949 154.227 20.3949C153.601 20.3949 152.93 20.4396 152.215 20.5291C151.529 20.6185 150.888 20.8124 150.291 21.1105C149.725 21.3789 149.248 21.7666 148.86 22.2735C148.472 22.7506 148.279 23.3917 148.279 24.1967C148.279 25.6877 148.756 26.7313 149.71 27.3277C150.664 27.8942 151.961 28.1775 153.601 28.1775ZM153.243 7.33447C154.913 7.33447 156.315 7.55811 157.448 8.00539C158.611 8.42284 159.535 9.03412 160.221 9.83921C160.936 10.6145 161.443 11.5538 161.742 12.657C162.04 13.7305 162.189 14.9232 162.189 16.2352V29.577C162.189 30.2664 161.691 30.8555 161.012 30.9778C160.902 30.9975 160.788 31.0183 160.668 31.0401C160.042 31.1295 159.326 31.219 158.521 31.3084C157.716 31.3979 156.836 31.4724 155.882 31.5321C154.958 31.6215 154.034 31.6662 153.109 31.6662C151.797 31.6662 150.59 31.5321 149.486 31.2637C148.383 30.9953 147.429 30.5779 146.624 30.0113C145.819 29.415 145.192 28.6397 144.745 27.6855C144.298 26.7313 144.074 25.5833 144.074 24.2415C144.074 22.9593 144.328 21.856 144.835 20.9316C145.371 20.0073 146.087 19.2618 146.982 18.6953C147.876 18.1287 148.92 17.7113 150.112 17.4429C151.305 17.1745 152.558 17.0403 153.87 17.0403C154.287 17.0403 154.719 17.0702 155.167 17.1298C155.614 17.1596 156.031 17.2193 156.419 17.3087C156.836 17.3683 157.194 17.428 157.492 17.4876C157.811 17.5514 158.119 17.3067 158.119 16.9814V16.4589C158.119 15.7731 158.044 15.1022 157.895 14.4461C157.746 13.7603 157.478 13.164 157.09 12.657C156.702 12.1203 156.166 11.7029 155.48 11.4047C154.824 11.0767 153.959 10.9127 152.886 10.9127C151.514 10.9127 150.306 11.017 149.263 11.2258C149.075 11.2588 148.897 11.2923 148.727 11.3264C147.825 11.5071 146.855 10.9227 146.725 10.0123L146.64 9.41843C146.551 8.79409 146.89 8.18828 147.501 8.03215C147.961 7.91479 148.518 7.8015 149.173 7.69229C150.426 7.45375 151.782 7.33447 153.243 7.33447Z" fill="#413C39"/>
<path d="M137.064 7.42383C137.421 7.42383 137.824 7.45365 138.271 7.51328C138.748 7.5431 139.21 7.60274 139.658 7.69219C140.105 7.75183 140.508 7.82638 140.865 7.91583C141.357 7.99139 141.643 8.46007 141.547 8.94758L141.318 10.1032C141.151 10.9518 140.252 11.4912 139.403 11.3263C139.383 11.3226 139.364 11.3189 139.345 11.3151C138.599 11.1362 137.63 11.0468 136.437 11.0468C135.662 11.0468 134.887 11.1362 134.112 11.3151C133.969 11.3436 133.836 11.3705 133.712 11.3958C133.077 11.5248 132.635 12.0822 132.635 12.7293V29.7639C132.635 30.5427 132.004 31.1741 131.225 31.1741H129.886C129.107 31.1741 128.476 30.5427 128.476 29.7639V9.88761C128.476 9.29459 128.846 8.7612 129.413 8.58963C130.205 8.35026 131.115 8.12566 132.143 7.91583C133.605 7.58783 135.245 7.42383 137.064 7.42383Z" fill="#413C39"/>
<path d="M119.81 7.42383C120.168 7.42383 120.571 7.45365 121.018 7.51328C121.495 7.5431 121.957 7.60274 122.405 7.69219C122.852 7.75183 123.254 7.82638 123.612 7.91583C124.103 7.99139 124.39 8.46007 124.294 8.94758L124.065 10.1032C123.898 10.9518 122.999 11.4912 122.149 11.3263C122.13 11.3226 122.111 11.3189 122.091 11.3151C121.346 11.1362 120.377 11.0468 119.184 11.0468C118.409 11.0468 117.634 11.1362 116.858 11.3151C116.716 11.3436 116.582 11.3705 116.458 11.3958C115.824 11.5248 115.382 12.0822 115.382 12.7293V29.7639C115.382 30.5427 114.751 31.1741 113.972 31.1741H112.633C111.854 31.1741 111.223 30.5427 111.223 29.7639V9.88761C111.223 9.29459 111.593 8.7612 112.16 8.58962C112.952 8.35026 113.862 8.12566 114.89 7.91583C116.351 7.58783 117.991 7.42383 119.81 7.42383Z" fill="#413C39"/>
<path d="M84.9409 19.5898C84.9409 17.5323 85.2391 15.7432 85.8355 14.2225C86.4318 12.672 87.222 11.3898 88.206 10.3759C89.19 9.36212 90.3231 8.60175 91.6053 8.09484C92.8875 7.58793 94.1995 7.33447 95.5413 7.33447C98.6723 7.33447 101.073 8.31848 102.742 10.2865C104.412 12.2247 105.247 15.1916 105.247 19.1873C105.247 19.3662 105.247 19.6047 105.247 19.9029C105.247 20.3383 104.876 20.6633 104.44 20.6633H90.7981C89.9782 20.6633 89.3204 21.3631 89.4725 22.1688C89.7909 23.8551 90.4273 25.1871 91.3817 26.1648C92.6042 27.4171 94.5126 28.0433 97.1068 28.0433C98.5679 28.0433 99.7905 27.924 100.774 27.6855C100.958 27.6369 101.133 27.5889 101.3 27.5413C102.199 27.2849 103.208 27.8403 103.362 28.7624L103.47 29.4113C103.57 30.01 103.272 30.6038 102.695 30.7924C102.228 30.9452 101.648 31.1022 100.953 31.2637C99.701 31.5619 98.2697 31.711 96.6595 31.711C94.6319 31.711 92.8726 31.4128 91.3817 30.8164C89.9206 30.1902 88.7129 29.3404 87.7588 28.267C86.8046 27.1935 86.0889 25.9262 85.6118 24.4651C85.1646 22.9742 84.9409 21.3491 84.9409 19.5898ZM99.5206 17.3087C100.291 17.3087 100.934 16.6871 100.831 15.924C100.659 14.6611 100.208 13.587 99.4774 12.7018C98.5232 11.4792 97.1963 10.8679 95.4966 10.8679C94.5424 10.8679 93.6926 11.0618 92.9471 11.4494C92.2315 11.8072 91.6202 12.2843 91.1133 12.8807C90.6064 13.4771 90.2039 14.1629 89.9057 14.9382C89.8114 15.2105 89.7281 15.4848 89.6559 15.7609C89.4433 16.574 90.104 17.3087 90.9446 17.3087H99.5206Z" fill="#413C39"/>
<path d="M72.5701 6.50572C72.5701 7.28458 73.2015 7.91597 73.9803 7.91597H79.9711C80.75 7.91597 81.3814 8.54737 81.3814 9.32623V9.99447C81.3814 10.7733 80.75 11.4047 79.9711 11.4047H73.9803C73.2015 11.4047 72.5701 12.0361 72.5701 12.815V22.1393C72.5701 23.3022 72.6595 24.2713 72.8384 25.0466C73.0173 25.7921 73.2857 26.3884 73.6435 26.8357C74.0013 27.2532 74.4486 27.5514 74.9853 27.7303C75.5221 27.9092 76.1483 27.9986 76.8639 27.9986C78.1163 27.9986 79.1152 27.8644 79.8606 27.5961C79.888 27.5856 79.915 27.5752 79.9418 27.5649C80.7475 27.2548 81.6478 27.727 81.8443 28.5677L82.0224 29.3296C82.1711 29.9653 81.8594 30.6131 81.2402 30.82C80.9108 30.9301 80.5255 31.0482 80.0843 31.1743C79.0406 31.5023 77.8479 31.6663 76.5061 31.6663C74.9257 31.6663 73.6137 31.4725 72.5701 31.0848C71.5562 30.6674 70.7362 30.0561 70.11 29.251C69.4839 28.4459 69.0366 27.4619 68.7682 26.299C68.5297 25.1063 68.4104 23.7346 68.4104 22.1841V2.61883C68.4104 1.93223 68.9049 1.34541 69.5815 1.229L70.9207 0.998606C71.7825 0.850343 72.5701 1.514 72.5701 2.38844V6.50572Z" fill="#413C39"/>
<path d="M122.835 40.2173C123.321 40.2173 123.715 40.6113 123.715 41.0974V53.9042C123.715 54.3903 123.321 54.7844 122.835 54.7844C122.348 54.7844 121.954 54.3903 121.954 53.9042V41.0974C121.954 40.6113 122.348 40.2173 122.835 40.2173Z" fill="#413C39"/>
<path d="M119.09 54.0031C119.09 54.4346 118.74 54.7843 118.308 54.7843C118.137 54.7843 117.999 54.758 117.893 54.7052C117.788 54.6525 117.718 54.5404 117.685 54.369C117.598 53.9557 117.094 53.7913 116.759 54.0494C116.745 54.0604 116.731 54.0713 116.716 54.0822C116.466 54.2668 116.202 54.425 115.925 54.5569C115.648 54.6822 115.352 54.7778 115.035 54.8437C114.725 54.9096 114.379 54.9426 113.997 54.9426C113.608 54.9426 113.242 54.8898 112.899 54.7843C112.563 54.6723 112.269 54.5074 112.019 54.2899C111.768 54.0723 111.567 53.7987 111.416 53.4691C111.271 53.1328 111.198 52.7372 111.198 52.2823C111.198 51.8868 111.307 51.5077 111.524 51.145C111.742 50.7758 112.091 50.4495 112.573 50.166C113.061 49.8825 113.697 49.6517 114.481 49.4737C115.079 49.3331 115.778 49.2384 116.578 49.1896C117.012 49.1632 117.359 48.8104 117.359 48.376C117.359 47.5981 117.191 47.0113 116.855 46.6157C116.525 46.2135 116.034 46.0125 115.381 46.0125C114.953 46.0125 114.59 46.0685 114.293 46.1806C114.003 46.2861 113.749 46.408 113.532 46.5465C113.321 46.6783 113.136 46.8003 112.978 46.9124C112.826 47.0179 112.675 47.0706 112.523 47.0706C112.405 47.0706 112.299 47.0409 112.207 46.9816C112.121 46.9157 112.052 46.8366 111.999 46.7443C111.813 46.4122 111.87 45.991 112.169 45.755C112.582 45.4292 113.016 45.1722 113.473 44.984C114.112 44.7202 114.821 44.5884 115.599 44.5884C116.159 44.5884 116.657 44.6807 117.092 44.8653C117.527 45.0499 117.893 45.307 118.19 45.6367C118.486 45.9663 118.711 46.3652 118.862 46.8333C119.014 47.3014 119.09 47.8156 119.09 48.376V54.0031ZM114.521 53.7064C114.831 53.7064 115.114 53.6767 115.371 53.6174C115.628 53.5515 115.869 53.4625 116.093 53.3504C116.324 53.2317 116.542 53.09 116.746 52.9251C116.818 52.8692 116.888 52.8105 116.959 52.7492C117.228 52.5134 117.359 52.162 117.359 51.8038V51.7316C117.359 50.9348 116.697 50.2834 115.906 50.3795C115.688 50.406 115.483 50.4371 115.292 50.4726C114.725 50.5715 114.264 50.7033 113.908 50.8681C113.552 51.033 113.291 51.2275 113.126 51.4516C112.968 51.6758 112.889 51.9263 112.889 52.2032C112.889 52.4669 112.932 52.6944 113.018 52.8856C113.103 53.0768 113.219 53.235 113.364 53.3603C113.509 53.4789 113.68 53.5679 113.878 53.6273C114.076 53.68 114.29 53.7064 114.521 53.7064Z" fill="#413C39"/>
<path d="M107.389 54.9425C106.598 54.9425 105.988 54.7216 105.56 54.2799C105.138 53.8382 104.927 53.202 104.927 52.3712V47.4463C104.927 46.78 104.387 46.2398 103.721 46.2398C103.615 46.2398 103.526 46.2102 103.454 46.1508C103.381 46.0849 103.345 45.986 103.345 45.8541C103.345 45.4529 103.643 45.1142 104.041 45.0639L104.22 45.0413C104.671 44.9842 105.028 44.6296 105.087 44.1783L105.392 41.8489C105.405 41.75 105.448 41.6709 105.52 41.6116C105.593 41.5457 105.685 41.5127 105.797 41.5127C106.289 41.5127 106.687 41.9112 106.687 42.4027V43.5538C106.687 44.3327 107.319 44.9641 108.098 44.9641H108.917C109.27 44.9641 109.555 45.2497 109.555 45.602C109.555 45.9542 109.27 46.2398 108.917 46.2398H108.098C107.319 46.2398 106.687 46.8712 106.687 47.6501V52.2526C106.687 52.6745 106.79 52.9877 106.994 53.1921C107.198 53.3964 107.462 53.4986 107.785 53.4986C107.97 53.4986 108.128 53.4756 108.26 53.4294C108.398 53.3767 108.517 53.3206 108.616 53.2613C108.715 53.202 108.797 53.1492 108.863 53.1031C108.936 53.0503 108.998 53.0239 109.051 53.0239C109.143 53.0239 109.226 53.08 109.298 53.1921C109.598 53.6814 109.516 54.3342 108.999 54.5825C108.908 54.6265 108.813 54.6674 108.715 54.7051C108.286 54.8634 107.844 54.9425 107.389 54.9425Z" fill="#413C39"/>
<path d="M100.371 44.7666C100.857 44.7666 101.251 45.1607 101.251 45.6468V53.9044C101.251 54.3905 100.857 54.7846 100.371 54.7846C99.8846 54.7846 99.4905 54.3905 99.4905 53.9044V45.6468C99.4905 45.1607 99.8846 44.7666 100.371 44.7666ZM101.646 41.6218C101.646 41.7932 101.61 41.9547 101.538 42.1064C101.472 42.2514 101.379 42.3833 101.261 42.502C101.149 42.614 101.017 42.703 100.865 42.769C100.714 42.8349 100.552 42.8679 100.381 42.8679C100.209 42.8679 100.048 42.8349 99.896 42.769C99.751 42.703 99.6191 42.614 99.5004 42.502C99.3883 42.3833 99.2993 42.2514 99.2334 42.1064C99.1675 41.9547 99.1345 41.7932 99.1345 41.6218C99.1345 41.4504 99.1675 41.2889 99.2334 41.1372C99.2993 40.979 99.3883 40.8438 99.5004 40.7318C99.6191 40.6131 99.751 40.5208 99.896 40.4549C100.048 40.3889 100.209 40.356 100.381 40.356C100.552 40.356 100.714 40.3889 100.865 40.4549C101.017 40.5208 101.149 40.6131 101.261 40.7318C101.379 40.8438 101.472 40.979 101.538 41.1372C101.61 41.2889 101.646 41.4504 101.646 41.6218Z" fill="#413C39"/>
<path d="M89.26 58.1764C88.7739 58.1764 88.3799 57.7823 88.3799 57.2962V45.8147C88.3799 45.2357 88.8492 44.7664 89.4282 44.7664C89.6787 44.7664 89.8369 44.8884 89.9028 45.1323C89.9589 45.5806 90.5466 45.7609 90.9009 45.4806C91.0965 45.3258 91.3011 45.1867 91.5148 45.0631C92.0686 44.7466 92.7048 44.5884 93.4235 44.5884C93.9971 44.5884 94.5179 44.7005 94.986 44.9246C95.4541 45.1422 95.853 45.4685 96.1826 45.9037C96.5123 46.3322 96.7661 46.8662 96.9441 47.5057C97.1221 48.1453 97.2111 48.8804 97.2111 49.7111C97.2111 50.4495 97.1122 51.1385 96.9144 51.778C96.7166 52.4109 96.4331 52.9614 96.0639 53.4295C95.6947 53.891 95.2398 54.2569 94.6992 54.5272C94.1652 54.7909 93.5619 54.9228 92.8894 54.9228C92.2697 54.9228 91.739 54.8206 91.2973 54.6162C90.8345 54.3989 90.1402 54.6925 90.1402 55.2037V57.2962C90.1402 57.7823 89.7461 58.1764 89.26 58.1764ZM92.84 46.0125C92.2664 46.0125 91.7621 46.1443 91.3269 46.408C91.0135 46.6009 90.7178 46.8519 90.4397 47.1611C90.2349 47.3887 90.1402 47.6911 90.1402 47.9973V51.9051C90.1402 52.2078 90.2305 52.5094 90.4394 52.7287C90.6778 52.979 90.9308 53.1665 91.1984 53.291C91.5873 53.4691 92.0192 53.5581 92.4939 53.5581C93.4235 53.5581 94.1388 53.2251 94.6399 52.5592C95.1409 51.8933 95.3915 50.944 95.3915 49.7111C95.3915 49.0584 95.3321 48.498 95.2135 48.0299C95.1014 47.5618 94.9366 47.1794 94.719 46.8827C94.5014 46.5794 94.2344 46.3586 93.9179 46.2201C93.6015 46.0817 93.2422 46.0125 92.84 46.0125Z" fill="#413C39"/>
<path d="M85.713 54.0031C85.713 54.4346 85.3632 54.7843 84.9318 54.7843C84.7603 54.7843 84.6219 54.758 84.5164 54.7052C84.4109 54.6525 84.3417 54.5404 84.3087 54.369C84.2208 53.9557 83.7169 53.7913 83.3824 54.0494C83.3681 54.0604 83.3538 54.0713 83.3396 54.0822C83.089 54.2668 82.8253 54.425 82.5484 54.5569C82.2715 54.6822 81.9748 54.7778 81.6584 54.8437C81.3485 54.9096 81.0024 54.9426 80.62 54.9426C80.231 54.9426 79.8651 54.8898 79.5223 54.7843C79.186 54.6723 78.8926 54.5074 78.6421 54.2899C78.3916 54.0723 78.1905 53.7987 78.0389 53.4691C77.8938 53.1328 77.8213 52.7372 77.8213 52.2823C77.8213 51.8868 77.9301 51.5077 78.1476 51.145C78.3652 50.7758 78.7146 50.4495 79.1959 50.166C79.6838 49.8825 80.32 49.6517 81.1046 49.4737C81.7022 49.3331 82.4013 49.2384 83.2017 49.1896C83.6353 49.1632 83.9824 48.8104 83.9824 48.376C83.9824 47.5981 83.8143 47.0113 83.478 46.6157C83.1484 46.2135 82.6572 46.0125 82.0045 46.0125C81.576 46.0125 81.2134 46.0685 80.9167 46.1806C80.6266 46.2861 80.3728 46.408 80.1552 46.5465C79.9442 46.6783 79.7596 46.8003 79.6014 46.9124C79.4497 47.0179 79.2981 47.0706 79.1465 47.0706C79.0278 47.0706 78.9223 47.0409 78.83 46.9816C78.7443 46.9157 78.6751 46.8366 78.6223 46.7443C78.4359 46.4122 78.4933 45.991 78.7922 45.755C79.2049 45.4292 79.6395 45.1722 80.0958 44.984C80.7354 44.7202 81.4441 44.5884 82.2221 44.5884C82.7825 44.5884 83.2802 44.6807 83.7154 44.8653C84.1505 45.0499 84.5164 45.307 84.8131 45.6367C85.1098 45.9663 85.3339 46.3652 85.4856 46.8333C85.6372 47.3014 85.713 47.8156 85.713 48.376V54.0031ZM81.1441 53.7064C81.454 53.7064 81.7375 53.6767 81.9946 53.6174C82.2517 53.5515 82.4924 53.4625 82.7165 53.3504C82.9473 53.2317 83.1649 53.09 83.3692 52.9251C83.4409 52.8692 83.5118 52.8105 83.5819 52.7492C83.8517 52.5134 83.9824 52.162 83.9824 51.8038V51.7316C83.9824 50.9348 83.3207 50.2834 82.5297 50.3795C82.3111 50.406 82.1064 50.4371 81.9155 50.4726C81.3485 50.5715 80.887 50.7033 80.531 50.8681C80.175 51.033 79.9145 51.2275 79.7497 51.4516C79.5915 51.6758 79.5124 51.9263 79.5124 52.2032C79.5124 52.4669 79.5552 52.6944 79.6409 52.8856C79.7266 53.0768 79.842 53.235 79.9871 53.3603C80.1321 53.4789 80.3035 53.5679 80.5013 53.6273C80.6991 53.68 80.9134 53.7064 81.1441 53.7064Z" fill="#413C39"/>
<path d="M75.956 46.5467C75.9033 46.6192 75.8505 46.6753 75.7978 46.7148C75.745 46.7544 75.6692 46.7742 75.5703 46.7742C75.4714 46.7742 75.3626 46.7346 75.244 46.6555C75.1319 46.5698 74.9868 46.4775 74.8088 46.3786C74.6308 46.2797 74.4133 46.1907 74.1561 46.1116C73.9056 46.0259 73.5957 45.983 73.2265 45.983C72.7387 45.983 72.3068 46.072 71.931 46.25C71.5552 46.4215 71.2388 46.672 70.9816 47.0016C70.7311 47.3313 70.5399 47.7301 70.4081 48.1982C70.2828 48.6663 70.2202 49.1905 70.2202 49.7707C70.2202 50.3772 70.2894 50.9178 70.4278 51.3925C70.5663 51.8606 70.7608 52.2562 71.0113 52.5792C71.2618 52.8957 71.5651 53.1396 71.9211 53.3111C72.2837 53.4759 72.6892 53.5583 73.1375 53.5583C73.5661 53.5583 73.9188 53.5089 74.1957 53.41C74.4726 53.3045 74.7034 53.1891 74.888 53.0638C75.0726 52.9386 75.2242 52.8265 75.3429 52.7276C75.4615 52.6221 75.5802 52.5694 75.6989 52.5694C75.8505 52.5694 75.9626 52.6254 76.0351 52.7375C76.3249 53.1141 76.3264 53.6538 75.9565 53.952C75.6429 54.2049 75.29 54.4066 74.8978 54.5571C74.2451 54.8011 73.5562 54.923 72.831 54.923C72.2046 54.923 71.6212 54.8077 71.0805 54.5769C70.5465 54.3462 70.0817 54.0132 69.6861 53.5781C69.2906 53.1364 68.9774 52.5957 68.7466 51.9562C68.5225 51.3167 68.4104 50.5882 68.4104 49.7707C68.4104 49.0257 68.5126 48.3367 68.717 47.7038C68.9279 47.0709 69.2312 46.5269 69.6268 46.072C70.029 45.6105 70.5234 45.2512 71.1102 44.9941C71.697 44.737 72.3695 44.6084 73.1276 44.6084C73.8265 44.6084 74.4462 44.7238 74.9868 44.9545C75.2834 45.0775 75.5611 45.2292 75.82 45.4097C76.1905 45.6681 76.2234 46.1827 75.956 46.5467Z" fill="#413C39"/>
<defs>
<clipPath id="clip0_1057_5068">
<rect width="58.6587" height="57.4615" fill="white" transform="translate(0.175049 0.714844)"/>
</clipPath>
</defs>
</svg>
