<svg width="46" height="44" viewBox="0 0 46 44" fill="none" xmlns="http://www.w3.org/2000/svg">
<path fill-rule="evenodd" clip-rule="evenodd" d="M2.75774 20.1555V18.2072C2.75774 17.2546 3.60014 16.4824 4.63934 16.4824H6.08414C7.12334 16.4824 7.96574 17.2546 7.96574 18.2072V20.1555H16.5678V18.2072C16.5678 17.2546 17.4102 16.4824 18.4494 16.4824H19.8942C20.9334 16.4824 21.7758 17.2546 21.7758 18.2072V20.1555H21.7907C22.8299 20.1555 23.6723 20.9277 23.6723 21.8803V24.6285C23.6723 25.5811 22.8299 26.3533 21.7907 26.3533H21.7758V29.7638H24.172C25.2112 29.7638 26.0536 30.536 26.0536 31.4886V35.1049C26.0536 36.0575 25.2112 36.8297 24.172 36.8297H23.6805V38.8885C23.6805 39.8411 22.8381 40.6133 21.7989 40.6133H20.3541C19.3149 40.6133 18.4725 39.8411 18.4725 38.8885V36.8297H6.0611V38.8885C6.0611 39.8411 5.2187 40.6133 4.1795 40.6133H2.7347C1.6955 40.6133 0.853101 39.8411 0.853101 38.8885V36.8297H0.361581C-0.677619 36.8297 -1.52002 36.0575 -1.52002 35.1049V31.4886C-1.52002 30.536 -0.677619 29.7638 0.361581 29.7638H2.75774V26.3533H2.74238C1.70366 26.3533 0.860781 25.5811 0.860781 24.6285V21.8803C0.860781 20.9277 1.70366 20.1555 2.74238 20.1555H2.75774ZM37.7128 33.6996V38.6923C37.7128 39.6449 36.8704 40.4171 35.8312 40.4171H34.3873C33.3481 40.4171 32.5057 39.6449 32.5057 38.6923V33.6996C28.0825 32.435 24.6985 28.0328 24.6985 22.6653C24.6985 19.4946 25.8827 16.6377 27.7504 14.5926C27.472 13.7253 27.3189 12.7899 27.3189 11.8144C27.3189 7.07254 30.9289 3.38666 35.1093 3.38666C39.2896 3.38666 42.8997 7.07254 42.8997 11.8144C42.8997 12.7899 42.7465 13.7253 42.4677 14.5926C44.3358 16.6377 45.52 19.4946 45.52 22.6653C45.52 28.0328 42.136 32.435 37.7128 33.6996ZM4.1795 36.8297H2.7347V38.8885H4.1795V36.8297ZM21.7989 36.8297H20.3541V38.8885H21.7989V36.8297ZM35.8312 38.6923V25.5389L40.2131 23.3701L39.5272 22.205L35.8312 24.0345V20.1771H34.3873V38.6923H35.8312ZM24.172 31.4886H0.361581V35.1049H24.172V31.4886ZM37.7128 31.8806C41.1486 30.6306 43.6384 26.9751 43.6384 22.6653C43.6384 19.5448 42.3333 16.7675 40.3091 14.9983C40.7613 14.0505 41.0181 12.9663 41.0181 11.8144C41.0181 8.1149 38.3704 5.11146 35.1093 5.11146C31.8481 5.11146 29.2005 8.1149 29.2005 11.8144C29.2005 12.9663 29.4573 14.0505 29.9094 14.9983C27.8853 16.7675 26.5801 19.5448 26.5801 22.6653C26.5801 26.9751 29.0694 30.6306 32.5057 31.8806V20.1771C32.5057 19.2245 33.3481 18.4523 34.3873 18.4523H35.8312C36.8704 18.4523 37.7128 19.2245 37.7128 20.1771V21.1429L38.6329 20.6875C39.5473 20.2347 40.6893 20.5475 41.1827 21.3857L41.8686 22.5504C42.3625 23.3886 42.0213 24.4349 41.1069 24.8877L37.7128 26.5676V31.8806ZM4.63934 26.3533V29.7638H6.08414V26.3533H4.63934ZM7.96574 26.3533V29.7638H16.5678V26.3533H7.96574ZM18.4494 26.3533V29.7638H19.8942V26.3533H18.4494ZM21.7907 21.8803H2.74238V24.6285H21.7907V21.8803ZM6.08414 20.1555V18.2072H4.63934V20.1555H6.08414ZM19.8942 20.1555V18.2072H18.4494V20.1555H19.8942Z" fill="#56352E"/>
</svg>
